{"glyphs":{"0":{"ha":872,"x_min":83,"x_max":790,"o":"m 436 -14 q 176 108 268 -14 q 83 458 83 229 q 176 809 83 688 q 436 931 268 931 q 697 809 604 931 q 790 458 790 688 q 697 108 790 229 q 436 -14 604 -14 m 436 113 q 588 199 536 113 q 639 458 639 286 q 588 717 639 631 q 436 804 536 804 q 235 458 235 804 q 436 113 235 113 z "},"1":{"ha":558,"x_min":25,"x_max":429,"o":"m 282 629 q 285 750 282 664 q 176 672 236 706 q 53 625 115 639 l 25 754 q 119 785 63 758 q 228 847 176 811 q 304 917 281 883 l 429 917 l 429 0 l 282 0 l 282 629 z "},"2":{"ha":815,"x_min":68,"x_max":735,"o":"m 97 110 q 378 324 278 236 q 522 485 478 413 q 565 636 565 558 q 519 756 565 710 q 392 801 472 801 q 255 744 306 801 q 197 586 204 688 l 68 646 q 169 854 82 778 q 400 931 257 931 q 571 892 499 931 q 681 789 643 854 q 718 642 718 724 q 620 390 718 510 q 294 125 522 271 l 294 122 q 446 128 364 128 l 735 128 l 735 0 l 97 0 l 97 110 z "},"3":{"ha":814,"x_min":53,"x_max":732,"o":"m 407 -14 q 182 44 276 -14 q 53 206 88 101 l 197 274 q 269 154 218 194 q 413 114 321 114 q 537 156 492 114 q 582 268 582 199 q 542 369 582 336 q 417 401 501 401 q 346 397 386 401 l 346 522 q 393 519 379 519 q 522 556 482 519 q 561 668 561 592 q 522 768 561 733 q 408 803 482 803 q 291 768 335 803 q 225 665 247 733 l 89 722 q 206 875 118 818 q 415 932 294 932 q 634 864 557 932 q 711 689 711 796 q 659 533 711 592 q 539 464 607 475 l 539 461 q 635 434 592 460 q 706 364 679 408 q 732 264 732 319 q 691 119 732 182 q 576 21 650 56 q 407 -14 501 -14 z "},"4":{"ha":864,"x_min":61,"x_max":804,"o":"m 508 229 l 61 229 l 61 331 q 85 369 68 344 l 467 917 l 649 917 l 649 344 l 804 344 l 804 229 l 649 229 l 649 0 l 508 0 l 508 229 m 508 344 l 508 668 q 511 750 508 694 q 514 807 514 789 l 511 807 q 426 665 476 736 l 210 357 q 200 344 204 349 l 508 344 z "},"5":{"ha":808,"x_min":74,"x_max":732,"o":"m 399 -14 q 200 38 279 -14 q 74 192 121 89 l 213 264 q 278 151 233 190 q 401 113 322 113 q 537 159 488 113 q 586 288 586 206 q 540 421 586 375 q 408 467 494 467 q 222 388 279 467 l 100 411 l 156 917 l 689 917 l 689 789 l 274 789 l 240 531 l 238 515 l 240 515 q 443 589 307 589 q 596 552 531 589 q 697 450 661 515 q 732 299 732 385 q 689 130 732 200 q 570 23 646 60 q 399 -14 494 -14 z "},"6":{"ha":849,"x_min":83,"x_max":774,"o":"m 457 931 q 643 884 569 931 q 757 735 717 838 l 626 672 q 447 801 586 801 q 281 703 342 801 q 221 449 221 604 l 221 424 l 226 421 q 318 538 247 497 q 469 578 389 578 q 690 499 607 578 q 774 286 774 419 q 686 67 774 149 q 450 -14 599 -14 q 253 44 336 -14 q 127 208 171 101 q 83 456 83 314 q 132 715 83 607 q 265 876 181 822 q 457 931 350 931 m 447 454 q 318 408 368 454 q 268 286 268 361 q 319 164 268 214 q 447 114 371 114 q 579 159 532 114 q 626 286 626 204 q 579 410 626 365 q 447 454 532 454 z "},"7":{"ha":799,"x_min":53,"x_max":751,"o":"m 751 917 l 751 793 q 508 426 583 619 q 432 0 432 232 l 282 0 q 360 420 282 221 q 599 788 439 619 l 53 788 l 53 917 l 751 917 z "},"8":{"ha":860,"x_min":85,"x_max":775,"o":"m 431 929 q 653 863 569 929 q 736 685 736 797 q 701 560 736 614 q 603 479 667 506 l 603 478 q 730 390 685 447 q 775 249 775 332 q 733 110 775 169 q 613 18 690 50 q 431 -14 535 -14 q 248 19 326 -14 q 127 110 169 51 q 85 249 85 169 q 131 390 85 331 q 258 478 176 449 l 258 479 q 159 559 194 506 q 124 685 124 613 q 207 863 124 797 q 431 929 290 929 m 431 804 q 314 769 357 804 q 271 669 271 733 q 314 572 271 607 q 431 536 357 536 q 547 572 503 536 q 590 669 590 607 q 547 768 590 732 q 431 804 504 804 m 431 111 q 573 151 521 111 q 625 263 625 192 q 572 374 625 333 q 431 415 519 415 q 288 374 342 415 q 235 263 235 333 q 288 151 235 192 q 431 111 340 111 z "},"9":{"ha":857,"x_min":85,"x_max":774,"o":"m 411 931 q 679 804 585 931 q 774 460 774 678 q 680 106 774 226 q 413 -14 586 -14 q 211 38 294 -14 q 88 192 128 90 l 228 257 q 415 114 272 114 q 588 206 536 114 q 639 475 639 299 l 639 490 l 633 490 q 541 372 610 411 q 389 333 472 333 q 231 369 300 333 q 123 469 161 404 q 85 621 85 533 q 172 847 85 763 q 411 931 260 931 m 413 800 q 279 753 325 800 q 233 618 233 706 q 282 503 233 546 q 413 461 331 461 q 542 508 492 461 q 592 629 592 554 q 542 753 592 707 q 413 800 492 800 z "},"\u0000":{"ha":0,"x_min":0,"x_max":0,"o":""},"\r":{"ha":451,"x_min":0,"x_max":0,"o":""}," ":{"ha":451,"x_min":0,"x_max":0,"o":""},"A":{"ha":924,"x_min":28,"x_max":897,"o":"m 654 240 l 268 240 l 181 0 l 28 0 l 374 917 l 551 917 l 897 0 l 740 0 l 654 240 m 610 361 l 504 656 l 463 788 l 458 788 l 419 658 l 311 361 l 610 361 z "},"Á":{"ha":924,"x_min":28,"x_max":897,"o":"m 654 240 l 268 240 l 181 0 l 28 0 l 374 917 l 551 917 l 897 0 l 740 0 l 654 240 m 610 361 l 504 656 l 463 788 l 458 788 l 419 658 l 311 361 l 610 361 m 625 1246 l 504 1024 l 390 1024 l 481 1246 l 625 1246 z "},"Ă":{"ha":924,"x_min":28,"x_max":897,"o":"m 654 240 l 268 240 l 181 0 l 28 0 l 374 917 l 551 917 l 897 0 l 740 0 l 654 240 m 610 361 l 504 656 l 463 788 l 458 788 l 419 658 l 311 361 l 610 361 z "},"Ắ":{"ha":924,"x_min":28,"x_max":897,"o":"m 493 1247 l 383 1247 l 456 1433 l 597 1433 l 493 1247 m 463 1014 q 310 1071 368 1014 q 251 1222 251 1128 l 358 1222 q 387 1142 360 1174 q 463 1110 414 1110 q 538 1142 511 1110 q 565 1222 564 1174 l 672 1222 q 615 1071 672 1128 q 463 1014 557 1014 m 654 240 l 268 240 l 181 0 l 28 0 l 374 917 l 551 917 l 897 0 l 740 0 l 654 240 m 610 361 l 504 656 l 463 788 l 458 788 l 419 658 l 311 361 l 610 361 z "},"Ặ":{"ha":924,"x_min":28,"x_max":897,"o":"m 654 240 l 268 240 l 181 0 l 28 0 l 374 917 l 551 917 l 897 0 l 740 0 l 654 240 m 610 361 l 504 656 l 463 788 l 458 788 l 419 658 l 311 361 l 610 361 m 463 -303 q 392 -278 418 -303 q 367 -211 367 -254 q 392 -144 367 -168 q 463 -119 418 -119 q 533 -144 507 -119 q 560 -211 560 -168 q 533 -278 560 -254 q 463 -303 507 -303 z "},"Ằ":{"ha":924,"x_min":28,"x_max":897,"o":"m 431 1247 l 326 1433 l 468 1433 l 540 1247 l 431 1247 m 463 1014 q 310 1071 368 1014 q 251 1222 251 1128 l 358 1222 q 387 1142 360 1174 q 463 1110 414 1110 q 538 1142 511 1110 q 565 1222 564 1174 l 672 1222 q 615 1071 672 1128 q 463 1014 557 1014 m 654 240 l 268 240 l 181 0 l 28 0 l 374 917 l 551 917 l 897 0 l 740 0 l 654 240 m 610 361 l 504 656 l 463 788 l 458 788 l 419 658 l 311 361 l 610 361 z "},"Ẳ":{"ha":924,"x_min":28,"x_max":897,"o":"m 442 1407 q 406 1397 421 1407 q 381 1367 392 1388 l 304 1414 q 363 1479 324 1456 q 457 1503 403 1503 q 556 1468 517 1503 q 594 1379 594 1433 q 559 1285 594 1325 q 464 1226 524 1246 l 421 1278 q 475 1314 458 1296 q 492 1360 492 1332 q 478 1394 492 1381 q 442 1407 465 1407 m 463 1014 q 310 1071 368 1014 q 251 1222 251 1128 l 358 1222 q 387 1142 360 1174 q 463 1110 414 1110 q 538 1142 511 1110 q 565 1222 564 1174 l 672 1222 q 615 1071 672 1128 q 463 1014 557 1014 m 654 240 l 268 240 l 181 0 l 28 0 l 374 917 l 551 917 l 897 0 l 740 0 l 654 240 m 610 361 l 504 656 l 463 788 l 458 788 l 419 658 l 311 361 l 610 361 z "},"Ẵ":{"ha":924,"x_min":28,"x_max":897,"o":"m 374 1350 q 334 1331 347 1350 q 314 1271 321 1313 l 215 1271 q 262 1407 221 1361 q 372 1453 303 1453 q 435 1440 410 1453 q 489 1403 461 1426 q 523 1378 511 1385 q 550 1371 535 1371 q 589 1390 575 1371 q 610 1450 603 1410 l 708 1450 q 663 1314 703 1360 q 556 1268 622 1268 q 490 1281 517 1268 q 436 1318 464 1294 q 402 1342 415 1335 q 374 1350 389 1350 m 463 1110 q 538 1142 511 1110 q 567 1222 565 1174 l 674 1222 q 615 1071 674 1128 q 463 1014 557 1014 q 310 1071 368 1014 q 253 1222 253 1128 l 360 1222 q 388 1142 361 1174 q 463 1110 414 1110 m 654 240 l 268 240 l 181 0 l 28 0 l 374 917 l 551 917 l 897 0 l 740 0 l 654 240 m 610 361 l 504 656 l 463 788 l 458 788 l 419 658 l 311 361 l 610 361 z "},"Â":{"ha":924,"x_min":28,"x_max":897,"o":"m 654 240 l 268 240 l 181 0 l 28 0 l 374 917 l 551 917 l 897 0 l 740 0 l 654 240 m 610 361 l 504 656 l 463 788 l 458 788 l 419 658 l 311 361 l 610 361 m 568 1024 l 463 1165 l 357 1024 l 236 1024 l 385 1246 l 540 1246 l 689 1024 l 568 1024 z "},"Ấ":{"ha":924,"x_min":28,"x_max":897,"o":"m 744 1172 l 643 1172 l 724 1372 l 853 1372 l 744 1172 m 351 1014 l 232 1014 l 385 1244 l 539 1244 l 692 1014 l 572 1014 l 463 1161 l 351 1014 m 654 240 l 268 240 l 181 0 l 28 0 l 374 917 l 551 917 l 897 0 l 740 0 l 654 240 m 610 361 l 504 656 l 463 788 l 458 788 l 419 658 l 311 361 l 610 361 z "},"Ậ":{"ha":924,"x_min":28,"x_max":897,"o":"m 654 240 l 268 240 l 181 0 l 28 0 l 374 917 l 551 917 l 897 0 l 740 0 l 654 240 m 610 361 l 504 656 l 463 788 l 458 788 l 419 658 l 311 361 l 610 361 m 463 -303 q 392 -278 418 -303 q 367 -211 367 -254 q 392 -144 367 -168 q 463 -119 418 -119 q 533 -144 507 -119 q 560 -211 560 -168 q 533 -278 560 -254 q 463 -303 507 -303 m 568 1024 l 463 1165 l 357 1024 l 236 1024 l 385 1246 l 540 1246 l 689 1024 l 568 1024 z "},"Ầ":{"ha":924,"x_min":28,"x_max":897,"o":"m 669 1172 l 561 1372 l 690 1372 l 771 1172 l 669 1172 m 351 1014 l 232 1014 l 385 1244 l 539 1244 l 692 1014 l 572 1014 l 463 1161 l 351 1014 m 654 240 l 268 240 l 181 0 l 28 0 l 374 917 l 551 917 l 897 0 l 740 0 l 654 240 m 610 361 l 504 656 l 463 788 l 458 788 l 419 658 l 311 361 l 610 361 z "},"Ẩ":{"ha":924,"x_min":28,"x_max":897,"o":"m 671 1329 q 635 1319 650 1329 q 610 1289 621 1310 l 532 1336 q 591 1403 551 1379 q 688 1426 631 1426 q 788 1391 749 1426 q 826 1300 826 1356 q 790 1206 826 1246 q 693 1146 754 1165 l 650 1197 q 706 1235 689 1217 q 722 1281 722 1253 q 709 1316 722 1303 q 671 1329 696 1329 m 351 1014 l 232 1014 l 385 1244 l 539 1244 l 692 1014 l 572 1014 l 463 1161 l 351 1014 m 654 240 l 268 240 l 181 0 l 28 0 l 374 917 l 551 917 l 897 0 l 740 0 l 654 240 m 610 361 l 504 656 l 463 788 l 458 788 l 419 658 l 311 361 l 610 361 z "},"Ẫ":{"ha":924,"x_min":28,"x_max":897,"o":"m 372 1364 q 333 1344 347 1364 q 313 1285 319 1325 l 214 1285 q 262 1422 221 1376 q 372 1467 303 1467 q 435 1453 410 1467 q 488 1417 461 1440 q 522 1392 510 1399 q 549 1385 533 1385 q 588 1403 574 1385 q 610 1464 603 1422 l 707 1464 q 661 1327 701 1372 q 554 1282 621 1282 q 489 1295 515 1282 q 435 1332 463 1308 q 401 1356 414 1349 q 372 1364 388 1364 m 539 1244 l 692 1014 l 572 1014 l 463 1161 l 351 1014 l 232 1014 l 385 1244 l 539 1244 m 654 240 l 268 240 l 181 0 l 28 0 l 374 917 l 551 917 l 897 0 l 740 0 l 654 240 m 610 361 l 504 656 l 463 788 l 458 788 l 419 658 l 311 361 l 610 361 z "},"Ȁ":{"ha":924,"x_min":28,"x_max":897,"o":"m 654 240 l 268 240 l 181 0 l 28 0 l 374 917 l 551 917 l 897 0 l 740 0 l 654 240 m 610 361 l 504 656 l 463 788 l 458 788 l 419 658 l 311 361 l 610 361 m 389 1024 l 275 1024 l 154 1246 l 299 1246 l 389 1024 m 654 1024 l 540 1024 l 419 1246 l 564 1246 l 654 1024 z "},"Ä":{"ha":924,"x_min":28,"x_max":897,"o":"m 654 240 l 268 240 l 181 0 l 28 0 l 374 917 l 551 917 l 897 0 l 740 0 l 654 240 m 610 361 l 504 656 l 463 788 l 458 788 l 419 658 l 311 361 l 610 361 m 322 1194 q 388 1171 364 1194 q 413 1107 413 1147 q 388 1043 413 1067 q 322 1019 364 1019 q 256 1043 281 1019 q 232 1107 232 1067 q 256 1171 232 1147 q 322 1194 281 1194 m 603 1194 q 669 1171 644 1194 q 693 1107 693 1147 q 669 1043 693 1067 q 603 1019 644 1019 q 537 1043 561 1019 q 513 1107 513 1067 q 537 1171 513 1147 q 603 1194 561 1194 z "},"Ạ":{"ha":924,"x_min":28,"x_max":897,"o":"m 654 240 l 268 240 l 181 0 l 28 0 l 374 917 l 551 917 l 897 0 l 740 0 l 654 240 m 610 361 l 504 656 l 463 788 l 458 788 l 419 658 l 311 361 l 610 361 m 463 -303 q 392 -278 418 -303 q 367 -211 367 -254 q 392 -144 367 -168 q 463 -119 418 -119 q 533 -144 507 -119 q 560 -211 560 -168 q 533 -278 560 -254 q 463 -303 507 -303 z "},"À":{"ha":924,"x_min":28,"x_max":897,"o":"m 654 240 l 268 240 l 181 0 l 28 0 l 374 917 l 551 917 l 897 0 l 740 0 l 654 240 m 610 361 l 504 656 l 463 788 l 458 788 l 419 658 l 311 361 l 610 361 m 528 1024 l 414 1024 l 293 1246 l 438 1246 l 528 1024 z "},"Ả":{"ha":924,"x_min":28,"x_max":897,"o":"m 654 240 l 268 240 l 181 0 l 28 0 l 374 917 l 551 917 l 897 0 l 740 0 l 654 240 m 610 361 l 504 656 l 463 788 l 458 788 l 419 658 l 311 361 l 610 361 m 421 1039 q 476 1076 458 1057 q 493 1122 493 1094 q 478 1157 493 1143 q 440 1171 464 1171 q 381 1129 401 1171 l 301 1176 q 362 1244 322 1219 q 458 1268 401 1268 q 558 1233 519 1268 q 597 1142 597 1197 q 561 1047 597 1088 q 464 988 525 1007 l 421 1039 z "},"Ȃ":{"ha":924,"x_min":28,"x_max":897,"o":"m 654 240 l 268 240 l 181 0 l 28 0 l 374 917 l 551 917 l 897 0 l 740 0 l 654 240 m 610 361 l 504 656 l 463 788 l 458 788 l 419 658 l 311 361 l 610 361 m 568 1014 q 540 1096 567 1064 q 463 1128 513 1128 q 385 1096 413 1128 q 357 1014 358 1064 l 249 1014 q 307 1168 249 1110 q 463 1226 365 1226 q 618 1168 560 1226 q 676 1014 676 1110 l 568 1014 z "},"Ā":{"ha":924,"x_min":28,"x_max":897,"o":"m 654 240 l 268 240 l 181 0 l 28 0 l 374 917 l 551 917 l 897 0 l 740 0 l 654 240 m 610 361 l 504 656 l 463 788 l 458 788 l 419 658 l 311 361 l 610 361 m 697 1039 l 228 1039 l 228 1147 l 697 1147 l 697 1039 z "},"Ą":{"ha":924,"x_min":28,"x_max":910,"o":"m 910 -272 q 789 -299 871 -299 q 663 -260 710 -299 q 615 -150 615 -221 q 736 14 615 -43 l 654 240 l 268 240 l 181 0 l 28 0 l 374 917 l 551 917 l 897 0 q 765 -60 801 -28 q 728 -135 728 -93 q 750 -185 728 -167 q 813 -203 772 -203 q 885 -187 863 -203 l 910 -272 m 610 361 l 504 656 l 463 788 l 458 788 l 419 658 l 311 361 l 610 361 z "},"Å":{"ha":924,"x_min":28,"x_max":897,"o":"m 654 240 l 268 240 l 181 0 l 28 0 l 354 867 q 299 924 318 888 q 279 1007 279 961 q 329 1128 279 1082 q 460 1175 379 1175 q 590 1128 540 1175 q 639 1007 639 1082 q 621 927 639 963 q 569 869 603 892 l 897 0 l 740 0 l 654 240 m 460 1096 q 394 1071 419 1096 q 368 1007 368 1046 q 394 943 368 968 q 460 918 419 918 q 526 943 500 918 q 551 1007 551 968 q 526 1071 551 1046 q 460 1096 500 1096 m 610 361 l 504 656 l 463 788 l 458 788 l 419 658 l 311 361 l 610 361 z "},"Ǻ":{"ha":924,"x_min":28,"x_max":897,"o":"m 654 240 l 268 240 l 181 0 l 28 0 l 354 867 q 299 924 318 888 q 279 1007 279 961 q 329 1128 279 1082 q 460 1175 379 1175 q 590 1128 540 1175 q 639 1007 639 1082 q 621 927 639 963 q 569 869 603 892 l 897 0 l 740 0 l 654 240 m 460 1096 q 394 1071 419 1096 q 368 1007 368 1046 q 394 943 368 968 q 460 918 419 918 q 526 943 500 918 q 551 1007 551 968 q 526 1071 551 1046 q 460 1096 500 1096 m 610 361 l 504 656 l 463 788 l 458 788 l 419 658 l 311 361 l 610 361 m 629 1464 l 508 1242 l 394 1242 l 485 1464 l 629 1464 z "},"Ã":{"ha":924,"x_min":28,"x_max":897,"o":"m 654 240 l 268 240 l 181 0 l 28 0 l 374 917 l 551 917 l 897 0 l 740 0 l 654 240 m 610 361 l 504 656 l 463 788 l 458 788 l 419 658 l 311 361 l 610 361 m 719 1218 q 672 1072 714 1122 q 560 1022 631 1022 q 492 1037 519 1022 q 435 1078 464 1051 q 397 1105 410 1097 q 368 1113 383 1113 q 326 1090 340 1113 q 304 1021 311 1067 l 203 1021 q 367 1218 215 1218 q 433 1203 406 1218 q 490 1163 460 1189 q 526 1136 513 1144 q 554 1128 539 1128 q 597 1150 582 1128 q 619 1218 611 1172 l 719 1218 z "},"Æ":{"ha":1313,"x_min":4,"x_max":1249,"o":"m 1249 125 l 1249 0 l 614 0 l 614 289 l 311 289 l 160 0 l 4 0 l 497 917 l 1229 917 l 1229 792 l 758 792 l 758 525 l 1117 525 l 1117 401 l 758 401 l 758 125 l 1249 125 m 614 408 l 614 793 l 578 793 l 369 408 l 614 408 z "},"Ǽ":{"ha":1313,"x_min":4,"x_max":1249,"o":"m 1249 125 l 1249 0 l 614 0 l 614 289 l 311 289 l 160 0 l 4 0 l 497 917 l 1229 917 l 1229 792 l 758 792 l 758 525 l 1117 525 l 1117 401 l 758 401 l 758 125 l 1249 125 m 614 408 l 614 793 l 578 793 l 369 408 l 614 408 m 849 1246 l 728 1024 l 614 1024 l 704 1246 l 849 1246 z "},"B":{"ha":919,"x_min":136,"x_max":839,"o":"m 136 917 l 497 917 q 737 851 658 917 q 815 665 815 786 q 772 535 815 590 q 651 465 729 479 l 651 464 q 788 392 738 450 q 839 254 839 333 q 751 67 839 135 q 503 0 664 0 l 136 0 l 136 917 m 486 522 q 661 657 661 522 q 486 792 661 792 l 282 792 l 282 522 l 486 522 m 510 124 q 640 159 596 124 q 685 261 685 194 q 640 363 685 328 q 510 399 596 399 l 282 399 l 282 124 l 510 124 z "},"C":{"ha":950,"x_min":85,"x_max":896,"o":"m 896 243 q 753 53 854 119 q 517 -14 653 -14 q 288 43 385 -14 q 138 207 190 100 q 85 458 85 314 q 138 710 85 603 q 288 874 190 817 q 515 931 385 931 q 747 874 653 931 q 882 706 840 817 l 742 643 q 662 763 715 724 q 524 801 608 801 q 317 710 394 801 q 240 458 240 619 q 314 206 240 296 q 519 115 388 115 q 667 160 606 115 q 754 290 729 204 l 896 243 z "},"Ć":{"ha":950,"x_min":85,"x_max":896,"o":"m 896 243 q 753 53 854 119 q 517 -14 653 -14 q 288 43 385 -14 q 138 207 190 100 q 85 458 85 314 q 138 710 85 603 q 288 874 190 817 q 515 931 385 931 q 747 874 653 931 q 882 706 840 817 l 742 643 q 662 763 715 724 q 524 801 608 801 q 317 710 394 801 q 240 458 240 619 q 314 206 240 296 q 519 115 388 115 q 667 160 606 115 q 754 290 729 204 l 896 243 m 675 1246 l 554 1024 l 440 1024 l 531 1246 l 675 1246 z "},"Č":{"ha":950,"x_min":85,"x_max":896,"o":"m 896 243 q 753 53 854 119 q 517 -14 653 -14 q 288 43 385 -14 q 138 207 190 100 q 85 458 85 314 q 138 710 85 603 q 288 874 190 817 q 515 931 385 931 q 747 874 653 931 q 882 706 840 817 l 742 643 q 662 763 715 724 q 524 801 608 801 q 317 710 394 801 q 240 458 240 619 q 314 206 240 296 q 519 115 388 115 q 667 160 606 115 q 754 290 729 204 l 896 243 m 590 1024 l 435 1024 l 286 1246 l 407 1246 l 513 1104 l 618 1246 l 739 1246 l 590 1024 z "},"Ç":{"ha":950,"x_min":85,"x_max":896,"o":"m 896 243 q 782 74 860 138 q 594 -8 704 10 q 654 -133 654 -54 q 605 -251 654 -204 q 478 -299 556 -299 q 342 -258 399 -299 l 372 -168 q 415 -190 394 -182 q 463 -199 436 -199 q 525 -174 501 -199 q 549 -107 549 -150 q 531 -56 549 -78 q 471 -12 514 -35 q 265 57 351 -3 q 131 219 178 117 q 85 458 85 322 q 138 710 85 603 q 288 874 190 817 q 515 931 385 931 q 747 874 653 931 q 882 706 840 817 l 742 643 q 662 763 715 724 q 524 801 608 801 q 317 710 394 801 q 240 458 240 619 q 314 206 240 296 q 519 115 388 115 q 667 160 606 115 q 754 290 729 204 l 896 243 z "},"Ḉ":{"ha":950,"x_min":85,"x_max":896,"o":"m 554 1024 l 440 1024 l 531 1246 l 675 1246 l 554 1024 m 896 243 q 782 74 860 138 q 594 -8 704 10 q 654 -133 654 -54 q 605 -251 654 -204 q 478 -299 556 -299 q 342 -258 399 -299 l 372 -168 q 415 -190 394 -182 q 463 -199 436 -199 q 525 -174 501 -199 q 549 -107 549 -150 q 531 -56 549 -78 q 471 -12 514 -35 q 265 57 351 -3 q 131 219 178 117 q 85 458 85 322 q 138 710 85 603 q 288 874 190 817 q 515 931 385 931 q 747 874 653 931 q 882 706 840 817 l 742 643 q 662 763 715 724 q 524 801 608 801 q 317 710 394 801 q 240 458 240 619 q 314 206 240 296 q 519 115 388 115 q 667 160 606 115 q 754 290 729 204 l 896 243 z "},"Ĉ":{"ha":950,"x_min":85,"x_max":896,"o":"m 896 243 q 753 53 854 119 q 517 -14 653 -14 q 288 43 385 -14 q 138 207 190 100 q 85 458 85 314 q 138 710 85 603 q 288 874 190 817 q 515 931 385 931 q 747 874 653 931 q 882 706 840 817 l 742 643 q 662 763 715 724 q 524 801 608 801 q 317 710 394 801 q 240 458 240 619 q 314 206 240 296 q 519 115 388 115 q 667 160 606 115 q 754 290 729 204 l 896 243 m 618 1024 l 513 1165 l 407 1024 l 286 1024 l 435 1246 l 590 1246 l 739 1024 l 618 1024 z "},"Ċ":{"ha":950,"x_min":85,"x_max":896,"o":"m 896 243 q 753 53 854 119 q 517 -14 653 -14 q 288 43 385 -14 q 138 207 190 100 q 85 458 85 314 q 138 710 85 603 q 288 874 190 817 q 515 931 385 931 q 747 874 653 931 q 882 706 840 817 l 742 643 q 662 763 715 724 q 524 801 608 801 q 317 710 394 801 q 240 458 240 619 q 314 206 240 296 q 519 115 388 115 q 667 160 606 115 q 754 290 729 204 l 896 243 m 513 1219 q 583 1195 557 1219 q 610 1128 610 1171 q 583 1060 610 1085 q 513 1036 557 1036 q 442 1060 468 1036 q 417 1128 417 1085 q 442 1195 417 1171 q 513 1219 468 1219 z "},"D":{"ha":1000,"x_min":136,"x_max":915,"o":"m 460 917 q 796 797 676 917 q 915 458 915 678 q 796 119 915 239 q 460 0 676 0 l 136 0 l 136 917 l 460 917 m 460 126 q 682 213 604 126 q 760 458 760 300 q 682 703 760 617 q 460 790 604 790 l 285 790 l 285 126 l 460 126 z "},"Ǳ":{"ha":1863,"x_min":136,"x_max":1794,"o":"m 460 917 q 796 797 676 917 q 915 458 915 678 q 796 119 915 239 q 460 0 676 0 l 136 0 l 136 917 l 460 917 m 460 126 q 682 213 604 126 q 760 458 760 300 q 682 703 760 617 q 460 790 604 790 l 285 790 l 285 126 l 460 126 m 1794 126 l 1794 0 l 1054 0 l 1054 121 l 1608 790 l 1067 790 l 1067 917 l 1778 917 l 1778 796 l 1224 126 l 1794 126 z "},"Ǆ":{"ha":1863,"x_min":136,"x_max":1794,"o":"m 460 917 q 796 797 676 917 q 915 458 915 678 q 796 119 915 239 q 460 0 676 0 l 136 0 l 136 917 l 460 917 m 460 126 q 682 213 604 126 q 760 458 760 300 q 682 703 760 617 q 460 790 604 790 l 285 790 l 285 126 l 460 126 m 1794 126 l 1794 0 l 1054 0 l 1054 121 l 1608 790 l 1067 790 l 1067 917 l 1778 917 l 1778 796 l 1224 126 l 1794 126 m 1494 1024 l 1339 1024 l 1190 1246 l 1311 1246 l 1417 1104 l 1522 1246 l 1643 1246 l 1494 1024 z "},"Ð":{"ha":1025,"x_min":31,"x_max":940,"o":"m 485 917 q 821 797 701 917 q 940 458 940 678 q 821 119 940 239 q 485 0 701 0 l 161 0 l 161 400 l 31 400 l 31 524 l 161 524 l 161 917 l 485 917 m 485 126 q 708 213 631 126 q 786 458 786 300 q 708 703 786 617 q 485 790 631 790 l 310 790 l 310 524 l 556 524 l 556 400 l 310 400 l 310 126 l 485 126 z "},"Ď":{"ha":1000,"x_min":136,"x_max":915,"o":"m 460 917 q 796 797 676 917 q 915 458 915 678 q 796 119 915 239 q 460 0 676 0 l 136 0 l 136 917 l 460 917 m 460 126 q 682 213 604 126 q 760 458 760 300 q 682 703 760 617 q 460 790 604 790 l 285 790 l 285 126 l 460 126 m 576 1024 l 421 1024 l 272 1246 l 393 1246 l 499 1104 l 604 1246 l 725 1246 l 576 1024 z "},"Đ":{"ha":1025,"x_min":31,"x_max":940,"o":"m 485 917 q 821 797 701 917 q 940 458 940 678 q 821 119 940 239 q 485 0 701 0 l 161 0 l 161 400 l 31 400 l 31 524 l 161 524 l 161 917 l 485 917 m 485 126 q 708 213 631 126 q 786 458 786 300 q 708 703 786 617 q 485 790 631 790 l 310 790 l 310 524 l 556 524 l 556 400 l 310 400 l 310 126 l 485 126 z "},"Ḍ":{"ha":1000,"x_min":136,"x_max":915,"o":"m 460 917 q 796 797 676 917 q 915 458 915 678 q 796 119 915 239 q 460 0 676 0 l 136 0 l 136 917 l 460 917 m 460 126 q 682 213 604 126 q 760 458 760 300 q 682 703 760 617 q 460 790 604 790 l 285 790 l 285 126 l 460 126 m 476 -303 q 406 -278 432 -303 q 381 -211 381 -254 q 406 -144 381 -168 q 476 -119 432 -119 q 547 -144 521 -119 q 574 -211 574 -168 q 547 -278 574 -254 q 476 -303 521 -303 z "},"Ḏ":{"ha":1000,"x_min":136,"x_max":915,"o":"m 460 917 q 796 797 676 917 q 915 458 915 678 q 796 119 915 239 q 460 0 676 0 l 136 0 l 136 917 l 460 917 m 460 126 q 682 213 604 126 q 760 458 760 300 q 682 703 760 617 q 460 790 604 790 l 285 790 l 285 126 l 460 126 z "},"ǲ":{"ha":1728,"x_min":136,"x_max":1661,"o":"m 460 917 q 796 797 676 917 q 915 458 915 678 q 796 119 915 239 q 460 0 676 0 l 136 0 l 136 917 l 460 917 m 460 126 q 682 213 604 126 q 760 458 760 300 q 682 703 760 617 q 460 790 604 790 l 285 790 l 285 126 l 460 126 m 1064 103 l 1400 494 l 1485 581 l 1364 578 l 1067 578 l 1067 694 l 1649 694 l 1649 592 l 1313 200 l 1229 114 l 1361 117 l 1661 117 l 1661 0 l 1064 0 l 1064 103 z "},"ǅ":{"ha":1728,"x_min":136,"x_max":1661,"o":"m 460 917 q 796 797 676 917 q 915 458 915 678 q 796 119 915 239 q 460 0 676 0 l 136 0 l 136 917 l 460 917 m 460 126 q 682 213 604 126 q 760 458 760 300 q 682 703 760 617 q 460 790 604 790 l 285 790 l 285 126 l 460 126 z "},"E":{"ha":883,"x_min":136,"x_max":819,"o":"m 136 917 l 800 917 l 800 789 l 285 789 l 285 525 l 688 525 l 688 400 l 285 400 l 285 128 l 819 128 l 819 0 l 136 0 l 136 917 z "},"É":{"ha":883,"x_min":136,"x_max":819,"o":"m 136 917 l 800 917 l 800 789 l 285 789 l 285 525 l 688 525 l 688 400 l 285 400 l 285 128 l 819 128 l 819 0 l 136 0 l 136 917 m 628 1246 l 507 1024 l 393 1024 l 483 1246 l 628 1246 z "},"Ĕ":{"ha":883,"x_min":136,"x_max":819,"o":"m 136 917 l 800 917 l 800 789 l 285 789 l 285 525 l 688 525 l 688 400 l 285 400 l 285 128 l 819 128 l 819 0 l 136 0 l 136 917 z "},"Ě":{"ha":883,"x_min":136,"x_max":819,"o":"m 136 917 l 800 917 l 800 789 l 285 789 l 285 525 l 688 525 l 688 400 l 285 400 l 285 128 l 819 128 l 819 0 l 136 0 l 136 917 m 546 1024 l 390 1024 l 242 1246 l 363 1246 l 468 1104 l 574 1246 l 694 1246 l 546 1024 z "},"Ḝ":{"ha":883,"x_min":136,"x_max":819,"o":"m 468 1014 q 313 1072 371 1014 q 254 1226 254 1131 l 363 1226 q 391 1144 364 1176 q 468 1113 418 1113 q 545 1144 518 1113 q 574 1226 572 1176 l 682 1226 q 624 1072 682 1131 q 468 1014 565 1014 m 819 0 l 557 0 q 626 -133 626 -49 q 577 -251 626 -204 q 450 -299 528 -299 q 315 -258 369 -299 l 344 -168 q 388 -190 367 -182 q 435 -199 408 -199 q 497 -174 474 -199 q 521 -107 521 -150 q 498 -49 521 -74 q 418 0 475 -25 l 136 0 l 136 917 l 800 917 l 800 789 l 285 789 l 285 525 l 688 525 l 688 400 l 285 400 l 285 128 l 819 128 l 819 0 z "},"Ê":{"ha":883,"x_min":136,"x_max":819,"o":"m 136 917 l 800 917 l 800 789 l 285 789 l 285 525 l 688 525 l 688 400 l 285 400 l 285 128 l 819 128 l 819 0 l 136 0 l 136 917 m 574 1024 l 468 1165 l 363 1024 l 242 1024 l 390 1246 l 546 1246 l 694 1024 l 574 1024 z "},"Ế":{"ha":883,"x_min":136,"x_max":860,"o":"m 860 1372 l 751 1172 l 649 1172 l 729 1372 l 860 1372 m 578 1014 l 468 1161 l 358 1014 l 238 1014 l 392 1244 l 544 1244 l 699 1014 l 578 1014 m 136 917 l 800 917 l 800 789 l 285 789 l 285 525 l 688 525 l 688 400 l 285 400 l 285 128 l 819 128 l 819 0 l 136 0 l 136 917 z "},"Ệ":{"ha":883,"x_min":136,"x_max":819,"o":"m 136 917 l 800 917 l 800 789 l 285 789 l 285 525 l 688 525 l 688 400 l 285 400 l 285 128 l 819 128 l 819 0 l 136 0 l 136 917 m 483 -303 q 413 -278 439 -303 q 388 -211 388 -254 q 413 -144 388 -168 q 483 -119 439 -119 q 554 -144 528 -119 q 581 -211 581 -168 q 554 -278 581 -254 q 483 -303 528 -303 m 574 1024 l 468 1165 l 363 1024 l 242 1024 l 390 1246 l 546 1246 l 694 1024 l 574 1024 z "},"Ề":{"ha":883,"x_min":136,"x_max":819,"o":"m 778 1172 l 675 1172 l 567 1372 l 697 1372 l 778 1172 m 578 1014 l 468 1161 l 358 1014 l 238 1014 l 392 1244 l 544 1244 l 699 1014 l 578 1014 m 136 917 l 800 917 l 800 789 l 285 789 l 285 525 l 688 525 l 688 400 l 285 400 l 285 128 l 819 128 l 819 0 l 136 0 l 136 917 z "},"Ể":{"ha":883,"x_min":136,"x_max":833,"o":"m 657 1197 q 713 1235 696 1217 q 729 1281 729 1254 q 715 1315 729 1301 q 676 1329 701 1329 q 617 1289 638 1329 l 538 1336 q 597 1403 557 1379 q 694 1426 638 1426 q 794 1391 756 1426 q 833 1300 833 1356 q 797 1206 833 1246 q 700 1146 761 1165 l 657 1197 m 578 1014 l 468 1161 l 358 1014 l 238 1014 l 392 1244 l 544 1244 l 699 1014 l 578 1014 m 136 917 l 800 917 l 800 789 l 285 789 l 285 525 l 688 525 l 688 400 l 285 400 l 285 128 l 819 128 l 819 0 l 136 0 l 136 917 z "},"Ễ":{"ha":883,"x_min":136,"x_max":819,"o":"m 714 1464 q 668 1327 708 1372 q 560 1282 628 1282 q 495 1295 521 1282 q 442 1332 469 1308 q 408 1356 421 1349 q 378 1364 394 1364 q 340 1345 353 1364 q 319 1285 326 1326 l 221 1285 q 267 1422 226 1376 q 378 1467 308 1467 q 441 1453 415 1467 q 494 1417 467 1440 q 528 1392 517 1399 q 556 1385 540 1385 q 594 1403 581 1385 q 615 1464 608 1422 l 714 1464 m 578 1014 l 468 1161 l 358 1014 l 238 1014 l 392 1244 l 544 1244 l 699 1014 l 578 1014 m 136 917 l 800 917 l 800 789 l 285 789 l 285 525 l 688 525 l 688 400 l 285 400 l 285 128 l 819 128 l 819 0 l 136 0 l 136 917 z "},"Ȅ":{"ha":883,"x_min":136,"x_max":819,"o":"m 136 917 l 800 917 l 800 789 l 285 789 l 285 525 l 688 525 l 688 400 l 285 400 l 285 128 l 819 128 l 819 0 l 136 0 l 136 917 m 394 1024 l 281 1024 l 160 1246 l 304 1246 l 394 1024 m 660 1024 l 546 1024 l 425 1246 l 569 1246 l 660 1024 z "},"Ë":{"ha":883,"x_min":136,"x_max":819,"o":"m 136 917 l 800 917 l 800 789 l 285 789 l 285 525 l 688 525 l 688 400 l 285 400 l 285 128 l 819 128 l 819 0 l 136 0 l 136 917 m 328 1194 q 394 1171 369 1194 q 418 1107 418 1147 q 394 1043 418 1067 q 328 1019 369 1019 q 262 1043 286 1019 q 238 1107 238 1067 q 262 1171 238 1147 q 328 1194 286 1194 m 608 1194 q 674 1171 650 1194 q 699 1107 699 1147 q 674 1043 699 1067 q 608 1019 650 1019 q 542 1043 567 1019 q 518 1107 518 1067 q 542 1171 518 1147 q 608 1194 567 1194 z "},"Ė":{"ha":883,"x_min":136,"x_max":819,"o":"m 136 917 l 800 917 l 800 789 l 285 789 l 285 525 l 688 525 l 688 400 l 285 400 l 285 128 l 819 128 l 819 0 l 136 0 l 136 917 m 468 1219 q 539 1195 513 1219 q 565 1128 565 1171 q 539 1060 565 1085 q 468 1036 513 1036 q 398 1060 424 1036 q 372 1128 372 1085 q 398 1195 372 1171 q 468 1219 424 1219 z "},"Ẹ":{"ha":883,"x_min":136,"x_max":819,"o":"m 136 917 l 800 917 l 800 789 l 285 789 l 285 525 l 688 525 l 688 400 l 285 400 l 285 128 l 819 128 l 819 0 l 136 0 l 136 917 m 483 -303 q 413 -278 439 -303 q 388 -211 388 -254 q 413 -144 388 -168 q 483 -119 439 -119 q 554 -144 528 -119 q 581 -211 581 -168 q 554 -278 581 -254 q 483 -303 528 -303 z "},"È":{"ha":883,"x_min":136,"x_max":819,"o":"m 136 917 l 800 917 l 800 789 l 285 789 l 285 525 l 688 525 l 688 400 l 285 400 l 285 128 l 819 128 l 819 0 l 136 0 l 136 917 m 540 1024 l 426 1024 l 306 1246 l 450 1246 l 540 1024 z "},"Ẻ":{"ha":883,"x_min":136,"x_max":819,"o":"m 136 917 l 800 917 l 800 789 l 285 789 l 285 525 l 688 525 l 688 400 l 285 400 l 285 128 l 819 128 l 819 0 l 136 0 l 136 917 m 426 1039 q 481 1076 464 1057 q 499 1122 499 1094 q 484 1157 499 1143 q 446 1171 469 1171 q 386 1129 407 1171 l 307 1176 q 367 1244 328 1219 q 464 1268 407 1268 q 564 1233 525 1268 q 603 1142 603 1197 q 567 1047 603 1088 q 469 988 531 1007 l 426 1039 z "},"Ȇ":{"ha":883,"x_min":136,"x_max":819,"o":"m 136 917 l 800 917 l 800 789 l 285 789 l 285 525 l 688 525 l 688 400 l 285 400 l 285 128 l 819 128 l 819 0 l 136 0 l 136 917 m 574 1014 q 545 1096 572 1064 q 468 1128 518 1128 q 391 1096 418 1128 q 363 1014 364 1064 l 254 1014 q 313 1168 254 1110 q 468 1226 371 1226 q 624 1168 565 1226 q 682 1014 682 1110 l 574 1014 z "},"Ē":{"ha":883,"x_min":136,"x_max":819,"o":"m 136 917 l 800 917 l 800 789 l 285 789 l 285 525 l 688 525 l 688 400 l 285 400 l 285 128 l 819 128 l 819 0 l 136 0 l 136 917 m 703 1039 l 233 1039 l 233 1147 l 703 1147 l 703 1039 z "},"Ḗ":{"ha":883,"x_min":136,"x_max":819,"o":"m 136 917 l 800 917 l 800 789 l 285 789 l 285 525 l 688 525 l 688 400 l 285 400 l 285 128 l 819 128 l 819 0 l 136 0 l 136 917 m 703 1039 l 233 1039 l 233 1147 l 703 1147 l 703 1039 m 631 1474 l 510 1251 l 396 1251 l 486 1474 l 631 1474 z "},"Ḕ":{"ha":883,"x_min":136,"x_max":819,"o":"m 136 917 l 800 917 l 800 789 l 285 789 l 285 525 l 688 525 l 688 400 l 285 400 l 285 128 l 819 128 l 819 0 l 136 0 l 136 917 m 703 1039 l 233 1039 l 233 1147 l 703 1147 l 703 1039 m 540 1251 l 426 1251 l 306 1474 l 450 1474 l 540 1251 z "},"Ę":{"ha":883,"x_min":136,"x_max":822,"o":"m 822 -290 q 700 -317 779 -317 q 574 -278 622 -317 q 526 -175 526 -239 q 561 -74 526 -117 q 664 0 596 -32 l 136 0 l 136 917 l 800 917 l 800 789 l 285 789 l 285 525 l 688 525 l 688 400 l 285 400 l 285 128 l 819 128 l 819 1 l 821 0 q 681 -74 724 -36 q 639 -151 639 -111 q 663 -203 639 -185 q 725 -222 686 -222 q 797 -206 772 -222 l 822 -290 z "},"Ẽ":{"ha":883,"x_min":136,"x_max":819,"o":"m 136 917 l 800 917 l 800 789 l 285 789 l 285 525 l 688 525 l 688 400 l 285 400 l 285 128 l 819 128 l 819 0 l 136 0 l 136 917 m 725 1218 q 678 1072 719 1122 q 565 1022 636 1022 q 497 1037 525 1022 q 440 1078 469 1051 q 402 1105 415 1097 q 374 1113 389 1113 q 331 1090 346 1113 q 310 1021 317 1067 l 208 1021 q 372 1218 221 1218 q 438 1203 411 1218 q 496 1163 465 1189 q 531 1136 518 1144 q 560 1128 544 1128 q 602 1150 588 1128 q 625 1218 617 1172 l 725 1218 z "},"F":{"ha":849,"x_min":136,"x_max":799,"o":"m 285 789 l 285 524 l 688 524 l 688 394 l 285 394 l 285 0 l 136 0 l 136 917 l 799 917 l 799 789 l 285 789 z "},"G":{"ha":1006,"x_min":85,"x_max":904,"o":"m 904 472 l 904 0 l 793 0 l 788 121 q 677 20 747 54 q 508 -14 607 -14 q 285 43 381 -14 q 137 206 189 100 q 85 458 85 313 q 140 709 85 603 q 294 873 194 815 q 526 931 394 931 q 756 878 668 931 q 899 714 844 825 l 761 649 q 675 763 735 724 q 528 801 615 801 q 319 710 397 801 q 240 458 240 619 q 314 203 240 292 q 528 114 388 114 q 704 168 636 114 q 772 325 772 222 l 772 351 l 506 351 l 506 472 l 904 472 z "},"Ğ":{"ha":1006,"x_min":85,"x_max":904,"o":"m 904 472 l 904 0 l 793 0 l 788 121 q 677 20 747 54 q 508 -14 607 -14 q 285 43 381 -14 q 137 206 189 100 q 85 458 85 313 q 140 709 85 603 q 294 873 194 815 q 526 931 394 931 q 756 878 668 931 q 899 714 844 825 l 761 649 q 675 763 735 724 q 528 801 615 801 q 319 710 397 801 q 240 458 240 619 q 314 203 240 292 q 528 114 388 114 q 704 168 636 114 q 772 325 772 222 l 772 351 l 506 351 l 506 472 l 904 472 z "},"Ǧ":{"ha":1006,"x_min":85,"x_max":904,"o":"m 904 472 l 904 0 l 793 0 l 788 121 q 677 20 747 54 q 508 -14 607 -14 q 285 43 381 -14 q 137 206 189 100 q 85 458 85 313 q 140 709 85 603 q 294 873 194 815 q 526 931 394 931 q 756 878 668 931 q 899 714 844 825 l 761 649 q 675 763 735 724 q 528 801 615 801 q 319 710 397 801 q 240 458 240 619 q 314 203 240 292 q 528 114 388 114 q 704 168 636 114 q 772 325 772 222 l 772 351 l 506 351 l 506 472 l 904 472 m 593 1024 l 438 1024 l 289 1246 l 410 1246 l 515 1104 l 621 1246 l 742 1246 l 593 1024 z "},"Ĝ":{"ha":1006,"x_min":85,"x_max":904,"o":"m 904 472 l 904 0 l 793 0 l 788 121 q 677 20 747 54 q 508 -14 607 -14 q 285 43 381 -14 q 137 206 189 100 q 85 458 85 313 q 140 709 85 603 q 294 873 194 815 q 526 931 394 931 q 756 878 668 931 q 899 714 844 825 l 761 649 q 675 763 735 724 q 528 801 615 801 q 319 710 397 801 q 240 458 240 619 q 314 203 240 292 q 528 114 388 114 q 704 168 636 114 q 772 325 772 222 l 772 351 l 506 351 l 506 472 l 904 472 m 621 1024 l 515 1165 l 410 1024 l 289 1024 l 438 1246 l 593 1246 l 742 1024 l 621 1024 z "},"Ģ":{"ha":1006,"x_min":85,"x_max":904,"o":"m 904 472 l 904 0 l 793 0 l 788 121 q 677 20 747 54 q 508 -14 607 -14 q 285 43 381 -14 q 137 206 189 100 q 85 458 85 313 q 140 709 85 603 q 294 873 194 815 q 526 931 394 931 q 756 878 668 931 q 899 714 844 825 l 761 649 q 675 763 735 724 q 528 801 615 801 q 319 710 397 801 q 240 458 240 619 q 314 203 240 292 q 528 114 388 114 q 704 168 636 114 q 772 325 772 222 l 772 351 l 506 351 l 506 472 l 904 472 m 535 -331 l 428 -331 l 483 -99 l 628 -99 l 535 -331 z "},"Ġ":{"ha":1006,"x_min":85,"x_max":904,"o":"m 904 472 l 904 0 l 793 0 l 788 121 q 677 20 747 54 q 508 -14 607 -14 q 285 43 381 -14 q 137 206 189 100 q 85 458 85 313 q 140 709 85 603 q 294 873 194 815 q 526 931 394 931 q 756 878 668 931 q 899 714 844 825 l 761 649 q 675 763 735 724 q 528 801 615 801 q 319 710 397 801 q 240 458 240 619 q 314 203 240 292 q 528 114 388 114 q 704 168 636 114 q 772 325 772 222 l 772 351 l 506 351 l 506 472 l 904 472 m 515 1219 q 586 1195 560 1219 q 613 1128 613 1171 q 586 1060 613 1085 q 515 1036 560 1036 q 445 1060 471 1036 q 419 1128 419 1085 q 445 1195 419 1171 q 515 1219 471 1219 z "},"Ḡ":{"ha":1006,"x_min":85,"x_max":904,"o":"m 904 472 l 904 0 l 793 0 l 788 121 q 677 20 747 54 q 508 -14 607 -14 q 285 43 381 -14 q 137 206 189 100 q 85 458 85 313 q 140 709 85 603 q 294 873 194 815 q 526 931 394 931 q 756 878 668 931 q 899 714 844 825 l 761 649 q 675 763 735 724 q 528 801 615 801 q 319 710 397 801 q 240 458 240 619 q 314 203 240 292 q 528 114 388 114 q 704 168 636 114 q 772 325 772 222 l 772 351 l 506 351 l 506 472 l 904 472 m 750 1039 l 281 1039 l 281 1147 l 750 1147 l 750 1039 z "},"H":{"ha":1022,"x_min":136,"x_max":888,"o":"m 888 917 l 888 0 l 738 0 l 738 400 l 285 400 l 285 0 l 136 0 l 136 917 l 285 917 l 285 528 l 738 528 l 738 917 l 888 917 z "},"Ħ":{"ha":1022,"x_min":31,"x_max":993,"o":"m 993 665 l 888 665 l 888 0 l 738 0 l 738 400 l 285 400 l 285 0 l 136 0 l 136 665 l 31 665 l 31 774 l 136 774 l 136 917 l 285 917 l 285 774 l 738 774 l 738 917 l 888 917 l 888 774 l 993 774 l 993 665 m 738 665 l 285 665 l 285 528 l 738 528 l 738 665 z "},"Ḫ":{"ha":1022,"x_min":136,"x_max":888,"o":"m 888 917 l 888 0 l 738 0 l 738 400 l 285 400 l 285 0 l 136 0 l 136 917 l 285 917 l 285 528 l 738 528 l 738 917 l 888 917 z "},"Ĥ":{"ha":1022,"x_min":136,"x_max":888,"o":"m 888 917 l 888 0 l 738 0 l 738 400 l 285 400 l 285 0 l 136 0 l 136 917 l 285 917 l 285 528 l 738 528 l 738 917 l 888 917 m 617 1024 l 511 1165 l 406 1024 l 285 1024 l 433 1246 l 589 1246 l 738 1024 l 617 1024 z "},"Ḥ":{"ha":1022,"x_min":136,"x_max":888,"o":"m 888 917 l 888 0 l 738 0 l 738 400 l 285 400 l 285 0 l 136 0 l 136 917 l 285 917 l 285 528 l 738 528 l 738 917 l 888 917 m 511 -303 q 441 -278 467 -303 q 415 -211 415 -254 q 441 -144 415 -168 q 511 -119 467 -119 q 582 -144 556 -119 q 608 -211 608 -168 q 582 -278 608 -254 q 511 -303 556 -303 z "},"I":{"ha":421,"x_min":136,"x_max":285,"o":"m 285 0 l 136 0 l 136 917 l 285 917 l 285 0 z "},"Ĳ":{"ha":1228,"x_min":136,"x_max":1106,"o":"m 285 0 l 136 0 l 136 917 l 285 917 l 285 0 m 1106 325 q 1017 76 1106 165 q 772 -14 929 -14 q 551 55 628 -14 q 474 246 474 124 q 481 321 474 276 l 624 347 q 618 275 618 313 q 655 154 618 193 q 772 115 692 115 q 915 173 874 115 q 956 353 956 231 l 956 917 l 1106 917 l 1106 325 z "},"Í":{"ha":421,"x_min":136,"x_max":383,"o":"m 285 0 l 136 0 l 136 917 l 285 917 l 285 0 m 383 1246 l 263 1024 l 149 1024 l 239 1246 l 383 1246 z "},"Ĭ":{"ha":421,"x_min":-4,"x_max":424,"o":"m 285 0 l 136 0 l 136 917 l 285 917 l 285 0 z "},"Î":{"ha":421,"x_min":-17,"x_max":436,"o":"m 285 0 l 136 0 l 136 917 l 285 917 l 285 0 m 315 1024 l 210 1165 l 104 1024 l -17 1024 l 132 1246 l 288 1246 l 436 1024 l 315 1024 z "},"Ȉ":{"ha":421,"x_min":-99,"x_max":401,"o":"m 285 0 l 136 0 l 136 917 l 285 917 l 285 0 m 136 1024 l 22 1024 l -99 1246 l 46 1246 l 136 1024 m 401 1024 l 288 1024 l 167 1246 l 311 1246 l 401 1024 z "},"Ï":{"ha":421,"x_min":-6,"x_max":426,"o":"m 83 1194 q 149 1171 125 1194 q 174 1107 174 1147 q 149 1043 174 1067 q 83 1019 125 1019 q 19 1043 43 1019 q -6 1107 -6 1067 q 19 1171 -6 1147 q 83 1194 43 1194 m 336 1194 q 401 1171 376 1194 q 426 1107 426 1147 q 401 1044 426 1068 q 336 1019 376 1019 q 271 1044 296 1019 q 246 1107 246 1068 q 271 1171 246 1147 q 336 1194 296 1194 m 285 0 l 136 0 l 136 917 l 285 917 l 285 0 z "},"Ḯ":{"ha":421,"x_min":-21,"x_max":440,"o":"m 285 0 l 136 0 l 136 917 l 285 917 l 285 0 m 69 1194 q 135 1171 111 1194 q 160 1107 160 1147 q 135 1043 160 1067 q 69 1019 111 1019 q 3 1043 28 1019 q -21 1107 -21 1067 q 3 1171 -21 1147 q 69 1194 28 1194 m 350 1194 q 416 1171 392 1194 q 440 1107 440 1147 q 416 1043 440 1067 q 350 1019 392 1019 q 284 1043 308 1019 q 260 1107 260 1067 q 284 1171 260 1147 q 350 1194 308 1194 m 372 1489 l 251 1267 l 138 1267 l 228 1489 l 372 1489 z "},"İ":{"ha":421,"x_min":114,"x_max":307,"o":"m 285 0 l 136 0 l 136 917 l 285 917 l 285 0 m 210 1219 q 281 1195 254 1219 q 307 1128 307 1171 q 281 1060 307 1085 q 210 1036 254 1036 q 140 1060 165 1036 q 114 1128 114 1085 q 140 1195 114 1171 q 210 1219 165 1219 z "},"Ị":{"ha":421,"x_min":114,"x_max":307,"o":"m 285 0 l 136 0 l 136 917 l 285 917 l 285 0 m 210 -303 q 140 -278 165 -303 q 114 -211 114 -254 q 140 -144 114 -168 q 210 -119 165 -119 q 281 -144 254 -119 q 307 -211 307 -168 q 281 -278 307 -254 q 210 -303 254 -303 z "},"Ì":{"ha":421,"x_min":36,"x_max":285,"o":"m 285 0 l 136 0 l 136 917 l 285 917 l 285 0 m 271 1024 l 157 1024 l 36 1246 l 181 1246 l 271 1024 z "},"Ỉ":{"ha":421,"x_min":50,"x_max":346,"o":"m 285 0 l 136 0 l 136 917 l 285 917 l 285 0 m 169 1039 q 224 1076 207 1057 q 242 1122 242 1094 q 227 1157 242 1143 q 189 1171 213 1171 q 129 1129 150 1171 l 50 1176 q 110 1244 71 1219 q 207 1268 150 1268 q 307 1233 268 1268 q 346 1142 346 1197 q 310 1047 346 1088 q 213 988 274 1007 l 169 1039 z "},"Ȋ":{"ha":421,"x_min":-4,"x_max":424,"o":"m 285 0 l 136 0 l 136 917 l 285 917 l 285 0 m 315 1014 q 287 1096 314 1064 q 210 1128 260 1128 q 133 1096 160 1128 q 104 1014 106 1064 l -4 1014 q 54 1168 -4 1110 q 210 1226 113 1226 q 365 1168 307 1226 q 424 1014 424 1110 l 315 1014 z "},"Ī":{"ha":421,"x_min":46,"x_max":374,"o":"m 374 1039 l 46 1039 l 46 1147 l 374 1147 l 374 1039 m 285 0 l 136 0 l 136 917 l 285 917 l 285 0 z "},"Į":{"ha":421,"x_min":22,"x_max":306,"o":"m 306 -293 q 190 -319 260 -319 q 69 -281 117 -319 q 22 -174 22 -243 q 51 -74 22 -115 q 138 0 81 -33 l 136 0 l 136 917 l 285 917 l 285 0 q 172 -78 206 -42 q 138 -154 138 -115 q 157 -206 138 -187 q 214 -224 176 -224 q 281 -210 257 -224 l 306 -293 z "},"Ĩ":{"ha":421,"x_min":-50,"x_max":467,"o":"m 285 0 l 136 0 l 136 917 l 285 917 l 285 0 m 467 1218 q 419 1072 461 1122 q 307 1022 378 1022 q 239 1037 267 1022 q 182 1078 211 1051 q 144 1105 157 1097 q 115 1113 131 1113 q 73 1090 88 1113 q 51 1021 58 1067 l -50 1021 q 114 1218 -37 1218 q 180 1203 153 1218 q 238 1163 207 1189 q 273 1136 260 1144 q 301 1128 286 1128 q 344 1150 329 1128 q 367 1218 358 1172 l 467 1218 z "},"J":{"ha":808,"x_min":53,"x_max":685,"o":"m 685 325 q 597 76 685 165 q 351 -14 508 -14 q 130 55 207 -14 q 53 246 53 124 q 60 321 53 276 l 203 347 q 197 275 197 313 q 234 154 197 193 q 351 115 271 115 q 494 173 453 115 q 535 353 535 231 l 535 917 l 685 917 l 685 325 z "},"Ĵ":{"ha":808,"x_min":53,"x_max":836,"o":"m 685 325 q 597 76 685 165 q 351 -14 508 -14 q 130 55 207 -14 q 53 246 53 124 q 60 321 53 276 l 203 347 q 197 275 197 313 q 234 154 197 193 q 351 115 271 115 q 494 173 453 115 q 535 353 535 231 l 535 917 l 685 917 l 685 325 m 715 1024 l 610 1165 l 504 1024 l 383 1024 l 532 1246 l 688 1246 l 836 1024 l 715 1024 z "},"K":{"ha":926,"x_min":136,"x_max":896,"o":"m 433 442 l 285 282 l 285 0 l 136 0 l 136 917 l 285 917 l 285 460 l 706 917 l 888 917 l 540 542 l 896 0 l 721 0 l 433 442 z "},"Ķ":{"ha":926,"x_min":136,"x_max":896,"o":"m 433 442 l 285 282 l 285 0 l 136 0 l 136 917 l 285 917 l 285 460 l 706 917 l 888 917 l 540 542 l 896 0 l 721 0 l 433 442 m 493 -331 l 386 -331 l 442 -99 l 586 -99 l 493 -331 z "},"L":{"ha":832,"x_min":136,"x_max":790,"o":"m 790 128 l 790 0 l 136 0 l 136 917 l 285 917 l 285 128 l 790 128 z "},"Ǉ":{"ha":1640,"x_min":136,"x_max":1517,"o":"m 790 128 l 790 0 l 136 0 l 136 917 l 285 917 l 285 128 l 790 128 m 1517 325 q 1428 76 1517 165 q 1183 -14 1340 -14 q 962 55 1039 -14 q 885 246 885 124 q 892 321 885 276 l 1035 347 q 1029 275 1029 313 q 1066 154 1029 193 q 1183 115 1103 115 q 1326 173 1285 115 q 1367 353 1367 231 l 1367 917 l 1517 917 l 1517 325 z "},"Ĺ":{"ha":832,"x_min":136,"x_max":790,"o":"m 790 128 l 790 0 l 136 0 l 136 917 l 285 917 l 285 128 l 790 128 m 372 1246 l 251 1024 l 138 1024 l 228 1246 l 372 1246 z "},"Ľ":{"ha":832,"x_min":136,"x_max":790,"o":"m 790 128 l 790 0 l 136 0 l 136 917 l 285 917 l 285 128 l 790 128 m 551 625 l 453 625 l 483 917 l 615 917 l 551 625 z "},"Ļ":{"ha":832,"x_min":136,"x_max":790,"o":"m 790 128 l 790 0 l 136 0 l 136 917 l 285 917 l 285 128 l 790 128 m 471 -331 l 364 -331 l 419 -99 l 564 -99 l 471 -331 z "},"Ŀ":{"ha":869,"x_min":136,"x_max":790,"o":"m 790 128 l 790 0 l 136 0 l 136 917 l 285 917 l 285 128 l 790 128 m 654 601 q 730 574 701 601 q 758 501 758 547 q 730 428 758 456 q 654 400 701 400 q 578 428 607 400 q 549 501 549 456 q 577 574 549 547 q 654 601 606 601 z "},"Ḷ":{"ha":832,"x_min":136,"x_max":790,"o":"m 790 128 l 790 0 l 136 0 l 136 917 l 285 917 l 285 128 l 790 128 m 492 -303 q 422 -278 447 -303 q 396 -211 396 -254 q 422 -144 396 -168 q 492 -119 447 -119 q 563 -144 536 -119 q 589 -211 589 -168 q 563 -278 589 -254 q 492 -303 536 -303 z "},"ǈ":{"ha":1213,"x_min":136,"x_max":1121,"o":"m 790 128 l 790 0 l 136 0 l 136 917 l 285 917 l 285 128 l 790 128 m 1022 811 q 949 835 975 811 q 922 904 922 860 q 949 972 922 949 q 1022 996 975 996 q 1095 972 1069 996 q 1121 904 1121 949 q 1095 835 1121 860 q 1022 811 1069 811 m 1096 -61 q 1031 -242 1096 -185 q 868 -299 967 -299 q 715 -253 778 -299 l 742 -133 q 849 -172 789 -172 q 947 -47 947 -172 l 947 694 l 1096 694 l 1096 -61 z "},"Ḻ":{"ha":832,"x_min":136,"x_max":790,"o":"m 790 128 l 790 0 l 136 0 l 136 917 l 285 917 l 285 128 l 790 128 z "},"Ł":{"ha":889,"x_min":44,"x_max":847,"o":"m 847 128 l 847 0 l 192 0 l 192 338 l 44 260 l 44 393 l 192 471 l 192 917 l 342 917 l 342 550 l 585 679 l 585 546 l 342 417 l 342 128 l 847 128 z "},"M":{"ha":1210,"x_min":136,"x_max":1074,"o":"m 1074 0 l 938 0 l 938 531 l 947 783 l 946 783 l 667 0 l 543 0 l 264 783 l 263 783 l 274 531 l 274 0 l 136 0 l 136 917 l 357 917 l 542 386 l 606 168 l 608 168 l 674 386 l 857 917 l 1074 917 l 1074 0 z "},"Ṃ":{"ha":1210,"x_min":136,"x_max":1074,"o":"m 1074 0 l 938 0 l 938 531 l 947 783 l 946 783 l 667 0 l 543 0 l 264 783 l 263 783 l 274 531 l 274 0 l 136 0 l 136 917 l 357 917 l 542 386 l 606 168 l 608 168 l 674 386 l 857 917 l 1074 917 l 1074 0 m 604 -303 q 534 -278 560 -303 q 508 -211 508 -254 q 534 -144 508 -168 q 604 -119 560 -119 q 675 -144 649 -119 q 701 -211 701 -168 q 675 -278 701 -254 q 604 -303 649 -303 z "},"N":{"ha":1022,"x_min":136,"x_max":888,"o":"m 888 0 l 711 0 l 357 578 l 268 740 l 267 740 l 272 592 l 272 0 l 136 0 l 136 917 l 311 917 l 664 340 l 754 175 l 756 175 l 750 325 l 750 917 l 888 917 l 888 0 z "},"Ǌ":{"ha":1831,"x_min":136,"x_max":1707,"o":"m 888 0 l 711 0 l 357 578 l 268 740 l 267 740 l 272 592 l 272 0 l 136 0 l 136 917 l 311 917 l 664 340 l 754 175 l 756 175 l 750 325 l 750 917 l 888 917 l 888 0 m 1707 325 q 1619 76 1707 165 q 1374 -14 1531 -14 q 1152 55 1229 -14 q 1075 246 1075 124 q 1082 321 1075 276 l 1225 347 q 1219 275 1219 313 q 1256 154 1219 193 q 1374 115 1293 115 q 1516 173 1475 115 q 1557 353 1557 231 l 1557 917 l 1707 917 l 1707 325 z "},"Ń":{"ha":1022,"x_min":136,"x_max":888,"o":"m 888 0 l 711 0 l 357 578 l 268 740 l 267 740 l 272 592 l 272 0 l 136 0 l 136 917 l 311 917 l 664 340 l 754 175 l 756 175 l 750 325 l 750 917 l 888 917 l 888 0 m 678 1246 l 557 1024 l 443 1024 l 533 1246 l 678 1246 z "},"Ň":{"ha":1022,"x_min":136,"x_max":888,"o":"m 888 0 l 711 0 l 357 578 l 268 740 l 267 740 l 272 592 l 272 0 l 136 0 l 136 917 l 311 917 l 664 340 l 754 175 l 756 175 l 750 325 l 750 917 l 888 917 l 888 0 m 593 1024 l 438 1024 l 289 1246 l 410 1246 l 515 1104 l 621 1246 l 742 1246 l 593 1024 z "},"Ņ":{"ha":1022,"x_min":136,"x_max":888,"o":"m 888 0 l 711 0 l 357 578 l 268 740 l 267 740 l 272 592 l 272 0 l 136 0 l 136 917 l 311 917 l 664 340 l 754 175 l 756 175 l 750 325 l 750 917 l 888 917 l 888 0 m 525 -331 l 418 -331 l 474 -99 l 618 -99 l 525 -331 z "},"Ṅ":{"ha":1022,"x_min":136,"x_max":888,"o":"m 888 0 l 711 0 l 357 578 l 268 740 l 267 740 l 272 592 l 272 0 l 136 0 l 136 917 l 311 917 l 664 340 l 754 175 l 756 175 l 750 325 l 750 917 l 888 917 l 888 0 m 515 1219 q 586 1195 560 1219 q 613 1128 613 1171 q 586 1060 613 1085 q 515 1036 560 1036 q 445 1060 471 1036 q 419 1128 419 1085 q 445 1195 419 1171 q 515 1219 471 1219 z "},"Ṇ":{"ha":1022,"x_min":136,"x_max":888,"o":"m 888 0 l 711 0 l 357 578 l 268 740 l 267 740 l 272 592 l 272 0 l 136 0 l 136 917 l 311 917 l 664 340 l 754 175 l 756 175 l 750 325 l 750 917 l 888 917 l 888 0 m 546 -303 q 476 -278 501 -303 q 450 -211 450 -254 q 476 -144 450 -168 q 546 -119 501 -119 q 617 -144 590 -119 q 643 -211 643 -168 q 617 -278 643 -254 q 546 -303 590 -303 z "},"Ŋ":{"ha":1022,"x_min":136,"x_max":888,"o":"m 664 -299 q 515 -256 578 -299 l 542 -132 q 650 -171 589 -171 q 750 -47 750 -171 l 750 6 l 358 582 l 268 747 l 267 747 l 272 592 l 272 0 l 136 0 l 136 917 l 311 917 l 689 357 l 750 243 l 751 243 l 750 917 l 888 917 l 888 -61 q 823 -242 888 -185 q 664 -299 758 -299 z "},"ǋ":{"ha":1403,"x_min":136,"x_max":1311,"o":"m 888 0 l 711 0 l 357 578 l 268 740 l 267 740 l 272 592 l 272 0 l 136 0 l 136 917 l 311 917 l 664 340 l 754 175 l 756 175 l 750 325 l 750 917 l 888 917 l 888 0 m 1213 811 q 1139 835 1165 811 q 1113 904 1113 860 q 1139 972 1113 949 q 1213 996 1165 996 q 1285 972 1260 996 q 1311 904 1311 949 q 1285 835 1311 860 q 1213 811 1260 811 m 1286 -61 q 1222 -242 1286 -185 q 1058 -299 1157 -299 q 906 -253 968 -299 l 932 -133 q 1039 -172 979 -172 q 1138 -47 1138 -172 l 1138 694 l 1286 694 l 1286 -61 z "},"Ṉ":{"ha":1022,"x_min":136,"x_max":888,"o":"m 888 0 l 711 0 l 357 578 l 268 740 l 267 740 l 272 592 l 272 0 l 136 0 l 136 917 l 311 917 l 664 340 l 754 175 l 756 175 l 750 325 l 750 917 l 888 917 l 888 0 z "},"Ñ":{"ha":1022,"x_min":136,"x_max":888,"o":"m 888 0 l 711 0 l 357 578 l 268 740 l 267 740 l 272 592 l 272 0 l 136 0 l 136 917 l 311 917 l 664 340 l 754 175 l 756 175 l 750 325 l 750 917 l 888 917 l 888 0 m 772 1218 q 725 1072 767 1122 q 613 1022 683 1022 q 544 1037 572 1022 q 488 1078 517 1051 q 449 1105 463 1097 q 421 1113 436 1113 q 378 1090 393 1113 q 357 1021 364 1067 l 256 1021 q 419 1218 268 1218 q 485 1203 458 1218 q 543 1163 513 1189 q 578 1136 565 1144 q 607 1128 592 1128 q 649 1150 635 1128 q 672 1218 664 1172 l 772 1218 z "},"O":{"ha":1035,"x_min":85,"x_max":950,"o":"m 517 931 q 747 874 649 931 q 897 710 844 817 q 950 458 950 603 q 897 207 950 314 q 747 43 844 100 q 517 -14 649 -14 q 288 43 385 -14 q 138 207 190 100 q 85 458 85 314 q 138 710 85 603 q 288 874 190 817 q 517 931 385 931 m 517 801 q 314 711 388 801 q 240 458 240 621 q 314 206 240 296 q 517 115 388 115 q 721 206 647 115 q 794 458 794 296 q 721 711 794 621 q 517 801 647 801 z "},"Ó":{"ha":1035,"x_min":85,"x_max":950,"o":"m 517 931 q 747 874 649 931 q 897 710 844 817 q 950 458 950 603 q 897 207 950 314 q 747 43 844 100 q 517 -14 649 -14 q 288 43 385 -14 q 138 207 190 100 q 85 458 85 314 q 138 710 85 603 q 288 874 190 817 q 517 931 385 931 m 517 801 q 314 711 388 801 q 240 458 240 621 q 314 206 240 296 q 517 115 388 115 q 721 206 647 115 q 794 458 794 296 q 721 711 794 621 q 517 801 647 801 m 679 1246 l 558 1024 l 444 1024 l 535 1246 l 679 1246 z "},"Ŏ":{"ha":1035,"x_min":85,"x_max":950,"o":"m 517 931 q 747 874 649 931 q 897 710 844 817 q 950 458 950 603 q 897 207 950 314 q 747 43 844 100 q 517 -14 649 -14 q 288 43 385 -14 q 138 207 190 100 q 85 458 85 314 q 138 710 85 603 q 288 874 190 817 q 517 931 385 931 m 517 801 q 314 711 388 801 q 240 458 240 621 q 314 206 240 296 q 517 115 388 115 q 721 206 647 115 q 794 458 794 296 q 721 711 794 621 q 517 801 647 801 z "},"Ô":{"ha":1035,"x_min":85,"x_max":950,"o":"m 517 931 q 747 874 649 931 q 897 710 844 817 q 950 458 950 603 q 897 207 950 314 q 747 43 844 100 q 517 -14 649 -14 q 288 43 385 -14 q 138 207 190 100 q 85 458 85 314 q 138 710 85 603 q 288 874 190 817 q 517 931 385 931 m 517 801 q 314 711 388 801 q 240 458 240 621 q 314 206 240 296 q 517 115 388 115 q 721 206 647 115 q 794 458 794 296 q 721 711 794 621 q 517 801 647 801 m 622 1024 l 517 1165 l 411 1024 l 290 1024 l 439 1246 l 594 1246 l 743 1024 l 622 1024 z "},"Ố":{"ha":1035,"x_min":85,"x_max":950,"o":"m 908 1372 l 800 1172 l 697 1172 l 778 1372 l 908 1372 m 628 1014 l 517 1161 l 407 1014 l 288 1014 l 440 1244 l 594 1244 l 747 1014 l 628 1014 m 517 931 q 747 874 649 931 q 897 710 844 817 q 950 458 950 603 q 897 207 950 314 q 747 43 844 100 q 517 -14 649 -14 q 288 43 385 -14 q 138 207 190 100 q 85 458 85 314 q 138 710 85 603 q 288 874 190 817 q 517 931 385 931 m 517 801 q 314 711 388 801 q 240 458 240 621 q 314 206 240 296 q 517 115 388 115 q 721 206 647 115 q 794 458 794 296 q 721 711 794 621 q 517 801 647 801 z "},"Ộ":{"ha":1035,"x_min":85,"x_max":950,"o":"m 517 931 q 747 874 649 931 q 897 710 844 817 q 950 458 950 603 q 897 207 950 314 q 747 43 844 100 q 517 -14 649 -14 q 288 43 385 -14 q 138 207 190 100 q 85 458 85 314 q 138 710 85 603 q 288 874 190 817 q 517 931 385 931 m 517 801 q 314 711 388 801 q 240 458 240 621 q 314 206 240 296 q 517 115 388 115 q 721 206 647 115 q 794 458 794 296 q 721 711 794 621 q 517 801 647 801 m 517 -303 q 447 -278 472 -303 q 421 -211 421 -254 q 447 -144 421 -168 q 517 -119 472 -119 q 588 -144 561 -119 q 614 -211 614 -168 q 588 -278 614 -254 q 517 -303 561 -303 m 622 1024 l 517 1165 l 411 1024 l 290 1024 l 439 1246 l 594 1246 l 743 1024 l 622 1024 z "},"Ồ":{"ha":1035,"x_min":85,"x_max":950,"o":"m 826 1172 l 725 1172 l 615 1372 l 746 1372 l 826 1172 m 628 1014 l 517 1161 l 407 1014 l 288 1014 l 440 1244 l 594 1244 l 747 1014 l 628 1014 m 517 931 q 747 874 649 931 q 897 710 844 817 q 950 458 950 603 q 897 207 950 314 q 747 43 844 100 q 517 -14 649 -14 q 288 43 385 -14 q 138 207 190 100 q 85 458 85 314 q 138 710 85 603 q 288 874 190 817 q 517 931 385 931 m 517 801 q 314 711 388 801 q 240 458 240 621 q 314 206 240 296 q 517 115 388 115 q 721 206 647 115 q 794 458 794 296 q 721 711 794 621 q 517 801 647 801 z "},"Ổ":{"ha":1035,"x_min":85,"x_max":950,"o":"m 706 1197 q 761 1235 744 1217 q 778 1281 778 1253 q 765 1316 778 1303 q 726 1329 751 1329 q 691 1319 706 1329 q 665 1289 676 1310 l 588 1336 q 647 1403 607 1379 q 743 1426 686 1426 q 843 1391 804 1426 q 882 1300 882 1356 q 846 1206 882 1246 q 749 1146 810 1165 l 706 1197 m 628 1014 l 517 1161 l 407 1014 l 288 1014 l 440 1244 l 594 1244 l 747 1014 l 628 1014 m 517 931 q 747 874 649 931 q 897 710 844 817 q 950 458 950 603 q 897 207 950 314 q 747 43 844 100 q 517 -14 649 -14 q 288 43 385 -14 q 138 207 190 100 q 85 458 85 314 q 138 710 85 603 q 288 874 190 817 q 517 931 385 931 m 517 801 q 314 711 388 801 q 240 458 240 621 q 314 206 240 296 q 517 115 388 115 q 721 206 647 115 q 794 458 794 296 q 721 711 794 621 q 517 801 647 801 z "},"Ỗ":{"ha":1035,"x_min":85,"x_max":950,"o":"m 763 1464 q 717 1327 757 1372 q 610 1282 676 1282 q 544 1295 571 1282 q 490 1332 518 1308 q 456 1356 469 1349 q 428 1364 443 1364 q 389 1344 403 1364 q 368 1285 375 1325 l 269 1285 q 316 1421 275 1375 q 426 1467 357 1467 q 490 1453 464 1467 q 543 1417 515 1440 q 577 1392 565 1399 q 604 1385 589 1385 q 643 1403 629 1385 q 664 1464 657 1422 l 763 1464 m 628 1014 l 517 1161 l 407 1014 l 288 1014 l 440 1244 l 594 1244 l 747 1014 l 628 1014 m 517 931 q 747 874 649 931 q 897 710 844 817 q 950 458 950 603 q 897 207 950 314 q 747 43 844 100 q 517 -14 649 -14 q 288 43 385 -14 q 138 207 190 100 q 85 458 85 314 q 138 710 85 603 q 288 874 190 817 q 517 931 385 931 m 517 801 q 314 711 388 801 q 240 458 240 621 q 314 206 240 296 q 517 115 388 115 q 721 206 647 115 q 794 458 794 296 q 721 711 794 621 q 517 801 647 801 z "},"Ȍ":{"ha":1035,"x_min":85,"x_max":950,"o":"m 517 931 q 747 874 649 931 q 897 710 844 817 q 950 458 950 603 q 897 207 950 314 q 747 43 844 100 q 517 -14 649 -14 q 288 43 385 -14 q 138 207 190 100 q 85 458 85 314 q 138 710 85 603 q 288 874 190 817 q 517 931 385 931 m 517 801 q 314 711 388 801 q 240 458 240 621 q 314 206 240 296 q 517 115 388 115 q 721 206 647 115 q 794 458 794 296 q 721 711 794 621 q 517 801 647 801 m 443 1024 l 329 1024 l 208 1246 l 353 1246 l 443 1024 m 708 1024 l 594 1024 l 474 1246 l 618 1246 l 708 1024 z "},"Ö":{"ha":1035,"x_min":85,"x_max":950,"o":"m 517 931 q 747 874 649 931 q 897 710 844 817 q 950 458 950 603 q 897 207 950 314 q 747 43 844 100 q 517 -14 649 -14 q 288 43 385 -14 q 138 207 190 100 q 85 458 85 314 q 138 710 85 603 q 288 874 190 817 q 517 931 385 931 m 517 801 q 314 711 388 801 q 240 458 240 621 q 314 206 240 296 q 517 115 388 115 q 721 206 647 115 q 794 458 794 296 q 721 711 794 621 q 517 801 647 801 m 376 1194 q 442 1171 418 1194 q 467 1107 467 1147 q 442 1043 467 1067 q 376 1019 418 1019 q 310 1043 335 1019 q 286 1107 286 1067 q 310 1171 286 1147 q 376 1194 335 1194 m 657 1194 q 723 1171 699 1194 q 747 1107 747 1147 q 723 1043 747 1067 q 657 1019 699 1019 q 591 1043 615 1019 q 567 1107 567 1067 q 591 1171 567 1147 q 657 1194 615 1194 z "},"Ȫ":{"ha":1035,"x_min":85,"x_max":950,"o":"m 517 931 q 747 874 649 931 q 897 710 844 817 q 950 458 950 603 q 897 207 950 314 q 747 43 844 100 q 517 -14 649 -14 q 288 43 385 -14 q 138 207 190 100 q 85 458 85 314 q 138 710 85 603 q 288 874 190 817 q 517 931 385 931 m 517 801 q 314 711 388 801 q 240 458 240 621 q 314 206 240 296 q 517 115 388 115 q 721 206 647 115 q 794 458 794 296 q 721 711 794 621 q 517 801 647 801 m 376 1194 q 442 1171 418 1194 q 467 1107 467 1147 q 442 1043 467 1067 q 376 1019 418 1019 q 310 1043 335 1019 q 286 1107 286 1067 q 310 1171 286 1147 q 376 1194 335 1194 m 657 1194 q 723 1171 699 1194 q 747 1107 747 1147 q 723 1043 747 1067 q 657 1019 699 1019 q 591 1043 615 1019 q 567 1107 567 1067 q 591 1171 567 1147 q 657 1194 615 1194 m 751 1282 l 282 1282 l 282 1390 l 751 1390 l 751 1282 z "},"Ȱ":{"ha":1035,"x_min":85,"x_max":950,"o":"m 517 931 q 747 874 649 931 q 897 710 844 817 q 950 458 950 603 q 897 207 950 314 q 747 43 844 100 q 517 -14 649 -14 q 288 43 385 -14 q 138 207 190 100 q 85 458 85 314 q 138 710 85 603 q 288 874 190 817 q 517 931 385 931 m 517 801 q 314 711 388 801 q 240 458 240 621 q 314 206 240 296 q 517 115 388 115 q 721 206 647 115 q 794 458 794 296 q 721 711 794 621 q 517 801 647 801 m 517 1219 q 588 1195 561 1219 q 614 1128 614 1171 q 588 1060 614 1085 q 517 1036 561 1036 q 447 1060 472 1036 q 421 1128 421 1085 q 447 1195 421 1171 q 517 1219 472 1219 m 753 1306 l 283 1306 l 283 1414 l 753 1414 l 753 1306 z "},"Ọ":{"ha":1035,"x_min":85,"x_max":950,"o":"m 517 931 q 747 874 649 931 q 897 710 844 817 q 950 458 950 603 q 897 207 950 314 q 747 43 844 100 q 517 -14 649 -14 q 288 43 385 -14 q 138 207 190 100 q 85 458 85 314 q 138 710 85 603 q 288 874 190 817 q 517 931 385 931 m 517 801 q 314 711 388 801 q 240 458 240 621 q 314 206 240 296 q 517 115 388 115 q 721 206 647 115 q 794 458 794 296 q 721 711 794 621 q 517 801 647 801 m 517 -303 q 447 -278 472 -303 q 421 -211 421 -254 q 447 -144 421 -168 q 517 -119 472 -119 q 588 -144 561 -119 q 614 -211 614 -168 q 588 -278 614 -254 q 517 -303 561 -303 z "},"Ò":{"ha":1035,"x_min":85,"x_max":950,"o":"m 517 931 q 747 874 649 931 q 897 710 844 817 q 950 458 950 603 q 897 207 950 314 q 747 43 844 100 q 517 -14 649 -14 q 288 43 385 -14 q 138 207 190 100 q 85 458 85 314 q 138 710 85 603 q 288 874 190 817 q 517 931 385 931 m 517 801 q 314 711 388 801 q 240 458 240 621 q 314 206 240 296 q 517 115 388 115 q 721 206 647 115 q 794 458 794 296 q 721 711 794 621 q 517 801 647 801 m 578 1024 l 464 1024 l 343 1246 l 488 1246 l 578 1024 z "},"Ỏ":{"ha":1035,"x_min":85,"x_max":950,"o":"m 517 931 q 747 874 649 931 q 897 710 844 817 q 950 458 950 603 q 897 207 950 314 q 747 43 844 100 q 517 -14 649 -14 q 288 43 385 -14 q 138 207 190 100 q 85 458 85 314 q 138 710 85 603 q 288 874 190 817 q 517 931 385 931 m 517 801 q 314 711 388 801 q 240 458 240 621 q 314 206 240 296 q 517 115 388 115 q 721 206 647 115 q 794 458 794 296 q 721 711 794 621 q 517 801 647 801 m 476 1039 q 531 1076 514 1057 q 549 1122 549 1094 q 534 1157 549 1143 q 496 1171 519 1171 q 436 1129 457 1171 l 357 1176 q 417 1244 378 1219 q 514 1268 457 1268 q 614 1233 575 1268 q 653 1142 653 1197 q 617 1047 653 1088 q 519 988 581 1007 l 476 1039 z "},"Ơ":{"ha":1035,"x_min":85,"x_max":950,"o":"m 792 842 q 909 683 868 781 q 950 458 950 585 q 897 207 950 314 q 747 43 844 100 q 517 -14 649 -14 q 288 43 385 -14 q 138 207 190 100 q 85 458 85 314 q 138 710 85 603 q 288 874 190 817 q 517 931 385 931 q 638 917 583 931 q 756 954 722 918 q 790 1065 790 990 l 914 1065 q 792 842 914 900 m 517 115 q 721 206 647 115 q 794 458 794 296 q 721 711 794 621 q 517 801 647 801 q 314 711 388 801 q 240 458 240 621 q 314 206 240 296 q 517 115 388 115 z "},"Ớ":{"ha":1035,"x_min":85,"x_max":950,"o":"m 792 842 q 909 683 868 781 q 950 458 950 585 q 897 207 950 314 q 747 43 844 100 q 517 -14 649 -14 q 288 43 385 -14 q 138 207 190 100 q 85 458 85 314 q 138 710 85 603 q 288 874 190 817 q 517 931 385 931 q 638 917 583 931 q 756 954 722 918 q 790 1065 790 990 l 914 1065 q 792 842 914 900 m 517 115 q 721 206 647 115 q 794 458 794 296 q 721 711 794 621 q 517 801 647 801 q 314 711 388 801 q 240 458 240 621 q 314 206 240 296 q 517 115 388 115 m 679 1246 l 558 1024 l 444 1024 l 535 1246 l 679 1246 z "},"Ợ":{"ha":1035,"x_min":85,"x_max":950,"o":"m 792 842 q 909 683 868 781 q 950 458 950 585 q 897 207 950 314 q 747 43 844 100 q 517 -14 649 -14 q 288 43 385 -14 q 138 207 190 100 q 85 458 85 314 q 138 710 85 603 q 288 874 190 817 q 517 931 385 931 q 638 917 583 931 q 756 954 722 918 q 790 1065 790 990 l 914 1065 q 792 842 914 900 m 517 115 q 721 206 647 115 q 794 458 794 296 q 721 711 794 621 q 517 801 647 801 q 314 711 388 801 q 240 458 240 621 q 314 206 240 296 q 517 115 388 115 m 517 -303 q 447 -278 472 -303 q 421 -211 421 -254 q 447 -144 421 -168 q 517 -119 472 -119 q 588 -144 561 -119 q 614 -211 614 -168 q 588 -278 614 -254 q 517 -303 561 -303 z "},"Ờ":{"ha":1035,"x_min":85,"x_max":950,"o":"m 792 842 q 909 683 868 781 q 950 458 950 585 q 897 207 950 314 q 747 43 844 100 q 517 -14 649 -14 q 288 43 385 -14 q 138 207 190 100 q 85 458 85 314 q 138 710 85 603 q 288 874 190 817 q 517 931 385 931 q 638 917 583 931 q 756 954 722 918 q 790 1065 790 990 l 914 1065 q 792 842 914 900 m 517 115 q 721 206 647 115 q 794 458 794 296 q 721 711 794 621 q 517 801 647 801 q 314 711 388 801 q 240 458 240 621 q 314 206 240 296 q 517 115 388 115 m 589 1024 l 475 1024 l 354 1246 l 499 1246 l 589 1024 z "},"Ở":{"ha":1035,"x_min":85,"x_max":950,"o":"m 792 842 q 909 683 868 781 q 950 458 950 585 q 897 207 950 314 q 747 43 844 100 q 517 -14 649 -14 q 288 43 385 -14 q 138 207 190 100 q 85 458 85 314 q 138 710 85 603 q 288 874 190 817 q 517 931 385 931 q 638 917 583 931 q 756 954 722 918 q 790 1065 790 990 l 914 1065 q 792 842 914 900 m 517 115 q 721 206 647 115 q 794 458 794 296 q 721 711 794 621 q 517 801 647 801 q 314 711 388 801 q 240 458 240 621 q 314 206 240 296 q 517 115 388 115 m 476 1039 q 531 1076 514 1057 q 549 1122 549 1094 q 534 1157 549 1143 q 496 1171 519 1171 q 436 1129 457 1171 l 357 1176 q 417 1244 378 1219 q 514 1268 457 1268 q 614 1233 575 1268 q 653 1142 653 1197 q 617 1047 653 1088 q 519 988 581 1007 l 476 1039 z "},"Ỡ":{"ha":1035,"x_min":85,"x_max":950,"o":"m 792 842 q 909 683 868 781 q 950 458 950 585 q 897 207 950 314 q 747 43 844 100 q 517 -14 649 -14 q 288 43 385 -14 q 138 207 190 100 q 85 458 85 314 q 138 710 85 603 q 288 874 190 817 q 517 931 385 931 q 638 917 583 931 q 756 954 722 918 q 790 1065 790 990 l 914 1065 q 792 842 914 900 m 517 115 q 721 206 647 115 q 794 458 794 296 q 721 711 794 621 q 517 801 647 801 q 314 711 388 801 q 240 458 240 621 q 314 206 240 296 q 517 115 388 115 m 764 1218 q 717 1072 758 1122 q 604 1022 675 1022 q 536 1037 564 1022 q 479 1078 508 1051 q 441 1105 454 1097 q 413 1113 428 1113 q 370 1090 385 1113 q 349 1021 356 1067 l 247 1021 q 411 1218 260 1218 q 477 1203 450 1218 q 535 1163 504 1189 q 570 1136 557 1144 q 599 1128 583 1128 q 641 1150 626 1128 q 664 1218 656 1172 l 764 1218 z "},"Ő":{"ha":1035,"x_min":85,"x_max":950,"o":"m 517 931 q 747 874 649 931 q 897 710 844 817 q 950 458 950 603 q 897 207 950 314 q 747 43 844 100 q 517 -14 649 -14 q 288 43 385 -14 q 138 207 190 100 q 85 458 85 314 q 138 710 85 603 q 288 874 190 817 q 517 931 385 931 m 517 801 q 314 711 388 801 q 240 458 240 621 q 314 206 240 296 q 517 115 388 115 q 721 206 647 115 q 794 458 794 296 q 721 711 794 621 q 517 801 647 801 z "},"Ȏ":{"ha":1035,"x_min":85,"x_max":950,"o":"m 517 931 q 747 874 649 931 q 897 710 844 817 q 950 458 950 603 q 897 207 950 314 q 747 43 844 100 q 517 -14 649 -14 q 288 43 385 -14 q 138 207 190 100 q 85 458 85 314 q 138 710 85 603 q 288 874 190 817 q 517 931 385 931 m 517 801 q 314 711 388 801 q 240 458 240 621 q 314 206 240 296 q 517 115 388 115 q 721 206 647 115 q 794 458 794 296 q 721 711 794 621 q 517 801 647 801 m 622 1014 q 594 1096 621 1064 q 517 1128 567 1128 q 440 1096 467 1128 q 411 1014 413 1064 l 303 1014 q 361 1168 303 1110 q 517 1226 419 1226 q 672 1168 614 1226 q 731 1014 731 1110 l 622 1014 z "},"Ō":{"ha":1035,"x_min":85,"x_max":950,"o":"m 517 931 q 747 874 649 931 q 897 710 844 817 q 950 458 950 603 q 897 207 950 314 q 747 43 844 100 q 517 -14 649 -14 q 288 43 385 -14 q 138 207 190 100 q 85 458 85 314 q 138 710 85 603 q 288 874 190 817 q 517 931 385 931 m 517 801 q 314 711 388 801 q 240 458 240 621 q 314 206 240 296 q 517 115 388 115 q 721 206 647 115 q 794 458 794 296 q 721 711 794 621 q 517 801 647 801 m 751 1039 l 282 1039 l 282 1147 l 751 1147 l 751 1039 z "},"Ṓ":{"ha":1035,"x_min":85,"x_max":950,"o":"m 517 931 q 747 874 649 931 q 897 710 844 817 q 950 458 950 603 q 897 207 950 314 q 747 43 844 100 q 517 -14 649 -14 q 288 43 385 -14 q 138 207 190 100 q 85 458 85 314 q 138 710 85 603 q 288 874 190 817 q 517 931 385 931 m 517 801 q 314 711 388 801 q 240 458 240 621 q 314 206 240 296 q 517 115 388 115 q 721 206 647 115 q 794 458 794 296 q 721 711 794 621 q 517 801 647 801 m 751 1039 l 282 1039 l 282 1147 l 751 1147 l 751 1039 m 679 1474 l 558 1251 l 444 1251 l 535 1474 l 679 1474 z "},"Ṑ":{"ha":1035,"x_min":85,"x_max":950,"o":"m 517 931 q 747 874 649 931 q 897 710 844 817 q 950 458 950 603 q 897 207 950 314 q 747 43 844 100 q 517 -14 649 -14 q 288 43 385 -14 q 138 207 190 100 q 85 458 85 314 q 138 710 85 603 q 288 874 190 817 q 517 931 385 931 m 517 801 q 314 711 388 801 q 240 458 240 621 q 314 206 240 296 q 517 115 388 115 q 721 206 647 115 q 794 458 794 296 q 721 711 794 621 q 517 801 647 801 m 751 1039 l 282 1039 l 282 1147 l 751 1147 l 751 1039 m 589 1251 l 475 1251 l 354 1474 l 499 1474 l 589 1251 z "},"Ǫ":{"ha":1035,"x_min":85,"x_max":950,"o":"m 656 4 q 532 -64 564 -31 q 500 -143 500 -97 q 522 -195 500 -176 q 583 -214 544 -214 q 656 -200 621 -214 l 674 -286 q 563 -310 631 -310 q 437 -270 482 -310 q 392 -164 392 -231 q 413 -77 392 -114 q 479 -12 435 -40 q 269 55 358 -4 q 133 217 181 114 q 85 458 85 321 q 138 710 85 603 q 288 874 190 817 q 517 931 385 931 q 747 874 649 931 q 897 710 844 817 q 950 458 950 603 q 872 163 950 282 q 656 4 794 44 m 240 458 q 314 206 240 296 q 517 115 388 115 q 721 206 647 115 q 794 458 794 296 q 721 711 794 621 q 517 801 647 801 q 314 711 388 801 q 240 458 240 621 z "},"Ø":{"ha":1035,"x_min":85,"x_max":950,"o":"m 826 811 q 918 660 886 750 q 950 458 950 569 q 897 207 950 314 q 747 43 844 100 q 517 -14 649 -14 q 282 46 382 -14 l 214 -47 l 111 -47 l 215 99 q 119 253 153 161 q 85 458 85 344 q 138 710 85 603 q 288 874 190 817 q 517 931 385 931 q 761 864 658 931 l 822 947 l 924 947 l 826 811 m 517 801 q 314 711 388 801 q 240 458 240 621 q 303 219 240 308 l 679 751 q 517 801 613 801 m 517 115 q 721 206 647 115 q 794 458 794 296 q 738 689 794 599 l 364 160 q 517 115 428 115 z "},"Ǿ":{"ha":1035,"x_min":85,"x_max":950,"o":"m 826 811 q 918 660 886 750 q 950 458 950 569 q 897 207 950 314 q 747 43 844 100 q 517 -14 649 -14 q 282 46 382 -14 l 214 -47 l 111 -47 l 215 99 q 119 253 153 161 q 85 458 85 344 q 138 710 85 603 q 288 874 190 817 q 517 931 385 931 q 761 864 658 931 l 822 947 l 924 947 l 826 811 m 517 801 q 314 711 388 801 q 240 458 240 621 q 303 219 240 308 l 679 751 q 517 801 613 801 m 517 115 q 721 206 647 115 q 794 458 794 296 q 738 689 794 599 l 364 160 q 517 115 428 115 m 679 1246 l 558 1024 l 444 1024 l 535 1246 l 679 1246 z "},"Õ":{"ha":1035,"x_min":85,"x_max":950,"o":"m 517 931 q 747 874 649 931 q 897 710 844 817 q 950 458 950 603 q 897 207 950 314 q 747 43 844 100 q 517 -14 649 -14 q 288 43 385 -14 q 138 207 190 100 q 85 458 85 314 q 138 710 85 603 q 288 874 190 817 q 517 931 385 931 m 517 801 q 314 711 388 801 q 240 458 240 621 q 314 206 240 296 q 517 115 388 115 q 721 206 647 115 q 794 458 794 296 q 721 711 794 621 q 517 801 647 801 m 774 1218 q 726 1072 768 1122 q 614 1022 685 1022 q 546 1037 574 1022 q 489 1078 518 1051 q 451 1105 464 1097 q 422 1113 438 1113 q 380 1090 394 1113 q 358 1021 365 1067 l 257 1021 q 421 1218 269 1218 q 487 1203 460 1218 q 544 1163 514 1189 q 580 1136 567 1144 q 608 1128 593 1128 q 651 1150 636 1128 q 674 1218 665 1172 l 774 1218 z "},"Ṍ":{"ha":1035,"x_min":85,"x_max":950,"o":"m 517 931 q 747 874 649 931 q 897 710 844 817 q 950 458 950 603 q 897 207 950 314 q 747 43 844 100 q 517 -14 649 -14 q 288 43 385 -14 q 138 207 190 100 q 85 458 85 314 q 138 710 85 603 q 288 874 190 817 q 517 931 385 931 m 517 801 q 314 711 388 801 q 240 458 240 621 q 314 206 240 296 q 517 115 388 115 q 721 206 647 115 q 794 458 794 296 q 721 711 794 621 q 517 801 647 801 m 774 1218 q 726 1072 768 1122 q 614 1022 685 1022 q 546 1037 574 1022 q 489 1078 518 1051 q 451 1105 464 1097 q 422 1113 438 1113 q 380 1090 394 1113 q 358 1021 365 1067 l 257 1021 q 421 1218 269 1218 q 487 1203 460 1218 q 544 1163 514 1189 q 580 1136 567 1144 q 608 1128 593 1128 q 651 1150 636 1128 q 674 1218 665 1172 l 774 1218 m 679 1524 l 558 1301 l 444 1301 l 535 1524 l 679 1524 z "},"Ṏ":{"ha":1035,"x_min":85,"x_max":950,"o":"m 517 931 q 747 874 649 931 q 897 710 844 817 q 950 458 950 603 q 897 207 950 314 q 747 43 844 100 q 517 -14 649 -14 q 288 43 385 -14 q 138 207 190 100 q 85 458 85 314 q 138 710 85 603 q 288 874 190 817 q 517 931 385 931 m 517 801 q 314 711 388 801 q 240 458 240 621 q 314 206 240 296 q 517 115 388 115 q 721 206 647 115 q 794 458 794 296 q 721 711 794 621 q 517 801 647 801 m 774 1218 q 726 1072 768 1122 q 614 1022 685 1022 q 546 1037 574 1022 q 489 1078 518 1051 q 451 1105 464 1097 q 422 1113 438 1113 q 380 1090 394 1113 q 358 1021 365 1067 l 257 1021 q 421 1218 269 1218 q 487 1203 460 1218 q 544 1163 514 1189 q 580 1136 567 1144 q 608 1128 593 1128 q 651 1150 636 1128 q 674 1218 665 1172 l 774 1218 m 376 1472 q 442 1449 418 1472 q 467 1385 467 1425 q 442 1321 467 1344 q 376 1297 418 1297 q 310 1321 335 1297 q 286 1385 286 1344 q 310 1449 286 1425 q 376 1472 335 1472 m 657 1472 q 723 1449 699 1472 q 747 1385 747 1425 q 723 1321 747 1344 q 657 1297 699 1297 q 591 1321 615 1297 q 567 1385 567 1344 q 591 1449 567 1425 q 657 1472 615 1472 z "},"Ȭ":{"ha":1035,"x_min":85,"x_max":950,"o":"m 517 931 q 747 874 649 931 q 897 710 844 817 q 950 458 950 603 q 897 207 950 314 q 747 43 844 100 q 517 -14 649 -14 q 288 43 385 -14 q 138 207 190 100 q 85 458 85 314 q 138 710 85 603 q 288 874 190 817 q 517 931 385 931 m 517 801 q 314 711 388 801 q 240 458 240 621 q 314 206 240 296 q 517 115 388 115 q 721 206 647 115 q 794 458 794 296 q 721 711 794 621 q 517 801 647 801 m 774 1218 q 726 1072 768 1122 q 614 1022 685 1022 q 546 1037 574 1022 q 489 1078 518 1051 q 451 1105 464 1097 q 422 1113 438 1113 q 380 1090 394 1113 q 358 1021 365 1067 l 257 1021 q 421 1218 269 1218 q 487 1203 460 1218 q 544 1163 514 1189 q 580 1136 567 1144 q 608 1128 593 1128 q 651 1150 636 1128 q 674 1218 665 1172 l 774 1218 m 751 1317 l 282 1317 l 282 1425 l 751 1425 l 751 1317 z "},"Œ":{"ha":1486,"x_min":85,"x_max":1424,"o":"m 1424 128 l 1424 0 l 803 0 l 803 129 q 676 23 751 60 q 510 -14 601 -14 q 283 43 379 -14 q 136 207 188 100 q 85 458 85 314 q 136 710 85 603 q 284 874 188 817 q 514 931 381 931 q 679 894 606 931 q 803 790 753 858 l 803 917 l 1403 917 l 1403 789 l 922 789 l 922 525 l 1292 525 l 1292 400 l 922 400 l 922 128 l 1424 128 m 517 115 q 709 206 638 115 q 781 458 781 297 q 709 710 781 619 q 517 801 638 801 q 311 712 383 801 q 239 458 239 622 q 311 205 239 294 q 517 115 383 115 z "},"P":{"ha":871,"x_min":136,"x_max":811,"o":"m 489 917 q 724 840 636 917 q 811 629 811 763 q 724 419 811 496 q 489 342 636 342 l 285 342 l 285 0 l 136 0 l 136 917 l 489 917 m 465 469 q 657 629 657 469 q 465 790 657 790 l 285 790 l 285 469 l 465 469 z "},"Þ":{"ha":890,"x_min":136,"x_max":822,"o":"m 474 760 q 733 685 644 760 q 822 468 822 610 q 733 251 822 326 q 474 176 644 176 l 285 176 l 285 0 l 136 0 l 136 917 l 285 917 l 285 760 l 474 760 m 474 303 q 620 343 572 303 q 668 468 668 383 q 620 593 668 553 q 474 633 572 633 l 285 633 l 285 303 l 474 303 z "},"Q":{"ha":1035,"x_min":85,"x_max":950,"o":"m 744 -143 q 840 -130 797 -143 q 910 -93 883 -117 l 946 -214 q 855 -258 913 -242 q 743 -275 797 -275 q 542 -210 619 -275 q 460 -11 464 -146 q 185 133 285 8 q 85 458 85 257 q 138 710 85 603 q 288 874 190 817 q 517 931 385 931 q 747 874 649 931 q 897 710 844 817 q 950 458 950 603 q 849 131 950 256 q 572 -11 749 7 q 626 -115 581 -87 q 744 -143 671 -143 m 240 458 q 314 206 240 296 q 517 115 388 115 q 721 206 647 115 q 794 458 794 296 q 721 711 794 621 q 517 801 647 801 q 314 711 388 801 q 240 458 240 621 z "},"R":{"ha":933,"x_min":136,"x_max":885,"o":"m 714 0 l 481 367 l 283 367 l 283 0 l 136 0 l 136 917 l 510 917 q 744 843 657 917 q 831 644 831 769 q 778 481 831 546 q 632 390 726 415 l 885 0 l 714 0 m 283 490 l 499 490 q 633 527 589 490 q 676 640 676 564 q 633 753 676 717 q 499 790 589 790 l 283 790 l 283 490 z "},"Ŕ":{"ha":933,"x_min":136,"x_max":885,"o":"m 714 0 l 481 367 l 283 367 l 283 0 l 136 0 l 136 917 l 510 917 q 744 843 657 917 q 831 644 831 769 q 778 481 831 546 q 632 390 726 415 l 885 0 l 714 0 m 283 490 l 499 490 q 633 527 589 490 q 676 640 676 564 q 633 753 676 717 q 499 790 589 790 l 283 790 l 283 490 m 613 1246 l 492 1024 l 378 1024 l 468 1246 l 613 1246 z "},"Ř":{"ha":933,"x_min":136,"x_max":885,"o":"m 714 0 l 481 367 l 283 367 l 283 0 l 136 0 l 136 917 l 510 917 q 744 843 657 917 q 831 644 831 769 q 778 481 831 546 q 632 390 726 415 l 885 0 l 714 0 m 283 490 l 499 490 q 633 527 589 490 q 676 640 676 564 q 633 753 676 717 q 499 790 589 790 l 283 790 l 283 490 m 528 1024 l 372 1024 l 224 1246 l 344 1246 l 450 1104 l 556 1246 l 676 1246 l 528 1024 z "},"Ŗ":{"ha":933,"x_min":136,"x_max":885,"o":"m 714 0 l 481 367 l 283 367 l 283 0 l 136 0 l 136 917 l 510 917 q 744 843 657 917 q 831 644 831 769 q 778 481 831 546 q 632 390 726 415 l 885 0 l 714 0 m 283 490 l 499 490 q 633 527 589 490 q 676 640 676 564 q 633 753 676 717 q 499 790 589 790 l 283 790 l 283 490 m 485 -331 l 378 -331 l 433 -99 l 578 -99 l 485 -331 z "},"Ȑ":{"ha":933,"x_min":136,"x_max":885,"o":"m 714 0 l 481 367 l 283 367 l 283 0 l 136 0 l 136 917 l 510 917 q 744 843 657 917 q 831 644 831 769 q 778 481 831 546 q 632 390 726 415 l 885 0 l 714 0 m 283 490 l 499 490 q 633 527 589 490 q 676 640 676 564 q 633 753 676 717 q 499 790 589 790 l 283 790 l 283 490 m 376 1024 l 263 1024 l 142 1246 l 286 1246 l 376 1024 m 642 1024 l 528 1024 l 407 1246 l 551 1246 l 642 1024 z "},"Ṛ":{"ha":933,"x_min":136,"x_max":885,"o":"m 714 0 l 481 367 l 283 367 l 283 0 l 136 0 l 136 917 l 510 917 q 744 843 657 917 q 831 644 831 769 q 778 481 831 546 q 632 390 726 415 l 885 0 l 714 0 m 283 490 l 499 490 q 633 527 589 490 q 676 640 676 564 q 633 753 676 717 q 499 790 589 790 l 283 790 l 283 490 m 506 -303 q 435 -278 461 -303 q 410 -211 410 -254 q 435 -144 410 -168 q 506 -119 461 -119 q 576 -144 550 -119 q 603 -211 603 -168 q 576 -278 603 -254 q 506 -303 550 -303 z "},"Ȓ":{"ha":933,"x_min":136,"x_max":885,"o":"m 714 0 l 481 367 l 283 367 l 283 0 l 136 0 l 136 917 l 510 917 q 744 843 657 917 q 831 644 831 769 q 778 481 831 546 q 632 390 726 415 l 885 0 l 714 0 m 283 490 l 499 490 q 633 527 589 490 q 676 640 676 564 q 633 753 676 717 q 499 790 589 790 l 283 790 l 283 490 m 556 1014 q 527 1096 554 1064 q 450 1128 500 1128 q 373 1096 400 1128 q 344 1014 346 1064 l 236 1014 q 294 1168 236 1110 q 450 1226 353 1226 q 606 1168 547 1226 q 664 1014 664 1110 l 556 1014 z "},"Ṟ":{"ha":933,"x_min":136,"x_max":885,"o":"m 714 0 l 481 367 l 283 367 l 283 0 l 136 0 l 136 917 l 510 917 q 744 843 657 917 q 831 644 831 769 q 778 481 831 546 q 632 390 726 415 l 885 0 l 714 0 m 283 490 l 499 490 q 633 527 589 490 q 676 640 676 564 q 633 753 676 717 q 499 790 589 790 l 283 790 l 283 490 z "},"S":{"ha":892,"x_min":49,"x_max":819,"o":"m 449 931 q 815 747 689 931 l 715 651 q 597 767 663 731 q 440 803 531 803 q 296 765 344 803 q 247 669 247 728 q 279 593 247 624 q 389 544 311 563 l 575 503 q 762 415 704 474 q 819 263 819 357 q 774 117 819 179 q 647 20 729 54 q 456 -14 564 -14 q 213 38 317 -14 q 49 178 108 90 l 151 281 q 275 159 196 204 q 460 114 354 114 q 610 148 557 114 q 665 246 664 182 q 636 319 665 289 q 538 364 607 349 l 336 410 q 92 650 92 463 q 135 792 92 728 q 259 893 178 856 q 449 931 340 931 z "},"Ś":{"ha":892,"x_min":49,"x_max":819,"o":"m 449 931 q 815 747 689 931 l 715 651 q 597 767 663 731 q 440 803 531 803 q 296 765 344 803 q 247 669 247 728 q 279 593 247 624 q 389 544 311 563 l 575 503 q 762 415 704 474 q 819 263 819 357 q 774 117 819 179 q 647 20 729 54 q 456 -14 564 -14 q 213 38 317 -14 q 49 178 108 90 l 151 281 q 275 159 196 204 q 460 114 354 114 q 610 148 557 114 q 665 246 664 182 q 636 319 665 289 q 538 364 607 349 l 336 410 q 92 650 92 463 q 135 792 92 728 q 259 893 178 856 q 449 931 340 931 m 617 1246 l 496 1024 l 382 1024 l 472 1246 l 617 1246 z "},"Ṥ":{"ha":892,"x_min":49,"x_max":819,"o":"m 449 931 q 815 747 689 931 l 715 651 q 597 767 663 731 q 440 803 531 803 q 296 765 344 803 q 247 669 247 728 q 279 593 247 624 q 389 544 311 563 l 575 503 q 762 415 704 474 q 819 263 819 357 q 774 117 819 179 q 647 20 729 54 q 456 -14 564 -14 q 213 38 317 -14 q 49 178 108 90 l 151 281 q 275 159 196 204 q 460 114 354 114 q 610 148 557 114 q 665 246 664 182 q 636 319 665 289 q 538 364 607 349 l 336 410 q 92 650 92 463 q 135 792 92 728 q 259 893 178 856 q 449 931 340 931 m 617 1246 l 496 1024 l 382 1024 l 472 1246 l 617 1246 m 454 1514 q 525 1490 499 1514 q 551 1422 551 1465 q 525 1355 551 1379 q 454 1331 499 1331 q 384 1355 410 1331 q 358 1422 358 1379 q 384 1490 358 1465 q 454 1514 410 1514 z "},"Š":{"ha":892,"x_min":49,"x_max":819,"o":"m 449 931 q 815 747 689 931 l 715 651 q 597 767 663 731 q 440 803 531 803 q 296 765 344 803 q 247 669 247 728 q 279 593 247 624 q 389 544 311 563 l 575 503 q 762 415 704 474 q 819 263 819 357 q 774 117 819 179 q 647 20 729 54 q 456 -14 564 -14 q 213 38 317 -14 q 49 178 108 90 l 151 281 q 275 159 196 204 q 460 114 354 114 q 610 148 557 114 q 665 246 664 182 q 636 319 665 289 q 538 364 607 349 l 336 410 q 92 650 92 463 q 135 792 92 728 q 259 893 178 856 q 449 931 340 931 m 532 1024 l 376 1024 l 228 1246 l 349 1246 l 454 1104 l 560 1246 l 681 1246 l 532 1024 z "},"Ṧ":{"ha":892,"x_min":49,"x_max":819,"o":"m 449 931 q 815 747 689 931 l 715 651 q 597 767 663 731 q 440 803 531 803 q 296 765 344 803 q 247 669 247 728 q 279 593 247 624 q 389 544 311 563 l 575 503 q 762 415 704 474 q 819 263 819 357 q 774 117 819 179 q 647 20 729 54 q 456 -14 564 -14 q 213 38 317 -14 q 49 178 108 90 l 151 281 q 275 159 196 204 q 460 114 354 114 q 610 148 557 114 q 665 246 664 182 q 636 319 665 289 q 538 364 607 349 l 336 410 q 92 650 92 463 q 135 792 92 728 q 259 893 178 856 q 449 931 340 931 m 532 1024 l 376 1024 l 228 1246 l 349 1246 l 454 1104 l 560 1246 l 681 1246 l 532 1024 m 454 1507 q 525 1483 499 1507 q 551 1415 551 1458 q 525 1348 551 1372 q 454 1324 499 1324 q 384 1348 410 1324 q 358 1415 358 1372 q 384 1483 358 1458 q 454 1507 410 1507 z "},"Ş":{"ha":892,"x_min":49,"x_max":819,"o":"m 819 263 q 742 79 819 151 q 531 -10 664 7 q 588 -133 588 -57 q 538 -251 588 -204 q 411 -299 489 -299 q 276 -258 331 -299 l 306 -168 q 350 -191 331 -183 q 396 -199 369 -199 q 458 -174 435 -199 q 482 -107 482 -150 q 465 -56 482 -78 q 404 -12 447 -35 q 192 48 283 -3 q 49 178 101 99 l 151 281 q 275 159 196 204 q 460 114 354 114 q 610 148 557 114 q 665 246 664 182 q 636 319 665 289 q 538 364 607 349 l 336 410 q 92 650 92 463 q 135 792 92 728 q 259 893 178 856 q 449 931 340 931 q 815 747 689 931 l 715 651 q 597 767 663 731 q 440 803 531 803 q 296 765 344 803 q 247 669 247 728 q 279 593 247 624 q 389 544 311 563 l 575 503 q 762 415 704 474 q 819 263 819 357 z "},"Ŝ":{"ha":892,"x_min":49,"x_max":819,"o":"m 449 931 q 815 747 689 931 l 715 651 q 597 767 663 731 q 440 803 531 803 q 296 765 344 803 q 247 669 247 728 q 279 593 247 624 q 389 544 311 563 l 575 503 q 762 415 704 474 q 819 263 819 357 q 774 117 819 179 q 647 20 729 54 q 456 -14 564 -14 q 213 38 317 -14 q 49 178 108 90 l 151 281 q 275 159 196 204 q 460 114 354 114 q 610 148 557 114 q 665 246 664 182 q 636 319 665 289 q 538 364 607 349 l 336 410 q 92 650 92 463 q 135 792 92 728 q 259 893 178 856 q 449 931 340 931 m 560 1024 l 454 1165 l 349 1024 l 228 1024 l 376 1246 l 532 1246 l 681 1024 l 560 1024 z "},"Ș":{"ha":892,"x_min":49,"x_max":819,"o":"m 449 931 q 815 747 689 931 l 715 651 q 597 767 663 731 q 440 803 531 803 q 296 765 344 803 q 247 669 247 728 q 279 593 247 624 q 389 544 311 563 l 575 503 q 762 415 704 474 q 819 263 819 357 q 774 117 819 179 q 647 20 729 54 q 456 -14 564 -14 q 213 38 317 -14 q 49 178 108 90 l 151 281 q 275 159 196 204 q 460 114 354 114 q 610 148 557 114 q 665 246 664 182 q 636 319 665 289 q 538 364 607 349 l 336 410 q 92 650 92 463 q 135 792 92 728 q 259 893 178 856 q 449 931 340 931 m 424 -331 l 317 -331 l 372 -99 l 517 -99 l 424 -331 z "},"Ṡ":{"ha":892,"x_min":49,"x_max":819,"o":"m 449 931 q 815 747 689 931 l 715 651 q 597 767 663 731 q 440 803 531 803 q 296 765 344 803 q 247 669 247 728 q 279 593 247 624 q 389 544 311 563 l 575 503 q 762 415 704 474 q 819 263 819 357 q 774 117 819 179 q 647 20 729 54 q 456 -14 564 -14 q 213 38 317 -14 q 49 178 108 90 l 151 281 q 275 159 196 204 q 460 114 354 114 q 610 148 557 114 q 665 246 664 182 q 636 319 665 289 q 538 364 607 349 l 336 410 q 92 650 92 463 q 135 792 92 728 q 259 893 178 856 q 449 931 340 931 m 454 1219 q 525 1195 499 1219 q 551 1128 551 1171 q 525 1060 551 1085 q 454 1036 499 1036 q 384 1060 410 1036 q 358 1128 358 1085 q 384 1195 358 1171 q 454 1219 410 1219 z "},"Ṣ":{"ha":892,"x_min":49,"x_max":819,"o":"m 449 931 q 815 747 689 931 l 715 651 q 597 767 663 731 q 440 803 531 803 q 296 765 344 803 q 247 669 247 728 q 279 593 247 624 q 389 544 311 563 l 575 503 q 762 415 704 474 q 819 263 819 357 q 774 117 819 179 q 647 20 729 54 q 456 -14 564 -14 q 213 38 317 -14 q 49 178 108 90 l 151 281 q 275 159 196 204 q 460 114 354 114 q 610 148 557 114 q 665 246 664 182 q 636 319 665 289 q 538 364 607 349 l 336 410 q 92 650 92 463 q 135 792 92 728 q 259 893 178 856 q 449 931 340 931 m 444 -303 q 374 -278 400 -303 q 349 -211 349 -254 q 374 -144 349 -168 q 444 -119 400 -119 q 515 -144 489 -119 q 542 -211 542 -168 q 515 -278 542 -254 q 444 -303 489 -303 z "},"Ṩ":{"ha":892,"x_min":49,"x_max":819,"o":"m 449 931 q 815 747 689 931 l 715 651 q 597 767 663 731 q 440 803 531 803 q 296 765 344 803 q 247 669 247 728 q 279 593 247 624 q 389 544 311 563 l 575 503 q 762 415 704 474 q 819 263 819 357 q 774 117 819 179 q 647 20 729 54 q 456 -14 564 -14 q 213 38 317 -14 q 49 178 108 90 l 151 281 q 275 159 196 204 q 460 114 354 114 q 610 148 557 114 q 665 246 664 182 q 636 319 665 289 q 538 364 607 349 l 336 410 q 92 650 92 463 q 135 792 92 728 q 259 893 178 856 q 449 931 340 931 m 454 1219 q 525 1195 499 1219 q 551 1128 551 1171 q 525 1060 551 1085 q 454 1036 499 1036 q 384 1060 410 1036 q 358 1128 358 1085 q 384 1195 358 1171 q 454 1219 410 1219 m 444 -303 q 374 -278 400 -303 q 349 -211 349 -254 q 374 -144 349 -168 q 444 -119 400 -119 q 515 -144 489 -119 q 542 -211 542 -168 q 515 -278 542 -254 q 444 -303 489 -303 z "},"ẞ":{"ha":946,"x_min":118,"x_max":906,"o":"m 617 -7 q 471 14 532 -7 q 378 68 410 35 l 432 179 q 505 132 463 149 q 599 115 547 115 q 717 158 674 115 q 760 267 760 200 q 715 369 760 333 q 596 404 671 404 l 457 404 l 457 510 l 688 790 l 460 790 q 324 735 379 790 q 268 594 268 681 l 268 0 l 118 0 l 118 606 q 160 769 118 699 q 276 878 201 840 q 447 917 351 917 l 849 917 l 849 790 l 590 492 l 643 510 q 775 483 715 511 q 870 400 835 456 q 906 267 906 344 q 826 66 906 139 q 617 -7 746 -7 z "},"Ə":{"ha":988,"x_min":69,"x_max":903,"o":"m 475 931 q 703 874 607 931 q 851 710 800 817 q 903 458 903 603 q 850 207 903 314 q 700 43 797 100 q 474 -14 603 -14 q 261 39 353 -14 q 119 190 169 92 q 69 419 69 288 q 74 499 69 457 l 749 499 q 668 722 740 643 q 474 801 596 801 q 322 756 383 801 q 233 625 261 711 l 85 668 q 231 862 128 793 q 475 931 335 931 m 482 115 q 662 181 594 115 q 746 379 729 247 l 226 379 q 260 238 226 297 q 353 147 294 178 q 482 115 411 115 z "},"T":{"ha":860,"x_min":42,"x_max":818,"o":"m 818 789 l 504 789 l 504 0 l 356 0 l 356 789 l 42 789 l 42 917 l 818 917 l 818 789 z "},"Ŧ":{"ha":860,"x_min":42,"x_max":818,"o":"m 504 789 l 504 503 l 721 503 l 721 374 l 504 374 l 504 0 l 356 0 l 356 374 l 139 374 l 139 503 l 356 503 l 356 789 l 42 789 l 42 917 l 818 917 l 818 789 l 504 789 z "},"Ť":{"ha":860,"x_min":42,"x_max":818,"o":"m 818 789 l 504 789 l 504 0 l 356 0 l 356 789 l 42 789 l 42 917 l 818 917 l 818 789 m 507 1024 l 351 1024 l 203 1246 l 324 1246 l 429 1104 l 535 1246 l 656 1246 l 507 1024 z "},"Ţ":{"ha":860,"x_min":42,"x_max":818,"o":"m 504 0 q 572 -133 572 -49 q 523 -251 572 -204 q 396 -299 474 -299 q 261 -258 315 -299 l 292 -168 q 335 -191 315 -183 q 382 -199 354 -199 q 444 -174 421 -199 q 468 -107 468 -150 q 445 -49 468 -74 q 371 0 422 -25 l 356 0 l 356 789 l 42 789 l 42 917 l 818 917 l 818 789 l 504 789 l 504 0 z "},"Ț":{"ha":860,"x_min":42,"x_max":818,"o":"m 818 789 l 504 789 l 504 0 l 356 0 l 356 789 l 42 789 l 42 917 l 818 917 l 818 789 m 422 -331 l 315 -331 l 371 -99 l 515 -99 l 422 -331 z "},"Ṭ":{"ha":860,"x_min":42,"x_max":818,"o":"m 818 789 l 504 789 l 504 0 l 356 0 l 356 789 l 42 789 l 42 917 l 818 917 l 818 789 m 429 -303 q 359 -278 385 -303 q 333 -211 333 -254 q 359 -144 333 -168 q 429 -119 385 -119 q 500 -144 474 -119 q 526 -211 526 -168 q 500 -278 526 -254 q 429 -303 474 -303 z "},"Ṯ":{"ha":860,"x_min":42,"x_max":818,"o":"m 818 789 l 504 789 l 504 0 l 356 0 l 356 789 l 42 789 l 42 917 l 818 917 l 818 789 z "},"U":{"ha":985,"x_min":118,"x_max":867,"o":"m 867 351 q 772 78 867 169 q 492 -14 676 -14 q 214 78 310 -14 q 118 351 118 171 l 118 917 l 267 917 l 267 369 q 322 177 267 239 q 492 115 376 115 q 663 177 607 115 q 718 369 718 239 l 718 917 l 867 917 l 867 351 z "},"Ú":{"ha":985,"x_min":118,"x_max":867,"o":"m 867 351 q 772 78 867 169 q 492 -14 676 -14 q 214 78 310 -14 q 118 351 118 171 l 118 917 l 267 917 l 267 369 q 322 177 267 239 q 492 115 376 115 q 663 177 607 115 q 718 369 718 239 l 718 917 l 867 917 l 867 351 m 654 1217 l 533 994 l 419 994 l 510 1217 l 654 1217 z "},"Ŭ":{"ha":985,"x_min":118,"x_max":867,"o":"m 867 351 q 772 78 867 169 q 492 -14 676 -14 q 214 78 310 -14 q 118 351 118 171 l 118 917 l 267 917 l 267 369 q 322 177 267 239 q 492 115 376 115 q 663 177 607 115 q 718 369 718 239 l 718 917 l 867 917 l 867 351 z "},"Û":{"ha":985,"x_min":118,"x_max":867,"o":"m 867 351 q 772 78 867 169 q 492 -14 676 -14 q 214 78 310 -14 q 118 351 118 171 l 118 917 l 267 917 l 267 369 q 322 177 267 239 q 492 115 376 115 q 663 177 607 115 q 718 369 718 239 l 718 917 l 867 917 l 867 351 m 597 994 l 492 1136 l 386 994 l 265 994 l 414 1217 l 569 1217 l 718 994 l 597 994 z "},"Ȕ":{"ha":985,"x_min":118,"x_max":867,"o":"m 867 351 q 772 78 867 169 q 492 -14 676 -14 q 214 78 310 -14 q 118 351 118 171 l 118 917 l 267 917 l 267 369 q 322 177 267 239 q 492 115 376 115 q 663 177 607 115 q 718 369 718 239 l 718 917 l 867 917 l 867 351 m 418 994 l 304 994 l 183 1217 l 328 1217 l 418 994 m 683 994 l 569 994 l 449 1217 l 593 1217 l 683 994 z "},"Ü":{"ha":985,"x_min":118,"x_max":867,"o":"m 867 351 q 772 78 867 169 q 492 -14 676 -14 q 214 78 310 -14 q 118 351 118 171 l 118 917 l 267 917 l 267 369 q 322 177 267 239 q 492 115 376 115 q 663 177 607 115 q 718 369 718 239 l 718 917 l 867 917 l 867 351 m 351 1167 q 417 1143 393 1167 q 442 1079 442 1119 q 417 1015 442 1039 q 351 992 393 992 q 285 1015 310 992 q 261 1079 261 1039 q 285 1143 261 1119 q 351 1167 310 1167 m 632 1167 q 698 1143 674 1167 q 722 1079 722 1119 q 698 1015 722 1039 q 632 992 674 992 q 566 1015 590 992 q 542 1079 542 1039 q 566 1143 542 1119 q 632 1167 590 1167 z "},"Ụ":{"ha":985,"x_min":118,"x_max":867,"o":"m 867 351 q 772 78 867 169 q 492 -14 676 -14 q 214 78 310 -14 q 118 351 118 171 l 118 917 l 267 917 l 267 369 q 322 177 267 239 q 492 115 376 115 q 663 177 607 115 q 718 369 718 239 l 718 917 l 867 917 l 867 351 m 492 -303 q 422 -278 447 -303 q 396 -211 396 -254 q 422 -144 396 -168 q 492 -119 447 -119 q 563 -144 536 -119 q 589 -211 589 -168 q 563 -278 589 -254 q 492 -303 536 -303 z "},"Ù":{"ha":985,"x_min":118,"x_max":867,"o":"m 867 351 q 772 78 867 169 q 492 -14 676 -14 q 214 78 310 -14 q 118 351 118 171 l 118 917 l 267 917 l 267 369 q 322 177 267 239 q 492 115 376 115 q 663 177 607 115 q 718 369 718 239 l 718 917 l 867 917 l 867 351 m 564 994 l 450 994 l 329 1217 l 474 1217 l 564 994 z "},"Ủ":{"ha":985,"x_min":118,"x_max":867,"o":"m 867 351 q 772 78 867 169 q 492 -14 676 -14 q 214 78 310 -14 q 118 351 118 171 l 118 917 l 267 917 l 267 369 q 322 177 267 239 q 492 115 376 115 q 663 177 607 115 q 718 369 718 239 l 718 917 l 867 917 l 867 351 m 451 1010 q 506 1047 489 1028 q 524 1093 524 1065 q 509 1128 524 1114 q 471 1142 494 1142 q 411 1100 432 1142 l 332 1147 q 392 1215 353 1190 q 489 1239 432 1239 q 589 1203 550 1239 q 628 1113 628 1168 q 592 1018 628 1058 q 494 958 556 978 l 451 1010 z "},"Ư":{"ha":985,"x_min":118,"x_max":1015,"o":"m 1015 1065 q 977 913 1015 974 q 867 829 939 853 l 867 351 q 772 78 867 169 q 492 -14 676 -14 q 214 78 310 -14 q 118 351 118 171 l 118 917 l 267 917 l 267 369 q 322 177 267 239 q 492 115 376 115 q 663 177 607 115 q 718 369 718 239 l 718 917 l 749 917 q 859 953 826 917 q 892 1065 892 990 l 1015 1065 z "},"Ứ":{"ha":985,"x_min":118,"x_max":1015,"o":"m 1015 1065 q 977 913 1015 974 q 867 829 939 853 l 867 351 q 772 78 867 169 q 492 -14 676 -14 q 214 78 310 -14 q 118 351 118 171 l 118 917 l 267 917 l 267 369 q 322 177 267 239 q 492 115 376 115 q 663 177 607 115 q 718 369 718 239 l 718 917 l 749 917 q 859 953 826 917 q 892 1065 892 990 l 1015 1065 m 654 1217 l 533 994 l 419 994 l 510 1217 l 654 1217 z "},"Ự":{"ha":985,"x_min":118,"x_max":1015,"o":"m 1015 1065 q 977 913 1015 974 q 867 829 939 853 l 867 351 q 772 78 867 169 q 492 -14 676 -14 q 214 78 310 -14 q 118 351 118 171 l 118 917 l 267 917 l 267 369 q 322 177 267 239 q 492 115 376 115 q 663 177 607 115 q 718 369 718 239 l 718 917 l 749 917 q 859 953 826 917 q 892 1065 892 990 l 1015 1065 m 492 -303 q 422 -278 447 -303 q 396 -211 396 -254 q 422 -144 396 -168 q 492 -119 447 -119 q 563 -144 536 -119 q 589 -211 589 -168 q 563 -278 589 -254 q 492 -303 536 -303 z "},"Ừ":{"ha":985,"x_min":118,"x_max":1015,"o":"m 1015 1065 q 977 913 1015 974 q 867 829 939 853 l 867 351 q 772 78 867 169 q 492 -14 676 -14 q 214 78 310 -14 q 118 351 118 171 l 118 917 l 267 917 l 267 369 q 322 177 267 239 q 492 115 376 115 q 663 177 607 115 q 718 369 718 239 l 718 917 l 749 917 q 859 953 826 917 q 892 1065 892 990 l 1015 1065 m 564 994 l 450 994 l 329 1217 l 474 1217 l 564 994 z "},"Ử":{"ha":985,"x_min":118,"x_max":1015,"o":"m 1015 1065 q 977 913 1015 974 q 867 829 939 853 l 867 351 q 772 78 867 169 q 492 -14 676 -14 q 214 78 310 -14 q 118 351 118 171 l 118 917 l 267 917 l 267 369 q 322 177 267 239 q 492 115 376 115 q 663 177 607 115 q 718 369 718 239 l 718 917 l 749 917 q 859 953 826 917 q 892 1065 892 990 l 1015 1065 m 451 1010 q 506 1047 489 1028 q 524 1093 524 1065 q 509 1128 524 1114 q 471 1142 494 1142 q 411 1100 432 1142 l 332 1147 q 392 1215 353 1190 q 489 1239 432 1239 q 589 1203 550 1239 q 628 1113 628 1168 q 592 1018 628 1058 q 494 958 556 978 l 451 1010 z "},"Ữ":{"ha":985,"x_min":118,"x_max":1015,"o":"m 1015 1065 q 977 913 1015 974 q 867 829 939 853 l 867 351 q 772 78 867 169 q 492 -14 676 -14 q 214 78 310 -14 q 118 351 118 171 l 118 917 l 267 917 l 267 369 q 322 177 267 239 q 492 115 376 115 q 663 177 607 115 q 718 369 718 239 l 718 917 l 749 917 q 859 953 826 917 q 892 1065 892 990 l 1015 1065 m 749 1190 q 701 1044 743 1094 q 589 994 660 994 q 521 1009 549 994 q 464 1050 493 1024 q 426 1077 439 1069 q 397 1085 413 1085 q 355 1062 369 1085 q 333 993 340 1039 l 232 993 q 396 1190 244 1190 q 462 1176 435 1190 q 519 1135 489 1161 q 555 1108 542 1117 q 583 1100 568 1100 q 626 1122 611 1100 q 649 1190 640 1144 l 749 1190 z "},"Ű":{"ha":985,"x_min":118,"x_max":867,"o":"m 867 351 q 772 78 867 169 q 492 -14 676 -14 q 214 78 310 -14 q 118 351 118 171 l 118 917 l 267 917 l 267 369 q 322 177 267 239 q 492 115 376 115 q 663 177 607 115 q 718 369 718 239 l 718 917 l 867 917 l 867 351 z "},"Ȗ":{"ha":985,"x_min":118,"x_max":867,"o":"m 867 351 q 772 78 867 169 q 492 -14 676 -14 q 214 78 310 -14 q 118 351 118 171 l 118 917 l 267 917 l 267 369 q 322 177 267 239 q 492 115 376 115 q 663 177 607 115 q 718 369 718 239 l 718 917 l 867 917 l 867 351 m 597 986 q 569 1068 596 1036 q 492 1100 542 1100 q 415 1068 442 1100 q 386 986 388 1036 l 278 986 q 336 1140 278 1082 q 492 1199 394 1199 q 647 1140 589 1199 q 706 986 706 1082 l 597 986 z "},"Ū":{"ha":985,"x_min":118,"x_max":867,"o":"m 867 351 q 772 78 867 169 q 492 -14 676 -14 q 214 78 310 -14 q 118 351 118 171 l 118 917 l 267 917 l 267 369 q 322 177 267 239 q 492 115 376 115 q 663 177 607 115 q 718 369 718 239 l 718 917 l 867 917 l 867 351 m 726 1011 l 257 1011 l 257 1119 l 726 1119 l 726 1011 z "},"Ṻ":{"ha":985,"x_min":118,"x_max":867,"o":"m 867 351 q 772 78 867 169 q 492 -14 676 -14 q 214 78 310 -14 q 118 351 118 171 l 118 917 l 267 917 l 267 369 q 322 177 267 239 q 492 115 376 115 q 663 177 607 115 q 718 369 718 239 l 718 917 l 867 917 l 867 351 m 726 1011 l 257 1011 l 257 1119 l 726 1119 l 726 1011 m 351 1394 q 417 1371 393 1394 q 442 1307 442 1347 q 417 1243 442 1267 q 351 1219 393 1219 q 285 1243 310 1219 q 261 1307 261 1267 q 285 1371 261 1347 q 351 1394 310 1394 m 632 1394 q 698 1371 674 1394 q 722 1307 722 1347 q 698 1243 722 1267 q 632 1219 674 1219 q 566 1243 590 1219 q 542 1307 542 1267 q 566 1371 542 1347 q 632 1394 590 1394 z "},"Ų":{"ha":985,"x_min":118,"x_max":867,"o":"m 867 917 l 867 351 q 668 14 867 88 q 533 -56 568 -21 q 499 -137 499 -90 q 521 -190 499 -171 q 582 -208 543 -208 q 654 -194 619 -208 l 674 -281 q 561 -304 629 -304 q 436 -265 481 -304 q 392 -158 392 -225 q 468 -14 392 -67 q 208 85 297 -7 q 118 351 118 176 l 118 917 l 267 917 l 267 369 q 322 177 267 239 q 492 115 376 115 q 663 177 607 115 q 718 369 718 239 l 718 917 l 867 917 z "},"Ů":{"ha":985,"x_min":118,"x_max":867,"o":"m 867 351 q 772 78 867 169 q 492 -14 676 -14 q 214 78 310 -14 q 118 351 118 171 l 118 917 l 267 917 l 267 369 q 322 177 267 239 q 492 115 376 115 q 663 177 607 115 q 718 369 718 239 l 718 917 l 867 917 l 867 351 m 489 1285 q 619 1239 569 1285 q 668 1118 668 1193 q 619 996 668 1042 q 489 950 569 950 q 357 996 407 950 q 307 1118 307 1042 q 357 1239 307 1193 q 489 1285 407 1285 m 489 1207 q 423 1182 449 1207 q 397 1118 397 1157 q 423 1054 397 1079 q 489 1029 449 1029 q 554 1054 529 1029 q 579 1118 579 1079 q 553 1182 579 1157 q 489 1207 528 1207 z "},"Ũ":{"ha":985,"x_min":118,"x_max":867,"o":"m 867 351 q 772 78 867 169 q 492 -14 676 -14 q 214 78 310 -14 q 118 351 118 171 l 118 917 l 267 917 l 267 369 q 322 177 267 239 q 492 115 376 115 q 663 177 607 115 q 718 369 718 239 l 718 917 l 867 917 l 867 351 m 749 1190 q 701 1044 743 1094 q 589 994 660 994 q 521 1009 549 994 q 464 1050 493 1024 q 426 1077 439 1069 q 397 1085 413 1085 q 355 1062 369 1085 q 333 993 340 1039 l 232 993 q 396 1190 244 1190 q 462 1176 435 1190 q 519 1135 489 1161 q 555 1108 542 1117 q 583 1100 568 1100 q 626 1122 611 1100 q 649 1190 640 1144 l 749 1190 z "},"Ṹ":{"ha":985,"x_min":118,"x_max":867,"o":"m 867 351 q 772 78 867 169 q 492 -14 676 -14 q 214 78 310 -14 q 118 351 118 171 l 118 917 l 267 917 l 267 369 q 322 177 267 239 q 492 115 376 115 q 663 177 607 115 q 718 369 718 239 l 718 917 l 867 917 l 867 351 m 749 1190 q 701 1044 743 1094 q 589 994 660 994 q 521 1009 549 994 q 464 1050 493 1024 q 426 1077 439 1069 q 397 1085 413 1085 q 355 1062 369 1085 q 333 993 340 1039 l 232 993 q 396 1190 244 1190 q 462 1176 435 1190 q 519 1135 489 1161 q 555 1108 542 1117 q 583 1100 568 1100 q 626 1122 611 1100 q 649 1190 640 1144 l 749 1190 m 654 1496 l 533 1274 l 419 1274 l 510 1496 l 654 1496 z "},"V":{"ha":915,"x_min":31,"x_max":885,"o":"m 544 0 l 371 0 l 31 917 l 189 917 l 403 307 l 458 125 l 514 306 l 728 917 l 885 917 l 544 0 z "},"W":{"ha":1350,"x_min":39,"x_max":1311,"o":"m 39 917 l 196 917 l 401 129 l 601 917 l 754 917 l 956 128 l 1160 917 l 1311 917 l 1043 0 l 868 0 l 722 550 l 676 761 l 675 761 l 629 550 l 485 0 l 308 0 l 39 917 z "},"Ẃ":{"ha":1350,"x_min":39,"x_max":1311,"o":"m 39 917 l 196 917 l 401 129 l 601 917 l 754 917 l 956 128 l 1160 917 l 1311 917 l 1043 0 l 868 0 l 722 550 l 676 761 l 675 761 l 629 550 l 485 0 l 308 0 l 39 917 m 838 1246 l 717 1024 l 603 1024 l 693 1246 l 838 1246 z "},"Ŵ":{"ha":1350,"x_min":39,"x_max":1311,"o":"m 39 917 l 196 917 l 401 129 l 601 917 l 754 917 l 956 128 l 1160 917 l 1311 917 l 1043 0 l 868 0 l 722 550 l 676 761 l 675 761 l 629 550 l 485 0 l 308 0 l 39 917 m 781 1024 l 675 1165 l 569 1024 l 449 1024 l 597 1246 l 753 1246 l 901 1024 l 781 1024 z "},"Ẅ":{"ha":1350,"x_min":39,"x_max":1311,"o":"m 39 917 l 196 917 l 401 129 l 601 917 l 754 917 l 956 128 l 1160 917 l 1311 917 l 1043 0 l 868 0 l 722 550 l 676 761 l 675 761 l 629 550 l 485 0 l 308 0 l 39 917 m 535 1194 q 601 1171 576 1194 q 625 1107 625 1147 q 601 1043 625 1067 q 535 1019 576 1019 q 469 1043 493 1019 q 444 1107 444 1067 q 469 1171 444 1147 q 535 1194 493 1194 m 815 1194 q 881 1171 857 1194 q 906 1107 906 1147 q 881 1043 906 1067 q 815 1019 857 1019 q 749 1043 774 1019 q 725 1107 725 1067 q 749 1171 725 1147 q 815 1194 774 1194 z "},"Ẁ":{"ha":1350,"x_min":39,"x_max":1311,"o":"m 39 917 l 196 917 l 401 129 l 601 917 l 754 917 l 956 128 l 1160 917 l 1311 917 l 1043 0 l 868 0 l 722 550 l 676 761 l 675 761 l 629 550 l 485 0 l 308 0 l 39 917 m 747 1024 l 633 1024 l 513 1246 l 657 1246 l 747 1024 z "},"X":{"ha":861,"x_min":29,"x_max":826,"o":"m 651 0 l 425 353 l 200 0 l 29 0 l 347 465 l 54 917 l 229 917 l 439 583 l 651 917 l 814 917 l 517 471 l 826 0 l 651 0 z "},"Y":{"ha":829,"x_min":14,"x_max":817,"o":"m 489 351 l 489 0 l 340 0 l 340 351 l 14 917 l 179 917 l 343 622 l 415 485 l 488 622 l 650 917 l 817 917 l 489 351 z "},"Ý":{"ha":829,"x_min":14,"x_max":817,"o":"m 489 351 l 489 0 l 340 0 l 340 351 l 14 917 l 179 917 l 343 622 l 415 485 l 488 622 l 650 917 l 817 917 l 489 351 m 578 1224 l 457 1001 l 343 1001 l 433 1224 l 578 1224 z "},"Ŷ":{"ha":829,"x_min":14,"x_max":817,"o":"m 489 351 l 489 0 l 340 0 l 340 351 l 14 917 l 179 917 l 343 622 l 415 485 l 488 622 l 650 917 l 817 917 l 489 351 m 521 1001 l 415 1143 l 310 1001 l 189 1001 l 338 1224 l 493 1224 l 642 1001 l 521 1001 z "},"Ÿ":{"ha":829,"x_min":14,"x_max":817,"o":"m 489 351 l 489 0 l 340 0 l 340 351 l 14 917 l 179 917 l 343 622 l 415 485 l 488 622 l 650 917 l 817 917 l 489 351 m 275 1172 q 341 1149 317 1172 q 365 1085 365 1125 q 341 1021 365 1044 q 275 997 317 997 q 209 1021 233 997 q 185 1085 185 1044 q 209 1149 185 1125 q 275 1172 233 1172 m 556 1172 q 622 1149 597 1172 q 646 1085 646 1125 q 622 1021 646 1044 q 556 997 597 997 q 490 1021 514 997 q 465 1085 465 1044 q 490 1149 465 1125 q 556 1172 514 1172 z "},"Ẏ":{"ha":829,"x_min":14,"x_max":817,"o":"m 489 351 l 489 0 l 340 0 l 340 351 l 14 917 l 179 917 l 343 622 l 415 485 l 488 622 l 650 917 l 817 917 l 489 351 m 415 1197 q 486 1173 460 1197 q 513 1106 513 1149 q 486 1038 513 1063 q 415 1014 460 1014 q 345 1038 371 1014 q 319 1106 319 1063 q 345 1173 319 1149 q 415 1197 371 1197 z "},"Ỵ":{"ha":829,"x_min":14,"x_max":817,"o":"m 489 351 l 489 0 l 340 0 l 340 351 l 14 917 l 179 917 l 343 622 l 415 485 l 488 622 l 650 917 l 817 917 l 489 351 m 415 -303 q 345 -278 371 -303 q 319 -211 319 -254 q 345 -144 319 -168 q 415 -119 371 -119 q 486 -144 460 -119 q 513 -211 513 -168 q 486 -278 513 -254 q 415 -303 460 -303 z "},"Ỳ":{"ha":829,"x_min":14,"x_max":817,"o":"m 489 351 l 489 0 l 340 0 l 340 351 l 14 917 l 179 917 l 343 622 l 415 485 l 488 622 l 650 917 l 817 917 l 489 351 m 488 1001 l 374 1001 l 253 1224 l 397 1224 l 488 1001 z "},"Ỷ":{"ha":829,"x_min":14,"x_max":817,"o":"m 489 351 l 489 0 l 340 0 l 340 351 l 14 917 l 179 917 l 343 622 l 415 485 l 488 622 l 650 917 l 817 917 l 489 351 m 374 1017 q 428 1053 411 1035 q 446 1100 446 1072 q 431 1135 446 1121 q 393 1149 417 1149 q 333 1107 354 1149 l 254 1154 q 315 1222 275 1197 q 411 1246 354 1246 q 511 1210 472 1246 q 550 1119 550 1175 q 514 1025 550 1065 q 417 965 478 985 l 374 1017 z "},"Ȳ":{"ha":829,"x_min":14,"x_max":817,"o":"m 489 351 l 489 0 l 340 0 l 340 351 l 14 917 l 179 917 l 343 622 l 415 485 l 488 622 l 650 917 l 817 917 l 489 351 m 650 1017 l 181 1017 l 181 1125 l 650 1125 l 650 1017 z "},"Ỹ":{"ha":829,"x_min":14,"x_max":817,"o":"m 489 351 l 489 0 l 340 0 l 340 351 l 14 917 l 179 917 l 343 622 l 415 485 l 488 622 l 650 917 l 817 917 l 489 351 m 672 1196 q 625 1050 667 1100 q 513 1000 583 1000 q 444 1015 472 1000 q 388 1056 417 1029 q 349 1083 363 1075 q 321 1090 336 1090 q 278 1067 293 1090 q 257 999 264 1044 l 156 999 q 319 1196 168 1196 q 385 1181 358 1196 q 443 1140 413 1167 q 478 1114 465 1122 q 507 1106 492 1106 q 549 1128 535 1106 q 572 1196 564 1150 l 672 1196 z "},"Z":{"ha":876,"x_min":69,"x_max":810,"o":"m 810 126 l 810 0 l 69 0 l 69 121 l 624 790 l 82 790 l 82 917 l 793 917 l 793 796 l 239 126 l 810 126 z "},"Ź":{"ha":876,"x_min":69,"x_max":810,"o":"m 810 126 l 810 0 l 69 0 l 69 121 l 624 790 l 82 790 l 82 917 l 793 917 l 793 796 l 239 126 l 810 126 m 593 1246 l 472 1024 l 358 1024 l 449 1246 l 593 1246 z "},"Ž":{"ha":876,"x_min":69,"x_max":810,"o":"m 810 126 l 810 0 l 69 0 l 69 121 l 624 790 l 82 790 l 82 917 l 793 917 l 793 796 l 239 126 l 810 126 m 508 1024 l 353 1024 l 204 1246 l 325 1246 l 431 1104 l 536 1246 l 657 1246 l 508 1024 z "},"Ż":{"ha":876,"x_min":69,"x_max":810,"o":"m 810 126 l 810 0 l 69 0 l 69 121 l 624 790 l 82 790 l 82 917 l 793 917 l 793 796 l 239 126 l 810 126 m 431 1219 q 501 1195 475 1219 q 528 1128 528 1171 q 501 1060 528 1085 q 431 1036 475 1036 q 360 1060 386 1036 q 335 1128 335 1085 q 360 1195 335 1171 q 431 1219 386 1219 z "},"Ẓ":{"ha":876,"x_min":69,"x_max":810,"o":"m 810 126 l 810 0 l 69 0 l 69 121 l 624 790 l 82 790 l 82 917 l 793 917 l 793 796 l 239 126 l 810 126 m 425 -303 q 355 -278 381 -303 q 329 -211 329 -254 q 355 -144 329 -168 q 425 -119 381 -119 q 496 -144 469 -119 q 522 -211 522 -168 q 496 -278 522 -254 q 425 -303 469 -303 z "},"a":{"ha":792,"x_min":75,"x_max":764,"o":"m 715 100 q 764 107 740 100 l 756 4 q 675 -11 719 -11 q 578 15 618 -10 q 525 89 538 40 q 431 13 492 39 q 304 -14 371 -14 q 138 35 201 -14 q 75 175 75 85 q 126 301 75 251 q 269 371 176 351 l 517 419 l 517 446 q 478 553 517 514 q 374 592 440 592 q 201 468 239 592 l 76 521 q 181 658 103 608 q 379 708 260 708 q 586 645 508 708 q 664 461 664 582 l 664 151 q 715 100 664 100 m 335 101 q 465 140 413 101 q 517 257 517 179 l 517 315 l 342 279 q 253 246 281 267 q 225 186 225 225 q 255 124 225 147 q 335 101 285 101 z "},"á":{"ha":792,"x_min":75,"x_max":764,"o":"m 715 100 q 764 107 740 100 l 756 4 q 675 -11 719 -11 q 578 15 618 -10 q 525 89 538 40 q 431 13 492 39 q 304 -14 371 -14 q 138 35 201 -14 q 75 175 75 85 q 126 301 75 251 q 269 371 176 351 l 517 419 l 517 446 q 478 553 517 514 q 374 592 440 592 q 201 468 239 592 l 76 521 q 181 658 103 608 q 379 708 260 708 q 586 645 508 708 q 664 461 664 582 l 664 151 q 715 100 664 100 m 335 101 q 465 140 413 101 q 517 257 517 179 l 517 315 l 342 279 q 253 246 281 267 q 225 186 225 225 q 255 124 225 147 q 335 101 285 101 m 556 1036 l 418 803 l 304 803 l 406 1036 l 556 1036 z "},"ă":{"ha":792,"x_min":75,"x_max":764,"o":"m 715 100 q 764 107 740 100 l 756 4 q 675 -11 719 -11 q 578 15 618 -10 q 525 89 538 40 q 431 13 492 39 q 304 -14 371 -14 q 138 35 201 -14 q 75 175 75 85 q 126 301 75 251 q 269 371 176 351 l 517 419 l 517 446 q 478 553 517 514 q 374 592 440 592 q 201 468 239 592 l 76 521 q 181 658 103 608 q 379 708 260 708 q 586 645 508 708 q 664 461 664 582 l 664 151 q 715 100 664 100 m 335 101 q 465 140 413 101 q 517 257 517 179 l 517 315 l 342 279 q 253 246 281 267 q 225 186 225 225 q 255 124 225 147 q 335 101 285 101 m 597 1004 q 539 850 597 908 q 383 792 481 792 q 228 850 286 792 q 169 1004 169 908 l 278 1004 q 306 922 279 954 q 383 890 333 890 q 460 922 433 890 q 489 1004 488 954 l 597 1004 z "},"ắ":{"ha":792,"x_min":75,"x_max":764,"o":"m 415 1025 l 306 1025 l 378 1211 l 519 1211 l 415 1025 m 383 792 q 231 849 289 792 q 174 1000 174 906 l 281 1000 q 308 919 281 951 q 383 888 335 888 q 459 919 432 888 q 488 1000 486 951 l 594 1000 q 536 849 594 906 q 383 792 478 792 m 715 100 q 764 107 740 100 l 756 4 q 675 -11 719 -11 q 578 15 618 -10 q 525 89 538 40 q 431 13 492 39 q 304 -14 371 -14 q 138 35 201 -14 q 75 175 75 85 q 126 301 75 251 q 269 371 176 351 l 517 419 l 517 446 q 478 553 517 514 q 374 592 440 592 q 201 468 239 592 l 76 521 q 181 658 103 608 q 379 708 260 708 q 586 645 508 708 q 664 461 664 582 l 664 151 q 715 100 664 100 m 335 101 q 465 140 413 101 q 517 257 517 179 l 517 315 l 342 279 q 253 246 281 267 q 225 186 225 225 q 255 124 225 147 q 335 101 285 101 z "},"ặ":{"ha":792,"x_min":75,"x_max":764,"o":"m 715 100 q 764 107 740 100 l 756 4 q 675 -11 719 -11 q 578 15 618 -10 q 525 89 538 40 q 431 13 492 39 q 304 -14 371 -14 q 138 35 201 -14 q 75 175 75 85 q 126 301 75 251 q 269 371 176 351 l 517 419 l 517 446 q 478 553 517 514 q 374 592 440 592 q 201 468 239 592 l 76 521 q 181 658 103 608 q 379 708 260 708 q 586 645 508 708 q 664 461 664 582 l 664 151 q 715 100 664 100 m 335 101 q 465 140 413 101 q 517 257 517 179 l 517 315 l 342 279 q 253 246 281 267 q 225 186 225 225 q 255 124 225 147 q 335 101 285 101 m 385 -303 q 315 -278 340 -303 q 289 -211 289 -254 q 315 -144 289 -168 q 385 -119 340 -119 q 456 -144 429 -119 q 482 -211 482 -168 q 456 -278 482 -254 q 385 -303 429 -303 m 597 1004 q 539 850 597 908 q 383 792 481 792 q 228 850 286 792 q 169 1004 169 908 l 278 1004 q 306 922 279 954 q 383 890 333 890 q 460 922 433 890 q 489 1004 488 954 l 597 1004 z "},"ằ":{"ha":792,"x_min":75,"x_max":764,"o":"m 353 1025 l 249 1211 l 389 1211 l 461 1025 l 353 1025 m 383 792 q 231 849 289 792 q 174 1000 174 906 l 281 1000 q 308 919 281 951 q 383 888 335 888 q 459 919 432 888 q 488 1000 486 951 l 594 1000 q 536 849 594 906 q 383 792 478 792 m 715 100 q 764 107 740 100 l 756 4 q 675 -11 719 -11 q 578 15 618 -10 q 525 89 538 40 q 431 13 492 39 q 304 -14 371 -14 q 138 35 201 -14 q 75 175 75 85 q 126 301 75 251 q 269 371 176 351 l 517 419 l 517 446 q 478 553 517 514 q 374 592 440 592 q 201 468 239 592 l 76 521 q 181 658 103 608 q 379 708 260 708 q 586 645 508 708 q 664 461 664 582 l 664 151 q 715 100 664 100 m 335 101 q 465 140 413 101 q 517 257 517 179 l 517 315 l 342 279 q 253 246 281 267 q 225 186 225 225 q 255 124 225 147 q 335 101 285 101 z "},"ẳ":{"ha":792,"x_min":75,"x_max":764,"o":"m 363 1185 q 303 1144 325 1185 l 226 1192 q 285 1257 246 1233 q 379 1281 325 1281 q 478 1246 439 1281 q 517 1157 517 1211 q 481 1063 517 1103 q 385 1004 446 1024 l 343 1056 q 397 1092 381 1074 q 414 1138 414 1110 q 400 1172 414 1158 q 363 1185 386 1185 m 383 792 q 231 849 289 792 q 174 1000 174 906 l 281 1000 q 308 919 281 951 q 383 888 335 888 q 459 919 432 888 q 488 1000 486 951 l 594 1000 q 536 849 594 906 q 383 792 478 792 m 715 100 q 764 107 740 100 l 756 4 q 675 -11 719 -11 q 578 15 618 -10 q 525 89 538 40 q 431 13 492 39 q 304 -14 371 -14 q 138 35 201 -14 q 75 175 75 85 q 126 301 75 251 q 269 371 176 351 l 517 419 l 517 446 q 478 553 517 514 q 374 592 440 592 q 201 468 239 592 l 76 521 q 181 658 103 608 q 379 708 260 708 q 586 645 508 708 q 664 461 664 582 l 664 151 q 715 100 664 100 m 335 101 q 465 140 413 101 q 517 257 517 179 l 517 315 l 342 279 q 253 246 281 267 q 225 186 225 225 q 255 124 225 147 q 335 101 285 101 z "},"ẵ":{"ha":792,"x_min":75,"x_max":764,"o":"m 294 1128 q 256 1109 269 1128 q 235 1049 242 1090 l 138 1049 q 184 1185 143 1140 q 294 1231 225 1231 q 358 1217 332 1231 q 411 1181 383 1204 q 445 1156 433 1163 q 472 1149 457 1149 q 511 1168 497 1149 q 532 1228 525 1188 l 631 1228 q 583 1092 624 1138 q 476 1046 543 1046 q 411 1059 438 1046 q 357 1096 385 1072 q 323 1120 336 1113 q 294 1128 310 1128 m 385 888 q 460 919 433 888 q 488 1000 488 951 l 594 1000 q 537 849 594 906 q 385 792 479 792 q 232 849 290 792 q 174 1000 174 906 l 281 1000 q 309 919 282 951 q 385 888 336 888 m 715 100 q 764 107 740 100 l 756 4 q 675 -11 719 -11 q 578 15 618 -10 q 525 89 538 40 q 431 13 492 39 q 304 -14 371 -14 q 138 35 201 -14 q 75 175 75 85 q 126 301 75 251 q 269 371 176 351 l 517 419 l 517 446 q 478 553 517 514 q 374 592 440 592 q 201 468 239 592 l 76 521 q 181 658 103 608 q 379 708 260 708 q 586 645 508 708 q 664 461 664 582 l 664 151 q 715 100 664 100 m 335 101 q 465 140 413 101 q 517 257 517 179 l 517 315 l 342 279 q 253 246 281 267 q 225 186 225 225 q 255 124 225 147 q 335 101 285 101 z "},"â":{"ha":792,"x_min":75,"x_max":764,"o":"m 715 100 q 764 107 740 100 l 756 4 q 675 -11 719 -11 q 578 15 618 -10 q 525 89 538 40 q 431 13 492 39 q 304 -14 371 -14 q 138 35 201 -14 q 75 175 75 85 q 126 301 75 251 q 269 371 176 351 l 517 419 l 517 446 q 478 553 517 514 q 374 592 440 592 q 201 468 239 592 l 76 521 q 181 658 103 608 q 379 708 260 708 q 586 645 508 708 q 664 461 664 582 l 664 151 q 715 100 664 100 m 335 101 q 465 140 413 101 q 517 257 517 179 l 517 315 l 342 279 q 253 246 281 267 q 225 186 225 225 q 255 124 225 147 q 335 101 285 101 m 496 793 l 383 942 l 271 793 l 149 793 l 306 1028 l 461 1028 l 618 793 l 496 793 z "},"ấ":{"ha":792,"x_min":75,"x_max":775,"o":"m 667 950 l 564 950 l 644 1150 l 775 1150 l 667 950 m 274 792 l 153 792 l 307 1022 l 460 1022 l 614 792 l 494 792 l 383 939 l 274 792 m 664 151 q 715 100 664 100 q 764 107 740 100 l 756 4 q 675 -11 719 -11 q 578 15 618 -10 q 525 89 538 40 q 431 13 492 39 q 304 -14 371 -14 q 138 35 201 -14 q 75 175 75 85 q 126 301 75 251 q 269 371 176 351 l 517 419 l 517 446 q 478 553 517 514 q 374 592 440 592 q 201 468 239 592 l 76 521 q 181 658 103 608 q 379 708 260 708 q 586 645 508 708 q 664 461 664 582 l 664 151 m 335 101 q 465 140 413 101 q 517 257 517 179 l 517 315 l 342 279 q 253 246 281 267 q 225 186 225 225 q 255 124 225 147 q 335 101 285 101 z "},"ậ":{"ha":792,"x_min":75,"x_max":764,"o":"m 715 100 q 764 107 740 100 l 756 4 q 675 -11 719 -11 q 578 15 618 -10 q 525 89 538 40 q 431 13 492 39 q 304 -14 371 -14 q 138 35 201 -14 q 75 175 75 85 q 126 301 75 251 q 269 371 176 351 l 517 419 l 517 446 q 478 553 517 514 q 374 592 440 592 q 201 468 239 592 l 76 521 q 181 658 103 608 q 379 708 260 708 q 586 645 508 708 q 664 461 664 582 l 664 151 q 715 100 664 100 m 335 101 q 465 140 413 101 q 517 257 517 179 l 517 315 l 342 279 q 253 246 281 267 q 225 186 225 225 q 255 124 225 147 q 335 101 285 101 m 385 -303 q 315 -278 340 -303 q 289 -211 289 -254 q 315 -144 289 -168 q 385 -119 340 -119 q 456 -144 429 -119 q 482 -211 482 -168 q 456 -278 482 -254 q 385 -303 429 -303 m 496 793 l 383 942 l 271 793 l 149 793 l 306 1028 l 461 1028 l 618 793 l 496 793 z "},"ầ":{"ha":792,"x_min":75,"x_max":764,"o":"m 590 950 l 482 1150 l 613 1150 l 693 950 l 590 950 m 274 792 l 153 792 l 307 1022 l 460 1022 l 614 792 l 494 792 l 383 939 l 274 792 m 715 100 q 764 107 740 100 l 756 4 q 675 -11 719 -11 q 578 15 618 -10 q 525 89 538 40 q 431 13 492 39 q 304 -14 371 -14 q 138 35 201 -14 q 75 175 75 85 q 126 301 75 251 q 269 371 176 351 l 517 419 l 517 446 q 478 553 517 514 q 374 592 440 592 q 201 468 239 592 l 76 521 q 181 658 103 608 q 379 708 260 708 q 586 645 508 708 q 664 461 664 582 l 664 151 q 715 100 664 100 m 335 101 q 465 140 413 101 q 517 257 517 179 l 517 315 l 342 279 q 253 246 281 267 q 225 186 225 225 q 255 124 225 147 q 335 101 285 101 z "},"ẩ":{"ha":792,"x_min":75,"x_max":764,"o":"m 592 1107 q 532 1067 554 1107 l 453 1114 q 513 1181 472 1157 q 610 1204 553 1204 q 710 1169 671 1204 q 749 1078 749 1133 q 713 983 749 1024 q 615 924 676 943 l 572 975 q 628 1013 611 994 q 644 1058 644 1031 q 631 1094 644 1081 q 592 1107 617 1107 m 274 792 l 153 792 l 307 1022 l 460 1022 l 614 792 l 494 792 l 383 939 l 274 792 m 715 100 q 764 107 740 100 l 756 4 q 675 -11 719 -11 q 578 15 618 -10 q 525 89 538 40 q 431 13 492 39 q 304 -14 371 -14 q 138 35 201 -14 q 75 175 75 85 q 126 301 75 251 q 269 371 176 351 l 517 419 l 517 446 q 478 553 517 514 q 374 592 440 592 q 201 468 239 592 l 76 521 q 181 658 103 608 q 379 708 260 708 q 586 645 508 708 q 664 461 664 582 l 664 151 q 715 100 664 100 m 335 101 q 465 140 413 101 q 517 257 517 179 l 517 315 l 342 279 q 253 246 281 267 q 225 186 225 225 q 255 124 225 147 q 335 101 285 101 z "},"ẫ":{"ha":792,"x_min":75,"x_max":764,"o":"m 294 1142 q 255 1123 268 1142 q 235 1063 242 1104 l 136 1063 q 183 1199 142 1154 q 293 1244 224 1244 q 356 1231 331 1244 q 410 1194 382 1218 q 444 1169 432 1176 q 471 1163 456 1163 q 510 1181 496 1163 q 531 1242 524 1200 l 629 1242 q 583 1105 624 1150 q 475 1060 543 1060 q 410 1073 436 1060 q 357 1110 385 1086 q 323 1134 336 1126 q 294 1142 310 1142 m 460 1022 l 614 792 l 494 792 l 383 939 l 274 792 l 153 792 l 307 1022 l 460 1022 m 715 100 q 764 107 740 100 l 756 4 q 675 -11 719 -11 q 578 15 618 -10 q 525 89 538 40 q 431 13 492 39 q 304 -14 371 -14 q 138 35 201 -14 q 75 175 75 85 q 126 301 75 251 q 269 371 176 351 l 517 419 l 517 446 q 478 553 517 514 q 374 592 440 592 q 201 468 239 592 l 76 521 q 181 658 103 608 q 379 708 260 708 q 586 645 508 708 q 664 461 664 582 l 664 151 q 715 100 664 100 m 335 101 q 465 140 413 101 q 517 257 517 179 l 517 315 l 342 279 q 253 246 281 267 q 225 186 225 225 q 255 124 225 147 q 335 101 285 101 z "},"ȁ":{"ha":792,"x_min":75,"x_max":764,"o":"m 715 100 q 764 107 740 100 l 756 4 q 675 -11 719 -11 q 578 15 618 -10 q 525 89 538 40 q 431 13 492 39 q 304 -14 371 -14 q 138 35 201 -14 q 75 175 75 85 q 126 301 75 251 q 269 371 176 351 l 517 419 l 517 446 q 478 553 517 514 q 374 592 440 592 q 201 468 239 592 l 76 521 q 181 658 103 608 q 379 708 260 708 q 586 645 508 708 q 664 461 664 582 l 664 151 q 715 100 664 100 m 335 101 q 465 140 413 101 q 517 257 517 179 l 517 315 l 342 279 q 253 246 281 267 q 225 186 225 225 q 255 124 225 147 q 335 101 285 101 m 211 803 l 76 1036 l 221 1036 l 324 803 l 211 803 m 471 803 l 336 1036 l 481 1036 l 583 803 l 471 803 z "},"ä":{"ha":792,"x_min":75,"x_max":764,"o":"m 715 100 q 764 107 740 100 l 756 4 q 675 -11 719 -11 q 578 15 618 -10 q 525 89 538 40 q 431 13 492 39 q 304 -14 371 -14 q 138 35 201 -14 q 75 175 75 85 q 126 301 75 251 q 269 371 176 351 l 517 419 l 517 446 q 478 553 517 514 q 374 592 440 592 q 201 468 239 592 l 76 521 q 181 658 103 608 q 379 708 260 708 q 586 645 508 708 q 664 461 664 582 l 664 151 q 715 100 664 100 m 335 101 q 465 140 413 101 q 517 257 517 179 l 517 315 l 342 279 q 253 246 281 267 q 225 186 225 225 q 255 124 225 147 q 335 101 285 101 m 243 972 q 309 949 285 972 q 333 885 333 925 q 309 821 333 844 q 243 797 285 797 q 177 821 201 797 q 153 885 153 844 q 177 949 153 925 q 243 972 201 972 m 524 972 q 590 949 565 972 q 614 885 614 925 q 590 821 614 844 q 524 797 565 797 q 458 821 482 797 q 433 885 433 844 q 458 949 433 925 q 524 972 482 972 z "},"ạ":{"ha":792,"x_min":75,"x_max":764,"o":"m 715 100 q 764 107 740 100 l 756 4 q 675 -11 719 -11 q 578 15 618 -10 q 525 89 538 40 q 431 13 492 39 q 304 -14 371 -14 q 138 35 201 -14 q 75 175 75 85 q 126 301 75 251 q 269 371 176 351 l 517 419 l 517 446 q 478 553 517 514 q 374 592 440 592 q 201 468 239 592 l 76 521 q 181 658 103 608 q 379 708 260 708 q 586 645 508 708 q 664 461 664 582 l 664 151 q 715 100 664 100 m 335 101 q 465 140 413 101 q 517 257 517 179 l 517 315 l 342 279 q 253 246 281 267 q 225 186 225 225 q 255 124 225 147 q 335 101 285 101 m 385 -303 q 315 -278 340 -303 q 289 -211 289 -254 q 315 -144 289 -168 q 385 -119 340 -119 q 456 -144 429 -119 q 482 -211 482 -168 q 456 -278 482 -254 q 385 -303 429 -303 z "},"à":{"ha":792,"x_min":75,"x_max":764,"o":"m 715 100 q 764 107 740 100 l 756 4 q 675 -11 719 -11 q 578 15 618 -10 q 525 89 538 40 q 431 13 492 39 q 304 -14 371 -14 q 138 35 201 -14 q 75 175 75 85 q 126 301 75 251 q 269 371 176 351 l 517 419 l 517 446 q 478 553 517 514 q 374 592 440 592 q 201 468 239 592 l 76 521 q 181 658 103 608 q 379 708 260 708 q 586 645 508 708 q 664 461 664 582 l 664 151 q 715 100 664 100 m 335 101 q 465 140 413 101 q 517 257 517 179 l 517 315 l 342 279 q 253 246 281 267 q 225 186 225 225 q 255 124 225 147 q 335 101 285 101 m 451 803 l 338 803 l 200 1036 l 350 1036 l 451 803 z "},"ả":{"ha":792,"x_min":75,"x_max":764,"o":"m 715 100 q 764 107 740 100 l 756 4 q 675 -11 719 -11 q 578 15 618 -10 q 525 89 538 40 q 431 13 492 39 q 304 -14 371 -14 q 138 35 201 -14 q 75 175 75 85 q 126 301 75 251 q 269 371 176 351 l 517 419 l 517 446 q 478 553 517 514 q 374 592 440 592 q 201 468 239 592 l 76 521 q 181 658 103 608 q 379 708 260 708 q 586 645 508 708 q 664 461 664 582 l 664 151 q 715 100 664 100 m 335 101 q 465 140 413 101 q 517 257 517 179 l 517 315 l 342 279 q 253 246 281 267 q 225 186 225 225 q 255 124 225 147 q 335 101 285 101 m 329 821 q 391 858 372 840 q 410 904 410 876 q 395 942 410 926 q 354 957 381 957 q 290 913 317 957 l 214 960 q 273 1030 232 1006 q 371 1054 314 1054 q 474 1017 433 1054 q 514 924 514 981 q 476 826 514 868 q 372 760 439 785 l 329 821 z "},"ȃ":{"ha":792,"x_min":75,"x_max":764,"o":"m 715 100 q 764 107 740 100 l 756 4 q 675 -11 719 -11 q 578 15 618 -10 q 525 89 538 40 q 431 13 492 39 q 304 -14 371 -14 q 138 35 201 -14 q 75 175 75 85 q 126 301 75 251 q 269 371 176 351 l 517 419 l 517 446 q 478 553 517 514 q 374 592 440 592 q 201 468 239 592 l 76 521 q 181 658 103 608 q 379 708 260 708 q 586 645 508 708 q 664 461 664 582 l 664 151 q 715 100 664 100 m 335 101 q 465 140 413 101 q 517 257 517 179 l 517 315 l 342 279 q 253 246 281 267 q 225 186 225 225 q 255 124 225 147 q 335 101 285 101 m 489 792 q 460 874 488 842 q 383 906 433 906 q 306 874 333 906 q 278 792 279 842 l 169 792 q 228 946 169 888 q 383 1004 286 1004 q 539 946 481 1004 q 597 792 597 888 l 489 792 z "},"ā":{"ha":792,"x_min":75,"x_max":764,"o":"m 715 100 q 764 107 740 100 l 756 4 q 675 -11 719 -11 q 578 15 618 -10 q 525 89 538 40 q 431 13 492 39 q 304 -14 371 -14 q 138 35 201 -14 q 75 175 75 85 q 126 301 75 251 q 269 371 176 351 l 517 419 l 517 446 q 478 553 517 514 q 374 592 440 592 q 201 468 239 592 l 76 521 q 181 658 103 608 q 379 708 260 708 q 586 645 508 708 q 664 461 664 582 l 664 151 q 715 100 664 100 m 335 101 q 465 140 413 101 q 517 257 517 179 l 517 315 l 342 279 q 253 246 281 267 q 225 186 225 225 q 255 124 225 147 q 335 101 285 101 m 618 817 l 149 817 l 149 925 l 618 925 l 618 817 z "},"ą":{"ha":792,"x_min":75,"x_max":764,"o":"m 664 -219 q 735 -203 711 -219 l 758 -287 q 640 -314 718 -314 q 517 -275 565 -314 q 469 -171 469 -236 q 502 -71 469 -112 q 600 3 535 -29 q 525 89 542 26 q 431 13 492 39 q 304 -14 371 -14 q 138 35 201 -14 q 75 175 75 85 q 126 301 75 251 q 269 371 176 351 l 517 419 l 517 446 q 478 553 517 514 q 374 592 440 592 q 201 468 239 592 l 76 521 q 181 658 103 608 q 379 708 260 708 q 586 645 508 708 q 664 461 664 582 l 664 151 q 715 100 664 100 q 764 107 740 100 l 756 6 l 757 6 l 756 6 l 756 4 q 749 1 753 3 q 742 -1 746 0 q 617 -76 654 -40 q 581 -150 581 -112 q 603 -201 581 -182 q 664 -219 626 -219 m 335 101 q 465 140 413 101 q 517 257 517 179 l 517 315 l 342 279 q 253 246 281 267 q 225 186 225 225 q 255 124 225 147 q 335 101 285 101 z "},"å":{"ha":792,"x_min":75,"x_max":764,"o":"m 715 100 q 764 107 740 100 l 756 4 q 675 -11 719 -11 q 578 15 618 -10 q 525 89 538 40 q 431 13 492 39 q 304 -14 371 -14 q 138 35 201 -14 q 75 175 75 85 q 126 301 75 251 q 269 371 176 351 l 517 419 l 517 446 q 478 553 517 514 q 374 592 440 592 q 201 468 239 592 l 76 521 q 181 658 103 608 q 379 708 260 708 q 586 645 508 708 q 664 461 664 582 l 664 151 q 715 100 664 100 m 335 101 q 465 140 413 101 q 517 257 517 179 l 517 315 l 342 279 q 253 246 281 267 q 225 186 225 225 q 255 124 225 147 q 335 101 285 101 m 381 1124 q 510 1078 461 1124 q 560 957 560 1032 q 510 835 560 881 q 381 789 461 789 q 249 835 299 789 q 199 957 199 881 q 249 1078 199 1032 q 381 1124 299 1124 m 381 1046 q 315 1021 340 1046 q 289 957 289 996 q 315 893 289 918 q 381 868 340 868 q 446 893 421 868 q 471 957 471 918 q 445 1021 471 996 q 381 1046 419 1046 z "},"ǻ":{"ha":792,"x_min":75,"x_max":764,"o":"m 715 100 q 764 107 740 100 l 756 4 q 675 -11 719 -11 q 578 15 618 -10 q 525 89 538 40 q 431 13 492 39 q 304 -14 371 -14 q 138 35 201 -14 q 75 175 75 85 q 126 301 75 251 q 269 371 176 351 l 517 419 l 517 446 q 478 553 517 514 q 374 592 440 592 q 201 468 239 592 l 76 521 q 181 658 103 608 q 379 708 260 708 q 586 645 508 708 q 664 461 664 582 l 664 151 q 715 100 664 100 m 335 101 q 465 140 413 101 q 517 257 517 179 l 517 315 l 342 279 q 253 246 281 267 q 225 186 225 225 q 255 124 225 147 q 335 101 285 101 m 381 1124 q 510 1078 461 1124 q 560 957 560 1032 q 510 835 560 881 q 381 789 461 789 q 249 835 299 789 q 199 957 199 881 q 249 1078 199 1032 q 381 1124 299 1124 m 381 1046 q 315 1021 340 1046 q 289 957 289 996 q 315 893 289 918 q 381 868 340 868 q 446 893 421 868 q 471 957 471 918 q 445 1021 471 996 q 381 1046 419 1046 m 400 1367 l 543 1367 l 438 1176 l 326 1176 l 400 1367 z "},"ã":{"ha":792,"x_min":75,"x_max":764,"o":"m 715 100 q 764 107 740 100 l 756 4 q 675 -11 719 -11 q 578 15 618 -10 q 525 89 538 40 q 431 13 492 39 q 304 -14 371 -14 q 138 35 201 -14 q 75 175 75 85 q 126 301 75 251 q 269 371 176 351 l 517 419 l 517 446 q 478 553 517 514 q 374 592 440 592 q 201 468 239 592 l 76 521 q 181 658 103 608 q 379 708 260 708 q 586 645 508 708 q 664 461 664 582 l 664 151 q 715 100 664 100 m 335 101 q 465 140 413 101 q 517 257 517 179 l 517 315 l 342 279 q 253 246 281 267 q 225 186 225 225 q 255 124 225 147 q 335 101 285 101 m 640 996 q 593 850 635 900 q 481 800 551 800 q 413 815 440 800 q 356 856 385 829 q 317 883 331 875 q 289 890 304 890 q 247 867 261 890 q 225 799 232 844 l 124 799 q 288 996 136 996 q 353 981 326 996 q 411 940 381 967 q 447 914 433 922 q 475 906 460 906 q 517 928 503 906 q 540 996 532 950 l 640 996 z "},"æ":{"ha":1238,"x_min":74,"x_max":1165,"o":"m 1165 389 q 1160 303 1165 356 l 664 303 q 726 157 671 210 q 865 104 782 104 q 966 130 925 104 q 1035 204 1007 156 l 1153 149 q 1041 29 1117 72 q 868 -14 965 -14 q 701 24 774 -14 q 589 136 629 63 q 481 27 558 68 q 311 -14 404 -14 q 140 35 206 -14 q 74 175 74 85 q 124 302 74 253 q 265 369 174 351 l 517 419 l 517 446 q 477 553 517 514 q 374 592 438 592 q 268 562 313 592 q 201 468 224 532 l 79 521 q 182 656 103 604 q 371 708 261 708 q 517 680 456 708 q 613 593 579 651 q 719 678 656 649 q 861 708 783 708 q 1024 667 954 708 q 1129 553 1093 625 q 1165 389 1165 481 m 1021 417 q 972 544 1018 499 q 854 590 926 590 q 729 544 778 590 q 667 417 681 499 l 1021 417 m 517 315 l 342 279 q 253 247 281 268 q 226 186 226 225 q 255 125 226 149 q 338 101 283 101 q 465 140 413 101 q 517 254 517 179 l 517 315 z "},"ǽ":{"ha":1238,"x_min":74,"x_max":1165,"o":"m 1165 389 q 1160 303 1165 356 l 664 303 q 726 157 671 210 q 865 104 782 104 q 966 130 925 104 q 1035 204 1007 156 l 1153 149 q 1041 29 1117 72 q 868 -14 965 -14 q 701 24 774 -14 q 589 136 629 63 q 481 27 558 68 q 311 -14 404 -14 q 140 35 206 -14 q 74 175 74 85 q 124 302 74 253 q 265 369 174 351 l 517 419 l 517 446 q 477 553 517 514 q 374 592 438 592 q 268 562 313 592 q 201 468 224 532 l 79 521 q 182 656 103 604 q 371 708 261 708 q 517 680 456 708 q 613 593 579 651 q 719 678 656 649 q 861 708 783 708 q 1024 667 954 708 q 1129 553 1093 625 q 1165 389 1165 481 m 1021 417 q 972 544 1018 499 q 854 590 926 590 q 729 544 778 590 q 667 417 681 499 l 1021 417 m 517 315 l 342 279 q 253 247 281 268 q 226 186 226 225 q 255 125 226 149 q 338 101 283 101 q 465 140 413 101 q 517 254 517 179 l 517 315 m 788 1036 l 650 803 l 536 803 l 638 1036 l 788 1036 z "},"b":{"ha":871,"x_min":115,"x_max":796,"o":"m 492 708 q 646 665 576 708 q 756 539 715 621 q 796 346 796 457 q 756 154 796 236 q 644 29 715 72 q 488 -14 574 -14 q 346 26 408 -14 q 253 132 283 65 l 246 0 l 115 0 l 115 1007 l 264 1007 l 264 579 q 356 673 296 638 q 492 708 415 708 m 456 106 q 597 169 546 106 q 647 347 647 233 q 597 524 647 461 q 457 588 547 588 q 317 521 369 588 q 264 344 264 454 q 316 170 264 235 q 456 106 368 106 z "},"c":{"ha":781,"x_min":71,"x_max":722,"o":"m 415 708 q 608 656 533 708 q 718 514 683 604 l 578 458 q 417 590 542 590 q 271 526 322 590 q 219 346 219 463 q 272 167 219 229 q 417 104 324 104 q 531 139 488 104 q 588 239 574 174 l 722 193 q 615 41 693 96 q 419 -14 536 -14 q 238 29 317 -14 q 115 154 158 72 q 71 347 71 236 q 115 540 71 458 q 236 665 158 622 q 415 708 314 708 z "},"ć":{"ha":781,"x_min":71,"x_max":722,"o":"m 415 708 q 608 656 533 708 q 718 514 683 604 l 578 458 q 417 590 542 590 q 271 526 322 590 q 219 346 219 463 q 272 167 219 229 q 417 104 324 104 q 531 139 488 104 q 588 239 574 174 l 722 193 q 615 41 693 96 q 419 -14 536 -14 q 238 29 317 -14 q 115 154 158 72 q 71 347 71 236 q 115 540 71 458 q 236 665 158 622 q 415 708 314 708 m 579 1036 l 442 803 l 328 803 l 429 1036 l 579 1036 z "},"č":{"ha":781,"x_min":71,"x_max":722,"o":"m 415 708 q 608 656 533 708 q 718 514 683 604 l 578 458 q 417 590 542 590 q 271 526 322 590 q 219 346 219 463 q 272 167 219 229 q 417 104 324 104 q 531 139 488 104 q 588 239 574 174 l 722 193 q 615 41 693 96 q 419 -14 536 -14 q 238 29 317 -14 q 115 154 158 72 q 71 347 71 236 q 115 540 71 458 q 236 665 158 622 q 415 708 314 708 m 483 803 l 328 803 l 171 1036 l 293 1036 l 406 888 l 518 1036 l 640 1036 l 483 803 z "},"ç":{"ha":781,"x_min":71,"x_max":722,"o":"m 722 193 q 640 62 697 114 q 497 -7 582 10 q 557 -133 557 -53 q 508 -251 557 -204 q 381 -299 458 -299 q 246 -258 300 -299 l 276 -168 q 319 -191 300 -183 q 367 -199 339 -199 q 429 -174 406 -199 q 453 -107 453 -150 q 435 -56 453 -78 q 374 -11 417 -33 q 153 97 235 3 q 71 347 71 192 q 115 540 71 458 q 236 665 158 622 q 415 708 314 708 q 608 656 533 708 q 718 514 683 604 l 578 458 q 417 590 542 590 q 271 526 322 590 q 219 346 219 463 q 272 167 219 229 q 417 104 324 104 q 531 139 488 104 q 588 239 574 174 l 722 193 z "},"ḉ":{"ha":781,"x_min":71,"x_max":722,"o":"m 442 803 l 328 803 l 429 1036 l 579 1036 l 442 803 m 722 193 q 640 62 697 114 q 497 -7 582 10 q 557 -133 557 -53 q 508 -251 557 -204 q 381 -299 458 -299 q 246 -258 300 -299 l 276 -168 q 319 -191 300 -183 q 367 -199 339 -199 q 429 -174 406 -199 q 453 -107 453 -150 q 435 -56 453 -78 q 374 -11 417 -33 q 153 97 235 3 q 71 347 71 192 q 115 540 71 458 q 236 665 158 622 q 415 708 314 708 q 608 656 533 708 q 718 514 683 604 l 578 458 q 417 590 542 590 q 271 526 322 590 q 219 346 219 463 q 272 167 219 229 q 417 104 324 104 q 531 139 488 104 q 588 239 574 174 l 722 193 z "},"ĉ":{"ha":781,"x_min":71,"x_max":722,"o":"m 415 708 q 608 656 533 708 q 718 514 683 604 l 578 458 q 417 590 542 590 q 271 526 322 590 q 219 346 219 463 q 272 167 219 229 q 417 104 324 104 q 531 139 488 104 q 588 239 574 174 l 722 193 q 615 41 693 96 q 419 -14 536 -14 q 238 29 317 -14 q 115 154 158 72 q 71 347 71 236 q 115 540 71 458 q 236 665 158 622 q 415 708 314 708 m 519 793 l 407 942 l 294 793 l 172 793 l 329 1028 l 485 1028 l 642 793 l 519 793 z "},"ċ":{"ha":781,"x_min":71,"x_max":722,"o":"m 415 708 q 608 656 533 708 q 718 514 683 604 l 578 458 q 417 590 542 590 q 271 526 322 590 q 219 346 219 463 q 272 167 219 229 q 417 104 324 104 q 531 139 488 104 q 588 239 574 174 l 722 193 q 615 41 693 96 q 419 -14 536 -14 q 238 29 317 -14 q 115 154 158 72 q 71 347 71 236 q 115 540 71 458 q 236 665 158 622 q 415 708 314 708 m 407 997 q 478 973 451 997 q 504 906 504 949 q 478 838 504 863 q 407 814 451 814 q 337 838 363 814 q 311 906 311 863 q 337 973 311 949 q 407 997 363 997 z "},"d":{"ha":871,"x_min":75,"x_max":756,"o":"m 756 1007 l 756 0 l 624 0 l 615 132 q 524 25 588 64 q 382 -14 461 -14 q 226 29 296 -14 q 115 154 156 72 q 75 346 75 236 q 117 540 75 458 q 232 665 160 622 q 392 708 304 708 q 522 674 465 708 q 607 579 578 639 l 607 1007 l 756 1007 m 414 106 q 554 173 501 106 q 607 356 607 240 q 556 526 607 464 q 419 588 504 588 q 275 524 326 588 q 224 347 224 461 q 274 169 224 233 q 414 106 324 106 z "},"ð":{"ha":854,"x_min":78,"x_max":774,"o":"m 646 831 q 765 407 765 657 q 674 99 765 213 q 414 -14 583 -14 q 167 78 257 -14 q 78 332 78 169 q 120 516 78 438 q 236 636 163 594 q 404 678 310 678 q 624 582 554 678 q 522 803 596 704 l 282 743 l 261 828 l 463 871 q 272 1011 388 944 l 446 1011 q 589 899 525 964 l 751 940 l 774 858 l 646 831 m 421 104 q 568 169 514 104 q 622 332 622 235 q 571 503 622 443 q 426 563 519 563 q 281 503 332 563 q 229 332 229 443 q 280 164 229 224 q 421 104 331 104 z "},"ď":{"ha":925,"x_min":75,"x_max":985,"o":"m 607 1007 l 756 1007 l 756 0 l 624 0 l 615 132 q 524 25 588 64 q 382 -14 461 -14 q 226 29 296 -14 q 115 154 156 72 q 75 346 75 236 q 117 540 75 458 q 232 665 160 622 q 392 708 304 708 q 522 674 465 708 q 607 579 578 639 l 607 1007 m 985 1007 l 922 715 l 828 715 l 857 1007 l 985 1007 m 414 106 q 554 173 501 106 q 607 356 607 240 q 556 526 607 464 q 419 588 504 588 q 275 524 326 588 q 224 347 224 461 q 274 169 224 233 q 414 106 324 106 z "},"đ":{"ha":874,"x_min":75,"x_max":865,"o":"m 865 775 l 756 775 l 756 0 l 624 0 l 615 132 q 524 25 588 64 q 382 -14 461 -14 q 226 29 296 -14 q 115 154 156 72 q 75 346 75 236 q 117 540 75 458 q 232 665 160 622 q 392 708 304 708 q 522 674 465 708 q 607 579 578 639 l 607 775 l 403 775 l 403 874 l 607 874 l 607 1007 l 756 1007 l 756 874 l 865 874 l 865 775 m 414 106 q 554 173 501 106 q 607 356 607 240 q 556 526 607 464 q 419 588 504 588 q 275 524 326 588 q 224 347 224 461 q 274 169 224 233 q 414 106 324 106 z "},"ḍ":{"ha":871,"x_min":75,"x_max":756,"o":"m 756 1007 l 756 0 l 624 0 l 615 132 q 524 25 588 64 q 382 -14 461 -14 q 226 29 296 -14 q 115 154 156 72 q 75 346 75 236 q 117 540 75 458 q 232 665 160 622 q 392 708 304 708 q 522 674 465 708 q 607 579 578 639 l 607 1007 l 756 1007 m 414 106 q 554 173 501 106 q 607 356 607 240 q 556 526 607 464 q 419 588 504 588 q 275 524 326 588 q 224 347 224 461 q 274 169 224 233 q 414 106 324 106 m 425 -303 q 355 -278 381 -303 q 329 -211 329 -254 q 355 -144 329 -168 q 425 -119 381 -119 q 496 -144 469 -119 q 522 -211 522 -168 q 496 -278 522 -254 q 425 -303 469 -303 z "},"ḏ":{"ha":871,"x_min":75,"x_max":756,"o":"m 756 1007 l 756 0 l 624 0 l 615 132 q 524 25 588 64 q 382 -14 461 -14 q 226 29 296 -14 q 115 154 156 72 q 75 346 75 236 q 117 540 75 458 q 232 665 160 622 q 392 708 304 708 q 522 674 465 708 q 607 579 578 639 l 607 1007 l 756 1007 m 414 106 q 554 173 501 106 q 607 356 607 240 q 556 526 607 464 q 419 588 504 588 q 275 524 326 588 q 224 347 224 461 q 274 169 224 233 q 414 106 324 106 z "},"ǳ":{"ha":1606,"x_min":75,"x_max":1539,"o":"m 756 1007 l 756 0 l 624 0 l 615 132 q 524 25 588 64 q 382 -14 461 -14 q 226 29 296 -14 q 115 154 156 72 q 75 346 75 236 q 117 540 75 458 q 232 665 160 622 q 392 708 304 708 q 522 674 465 708 q 607 579 578 639 l 607 1007 l 756 1007 m 414 106 q 554 173 501 106 q 607 356 607 240 q 556 526 607 464 q 419 588 504 588 q 275 524 326 588 q 224 347 224 461 q 274 169 224 233 q 414 106 324 106 m 942 103 l 1278 494 l 1363 581 l 1242 578 l 944 578 l 944 694 l 1526 694 l 1526 592 l 1190 200 l 1107 114 l 1239 117 l 1539 117 l 1539 0 l 942 0 l 942 103 z "},"ǆ":{"ha":1606,"x_min":75,"x_max":1539,"o":"m 756 1007 l 756 0 l 624 0 l 615 132 q 524 25 588 64 q 382 -14 461 -14 q 226 29 296 -14 q 115 154 156 72 q 75 346 75 236 q 117 540 75 458 q 232 665 160 622 q 392 708 304 708 q 522 674 465 708 q 607 579 578 639 l 607 1007 l 756 1007 m 414 106 q 554 173 501 106 q 607 356 607 240 q 556 526 607 464 q 419 588 504 588 q 275 524 326 588 q 224 347 224 461 q 274 169 224 233 q 414 106 324 106 z "},"e":{"ha":803,"x_min":71,"x_max":731,"o":"m 731 389 q 725 303 731 344 l 217 303 q 279 156 226 207 q 418 104 332 104 q 528 130 485 104 q 599 204 572 156 l 717 149 q 602 29 681 72 q 421 -14 524 -14 q 238 29 317 -14 q 115 154 158 72 q 71 347 71 236 q 114 540 71 458 q 235 665 157 622 q 413 708 313 708 q 583 667 511 708 q 692 553 654 625 q 731 389 731 481 m 410 590 q 283 546 332 590 q 219 417 233 501 l 585 417 q 533 545 579 500 q 410 590 488 590 z "},"é":{"ha":803,"x_min":71,"x_max":731,"o":"m 731 389 q 725 303 731 344 l 217 303 q 279 156 226 207 q 418 104 332 104 q 528 130 485 104 q 599 204 572 156 l 717 149 q 602 29 681 72 q 421 -14 524 -14 q 238 29 317 -14 q 115 154 158 72 q 71 347 71 236 q 114 540 71 458 q 235 665 157 622 q 413 708 313 708 q 583 667 511 708 q 692 553 654 625 q 731 389 731 481 m 410 590 q 283 546 332 590 q 219 417 233 501 l 585 417 q 533 545 579 500 q 410 590 488 590 m 578 1036 l 440 803 l 326 803 l 428 1036 l 578 1036 z "},"ĕ":{"ha":803,"x_min":71,"x_max":731,"o":"m 731 389 q 725 303 731 344 l 217 303 q 279 156 226 207 q 418 104 332 104 q 528 130 485 104 q 599 204 572 156 l 717 149 q 602 29 681 72 q 421 -14 524 -14 q 238 29 317 -14 q 115 154 158 72 q 71 347 71 236 q 114 540 71 458 q 235 665 157 622 q 413 708 313 708 q 583 667 511 708 q 692 553 654 625 q 731 389 731 481 m 410 590 q 283 546 332 590 q 219 417 233 501 l 585 417 q 533 545 579 500 q 410 590 488 590 m 619 1004 q 561 850 619 908 q 406 792 503 792 q 250 850 308 792 q 192 1004 192 908 l 300 1004 q 328 922 301 954 q 406 890 356 890 q 483 922 456 890 q 511 1004 510 954 l 619 1004 z "},"ě":{"ha":803,"x_min":71,"x_max":731,"o":"m 731 389 q 725 303 731 344 l 217 303 q 279 156 226 207 q 418 104 332 104 q 528 130 485 104 q 599 204 572 156 l 717 149 q 602 29 681 72 q 421 -14 524 -14 q 238 29 317 -14 q 115 154 158 72 q 71 347 71 236 q 114 540 71 458 q 235 665 157 622 q 413 708 313 708 q 583 667 511 708 q 692 553 654 625 q 731 389 731 481 m 410 590 q 283 546 332 590 q 219 417 233 501 l 585 417 q 533 545 579 500 q 410 590 488 590 m 482 803 l 326 803 l 169 1036 l 292 1036 l 404 888 l 517 1036 l 639 1036 l 482 803 z "},"ḝ":{"ha":803,"x_min":71,"x_max":731,"o":"m 406 792 q 250 850 308 792 q 192 1004 192 908 l 300 1004 q 328 922 301 954 q 406 890 356 890 q 483 922 456 890 q 511 1004 510 954 l 619 1004 q 561 850 619 908 q 406 792 503 792 m 731 389 q 725 303 731 344 l 217 303 q 279 156 226 207 q 418 104 332 104 q 528 130 485 104 q 599 204 572 156 l 717 149 q 631 48 688 88 q 499 -7 575 8 q 558 -133 558 -53 q 509 -251 558 -204 q 382 -299 460 -299 q 247 -258 301 -299 l 278 -168 q 321 -191 301 -183 q 368 -199 340 -199 q 431 -174 407 -199 q 454 -107 454 -150 q 436 -56 454 -78 q 375 -11 418 -33 q 153 97 236 3 q 71 347 71 192 q 114 540 71 458 q 235 665 157 622 q 413 708 313 708 q 583 667 511 708 q 692 553 654 625 q 731 389 731 481 m 410 590 q 283 546 332 590 q 219 417 233 501 l 585 417 q 533 545 579 500 q 410 590 488 590 z "},"ê":{"ha":803,"x_min":71,"x_max":731,"o":"m 731 389 q 725 303 731 344 l 217 303 q 279 156 226 207 q 418 104 332 104 q 528 130 485 104 q 599 204 572 156 l 717 149 q 602 29 681 72 q 421 -14 524 -14 q 238 29 317 -14 q 115 154 158 72 q 71 347 71 236 q 114 540 71 458 q 235 665 157 622 q 413 708 313 708 q 583 667 511 708 q 692 553 654 625 q 731 389 731 481 m 410 590 q 283 546 332 590 q 219 417 233 501 l 585 417 q 533 545 579 500 q 410 590 488 590 m 518 793 l 406 942 l 293 793 l 171 793 l 328 1028 l 483 1028 l 640 793 l 518 793 z "},"ế":{"ha":803,"x_min":71,"x_max":797,"o":"m 689 950 l 586 950 l 667 1150 l 797 1150 l 689 950 m 296 792 l 175 792 l 329 1022 l 482 1022 l 636 792 l 515 792 l 406 939 l 296 792 m 413 708 q 583 667 511 708 q 692 553 654 625 q 731 389 731 481 q 725 303 731 344 l 217 303 q 279 156 226 207 q 418 104 332 104 q 528 130 485 104 q 599 204 572 156 l 717 149 q 602 29 681 72 q 421 -14 524 -14 q 238 29 317 -14 q 115 154 158 72 q 71 347 71 236 q 114 540 71 458 q 235 665 157 622 q 413 708 313 708 m 410 590 q 283 546 332 590 q 219 417 233 501 l 585 417 q 533 545 579 500 q 410 590 488 590 z "},"ệ":{"ha":803,"x_min":71,"x_max":731,"o":"m 731 389 q 725 303 731 344 l 217 303 q 279 156 226 207 q 418 104 332 104 q 528 130 485 104 q 599 204 572 156 l 717 149 q 602 29 681 72 q 421 -14 524 -14 q 238 29 317 -14 q 115 154 158 72 q 71 347 71 236 q 114 540 71 458 q 235 665 157 622 q 413 708 313 708 q 583 667 511 708 q 692 553 654 625 q 731 389 731 481 m 410 590 q 283 546 332 590 q 219 417 233 501 l 585 417 q 533 545 579 500 q 410 590 488 590 m 415 -303 q 345 -278 371 -303 q 319 -211 319 -254 q 345 -144 319 -168 q 415 -119 371 -119 q 486 -144 460 -119 q 513 -211 513 -168 q 486 -278 513 -254 q 415 -303 460 -303 m 518 793 l 406 942 l 293 793 l 171 793 l 328 1028 l 483 1028 l 640 793 l 518 793 z "},"ề":{"ha":803,"x_min":71,"x_max":731,"o":"m 613 950 l 504 1150 l 635 1150 l 715 950 l 613 950 m 296 792 l 175 792 l 329 1022 l 482 1022 l 636 792 l 515 792 l 406 939 l 296 792 m 731 389 q 725 303 731 344 l 217 303 q 279 156 226 207 q 418 104 332 104 q 528 130 485 104 q 599 204 572 156 l 717 149 q 602 29 681 72 q 421 -14 524 -14 q 238 29 317 -14 q 115 154 158 72 q 71 347 71 236 q 114 540 71 458 q 235 665 157 622 q 413 708 313 708 q 583 667 511 708 q 692 553 654 625 q 731 389 731 481 m 410 590 q 283 546 332 590 q 219 417 233 501 l 585 417 q 533 545 579 500 q 410 590 488 590 z "},"ể":{"ha":803,"x_min":71,"x_max":769,"o":"m 614 1107 q 578 1097 593 1107 q 553 1067 564 1088 l 475 1114 q 535 1181 494 1157 q 631 1204 575 1204 q 731 1169 692 1204 q 769 1078 769 1133 q 733 983 769 1024 q 636 924 697 943 l 594 975 q 650 1013 633 994 q 667 1058 667 1032 q 653 1093 667 1079 q 614 1107 639 1107 m 296 792 l 175 792 l 329 1022 l 482 1022 l 636 792 l 515 792 l 406 939 l 296 792 m 413 708 q 583 667 511 708 q 692 553 654 625 q 731 389 731 481 q 725 303 731 344 l 217 303 q 279 156 226 207 q 418 104 332 104 q 528 130 485 104 q 599 204 572 156 l 717 149 q 602 29 681 72 q 421 -14 524 -14 q 238 29 317 -14 q 115 154 158 72 q 71 347 71 236 q 114 540 71 458 q 235 665 157 622 q 413 708 313 708 m 410 590 q 283 546 332 590 q 219 417 233 501 l 585 417 q 533 545 579 500 q 410 590 488 590 z "},"ễ":{"ha":803,"x_min":71,"x_max":731,"o":"m 315 1142 q 277 1123 290 1142 q 257 1063 264 1104 l 158 1063 q 205 1199 164 1154 q 315 1244 246 1244 q 378 1231 353 1244 q 432 1194 404 1218 q 466 1169 454 1176 q 493 1163 478 1163 q 532 1181 518 1163 q 553 1242 546 1200 l 651 1242 q 606 1105 646 1150 q 497 1060 565 1060 q 433 1073 458 1060 q 379 1110 407 1086 q 345 1134 358 1126 q 315 1142 332 1142 m 482 1022 l 636 792 l 515 792 l 406 939 l 296 792 l 175 792 l 329 1022 l 482 1022 m 731 389 q 725 303 731 344 l 217 303 q 279 156 226 207 q 418 104 332 104 q 528 130 485 104 q 599 204 572 156 l 717 149 q 602 29 681 72 q 421 -14 524 -14 q 238 29 317 -14 q 115 154 158 72 q 71 347 71 236 q 114 540 71 458 q 235 665 157 622 q 413 708 313 708 q 583 667 511 708 q 692 553 654 625 q 731 389 731 481 m 410 590 q 283 546 332 590 q 219 417 233 501 l 585 417 q 533 545 579 500 q 410 590 488 590 z "},"ȅ":{"ha":803,"x_min":71,"x_max":731,"o":"m 731 389 q 725 303 731 344 l 217 303 q 279 156 226 207 q 418 104 332 104 q 528 130 485 104 q 599 204 572 156 l 717 149 q 602 29 681 72 q 421 -14 524 -14 q 238 29 317 -14 q 115 154 158 72 q 71 347 71 236 q 114 540 71 458 q 235 665 157 622 q 413 708 313 708 q 583 667 511 708 q 692 553 654 625 q 731 389 731 481 m 410 590 q 283 546 332 590 q 219 417 233 501 l 585 417 q 533 545 579 500 q 410 590 488 590 m 233 803 l 99 1036 l 243 1036 l 346 803 l 233 803 m 493 803 l 358 1036 l 503 1036 l 606 803 l 493 803 z "},"ë":{"ha":803,"x_min":71,"x_max":731,"o":"m 731 389 q 725 303 731 344 l 217 303 q 279 156 226 207 q 418 104 332 104 q 528 130 485 104 q 599 204 572 156 l 717 149 q 602 29 681 72 q 421 -14 524 -14 q 238 29 317 -14 q 115 154 158 72 q 71 347 71 236 q 114 540 71 458 q 235 665 157 622 q 413 708 313 708 q 583 667 511 708 q 692 553 654 625 q 731 389 731 481 m 410 590 q 283 546 332 590 q 219 417 233 501 l 585 417 q 533 545 579 500 q 410 590 488 590 m 265 972 q 331 949 307 972 q 356 885 356 925 q 331 821 356 844 q 265 797 307 797 q 199 821 224 797 q 175 885 175 844 q 199 949 175 925 q 265 972 224 972 m 546 972 q 612 949 588 972 q 636 885 636 925 q 612 821 636 844 q 546 797 588 797 q 480 821 504 797 q 456 885 456 844 q 480 949 456 925 q 546 972 504 972 z "},"ė":{"ha":803,"x_min":71,"x_max":731,"o":"m 731 389 q 725 303 731 344 l 217 303 q 279 156 226 207 q 418 104 332 104 q 528 130 485 104 q 599 204 572 156 l 717 149 q 602 29 681 72 q 421 -14 524 -14 q 238 29 317 -14 q 115 154 158 72 q 71 347 71 236 q 114 540 71 458 q 235 665 157 622 q 413 708 313 708 q 583 667 511 708 q 692 553 654 625 q 731 389 731 481 m 410 590 q 283 546 332 590 q 219 417 233 501 l 585 417 q 533 545 579 500 q 410 590 488 590 m 406 997 q 476 973 450 997 q 503 906 503 949 q 476 838 503 863 q 406 814 450 814 q 335 838 361 814 q 310 906 310 863 q 335 973 310 949 q 406 997 361 997 z "},"ẹ":{"ha":803,"x_min":71,"x_max":731,"o":"m 731 389 q 725 303 731 344 l 217 303 q 279 156 226 207 q 418 104 332 104 q 528 130 485 104 q 599 204 572 156 l 717 149 q 602 29 681 72 q 421 -14 524 -14 q 238 29 317 -14 q 115 154 158 72 q 71 347 71 236 q 114 540 71 458 q 235 665 157 622 q 413 708 313 708 q 583 667 511 708 q 692 553 654 625 q 731 389 731 481 m 410 590 q 283 546 332 590 q 219 417 233 501 l 585 417 q 533 545 579 500 q 410 590 488 590 m 415 -303 q 345 -278 371 -303 q 319 -211 319 -254 q 345 -144 319 -168 q 415 -119 371 -119 q 486 -144 460 -119 q 513 -211 513 -168 q 486 -278 513 -254 q 415 -303 460 -303 z "},"è":{"ha":803,"x_min":71,"x_max":731,"o":"m 731 389 q 725 303 731 344 l 217 303 q 279 156 226 207 q 418 104 332 104 q 528 130 485 104 q 599 204 572 156 l 717 149 q 602 29 681 72 q 421 -14 524 -14 q 238 29 317 -14 q 115 154 158 72 q 71 347 71 236 q 114 540 71 458 q 235 665 157 622 q 413 708 313 708 q 583 667 511 708 q 692 553 654 625 q 731 389 731 481 m 410 590 q 283 546 332 590 q 219 417 233 501 l 585 417 q 533 545 579 500 q 410 590 488 590 m 474 803 l 360 803 l 222 1036 l 372 1036 l 474 803 z "},"ẻ":{"ha":803,"x_min":71,"x_max":731,"o":"m 731 389 q 725 303 731 344 l 217 303 q 279 156 226 207 q 418 104 332 104 q 528 130 485 104 q 599 204 572 156 l 717 149 q 602 29 681 72 q 421 -14 524 -14 q 238 29 317 -14 q 115 154 158 72 q 71 347 71 236 q 114 540 71 458 q 235 665 157 622 q 413 708 313 708 q 583 667 511 708 q 692 553 654 625 q 731 389 731 481 m 410 590 q 283 546 332 590 q 219 417 233 501 l 585 417 q 533 545 579 500 q 410 590 488 590 m 350 821 q 412 858 393 840 q 431 904 431 876 q 416 942 431 926 q 375 957 401 957 q 311 913 338 957 l 235 960 q 294 1030 253 1006 q 392 1054 335 1054 q 494 1017 454 1054 q 535 924 535 981 q 497 826 535 868 q 393 760 460 785 l 350 821 z "},"ȇ":{"ha":803,"x_min":71,"x_max":731,"o":"m 731 389 q 725 303 731 344 l 217 303 q 279 156 226 207 q 418 104 332 104 q 528 130 485 104 q 599 204 572 156 l 717 149 q 602 29 681 72 q 421 -14 524 -14 q 238 29 317 -14 q 115 154 158 72 q 71 347 71 236 q 114 540 71 458 q 235 665 157 622 q 413 708 313 708 q 583 667 511 708 q 692 553 654 625 q 731 389 731 481 m 410 590 q 283 546 332 590 q 219 417 233 501 l 585 417 q 533 545 579 500 q 410 590 488 590 m 511 792 q 483 874 510 842 q 406 906 456 906 q 328 874 356 906 q 300 792 301 842 l 192 792 q 250 946 192 888 q 406 1004 308 1004 q 561 946 503 1004 q 619 792 619 888 l 511 792 z "},"ē":{"ha":803,"x_min":71,"x_max":731,"o":"m 731 389 q 725 303 731 344 l 217 303 q 279 156 226 207 q 418 104 332 104 q 528 130 485 104 q 599 204 572 156 l 717 149 q 602 29 681 72 q 421 -14 524 -14 q 238 29 317 -14 q 115 154 158 72 q 71 347 71 236 q 114 540 71 458 q 235 665 157 622 q 413 708 313 708 q 583 667 511 708 q 692 553 654 625 q 731 389 731 481 m 410 590 q 283 546 332 590 q 219 417 233 501 l 585 417 q 533 545 579 500 q 410 590 488 590 m 640 817 l 171 817 l 171 925 l 640 925 l 640 817 z "},"ḗ":{"ha":803,"x_min":71,"x_max":731,"o":"m 731 389 q 725 303 731 344 l 217 303 q 279 156 226 207 q 418 104 332 104 q 528 130 485 104 q 599 204 572 156 l 717 149 q 602 29 681 72 q 421 -14 524 -14 q 238 29 317 -14 q 115 154 158 72 q 71 347 71 236 q 114 540 71 458 q 235 665 157 622 q 413 708 313 708 q 583 667 511 708 q 692 553 654 625 q 731 389 731 481 m 410 590 q 283 546 332 590 q 219 417 233 501 l 585 417 q 533 545 579 500 q 410 590 488 590 m 640 817 l 171 817 l 171 925 l 640 925 l 640 817 m 568 1251 l 447 1029 l 333 1029 l 424 1251 l 568 1251 z "},"ḕ":{"ha":803,"x_min":71,"x_max":731,"o":"m 731 389 q 725 303 731 344 l 217 303 q 279 156 226 207 q 418 104 332 104 q 528 130 485 104 q 599 204 572 156 l 717 149 q 602 29 681 72 q 421 -14 524 -14 q 238 29 317 -14 q 115 154 158 72 q 71 347 71 236 q 114 540 71 458 q 235 665 157 622 q 413 708 313 708 q 583 667 511 708 q 692 553 654 625 q 731 389 731 481 m 410 590 q 283 546 332 590 q 219 417 233 501 l 585 417 q 533 545 579 500 q 410 590 488 590 m 640 817 l 171 817 l 171 925 l 640 925 l 640 817 m 478 1029 l 364 1029 l 243 1251 l 388 1251 l 478 1029 z "},"ę":{"ha":803,"x_min":71,"x_max":731,"o":"m 731 389 q 725 303 731 344 l 217 303 q 279 156 226 207 q 418 104 332 104 q 528 130 485 104 q 599 204 572 156 l 717 149 q 647 60 692 97 q 542 4 601 24 q 420 -63 451 -29 q 389 -142 389 -97 q 411 -195 389 -176 q 471 -214 433 -214 q 544 -199 511 -214 l 563 -286 q 451 -310 515 -310 q 326 -270 371 -310 q 281 -162 281 -231 q 302 -76 281 -112 q 369 -11 324 -39 q 151 99 232 4 q 71 347 71 194 q 114 540 71 458 q 235 665 157 622 q 413 708 313 708 q 583 667 511 708 q 692 553 654 625 q 731 389 731 481 m 410 590 q 283 546 332 590 q 219 417 233 501 l 585 417 q 533 545 579 500 q 410 590 488 590 z "},"ẽ":{"ha":803,"x_min":71,"x_max":731,"o":"m 731 389 q 725 303 731 344 l 217 303 q 279 156 226 207 q 418 104 332 104 q 528 130 485 104 q 599 204 572 156 l 717 149 q 602 29 681 72 q 421 -14 524 -14 q 238 29 317 -14 q 115 154 158 72 q 71 347 71 236 q 114 540 71 458 q 235 665 157 622 q 413 708 313 708 q 583 667 511 708 q 692 553 654 625 q 731 389 731 481 m 410 590 q 283 546 332 590 q 219 417 233 501 l 585 417 q 533 545 579 500 q 410 590 488 590 m 663 996 q 615 850 657 900 q 503 800 574 800 q 435 815 463 800 q 378 856 407 829 q 340 883 353 875 q 311 890 326 890 q 269 867 283 890 q 247 799 254 844 l 146 799 q 310 996 158 996 q 376 981 349 996 q 433 940 403 967 q 469 914 456 922 q 497 906 482 906 q 540 928 525 906 q 563 996 554 950 l 663 996 z "},"ə":{"ha":800,"x_min":71,"x_max":729,"o":"m 396 708 q 643 613 557 708 q 729 347 729 518 q 641 81 729 176 q 392 -14 553 -14 q 222 27 294 -14 q 110 140 149 68 q 71 304 71 213 q 81 389 71 349 l 583 389 q 394 590 564 590 q 288 560 335 590 q 217 478 240 531 l 92 528 q 207 660 129 613 q 396 708 285 708 m 393 104 q 524 151 475 104 q 583 286 572 197 l 218 286 q 267 153 219 201 q 393 104 314 104 z "},"f":{"ha":556,"x_min":38,"x_max":542,"o":"m 313 694 l 538 694 l 538 578 l 317 578 l 317 0 l 168 0 l 168 578 l 38 578 l 38 694 l 168 694 l 168 794 q 232 958 168 900 q 410 1017 296 1017 q 488 1008 453 1017 q 542 983 524 999 l 514 876 q 435 896 482 896 q 313 783 313 896 l 313 694 z "},"g":{"ha":750,"x_min":44,"x_max":750,"o":"m 750 725 q 645 706 683 728 q 600 638 607 683 q 674 474 674 572 q 592 303 674 368 q 374 239 510 239 q 269 250 318 239 q 200 176 200 229 q 299 108 200 108 l 507 108 q 671 62 613 108 q 729 -67 729 15 q 631 -237 729 -175 q 379 -299 533 -299 q 129 -248 214 -299 q 44 -114 44 -197 q 74 -28 44 -64 q 164 22 103 8 q 81 146 81 58 q 108 227 81 192 q 185 281 135 263 q 103 360 131 311 q 75 474 75 410 q 157 644 75 579 q 374 708 239 708 q 528 681 460 708 q 592 798 539 754 q 726 840 646 842 l 750 725 m 374 342 q 481 378 439 342 q 524 474 524 415 q 481 568 524 532 q 374 604 439 604 q 267 568 310 604 q 225 474 225 532 q 267 378 225 415 q 374 342 310 342 m 261 -14 q 195 -35 221 -14 q 169 -89 169 -56 q 225 -161 169 -135 q 379 -187 281 -187 q 546 -158 489 -187 q 603 -85 603 -129 q 576 -32 603 -50 q 485 -14 549 -14 l 261 -14 z "},"ğ":{"ha":750,"x_min":44,"x_max":756,"o":"m 388 792 q 232 850 290 792 q 174 1004 174 908 l 282 1004 q 310 922 283 954 q 388 890 338 890 q 465 922 438 890 q 493 1004 492 954 l 601 1004 q 543 850 601 908 q 388 792 485 792 m 756 725 q 608 631 618 728 q 674 474 674 568 q 592 303 674 368 q 374 239 510 239 q 269 250 318 239 q 200 176 200 229 q 299 108 200 108 l 507 108 q 671 62 613 108 q 729 -67 729 15 q 631 -237 729 -175 q 379 -299 533 -299 q 129 -248 214 -299 q 44 -114 44 -197 q 74 -28 44 -64 q 164 22 103 8 q 81 146 81 58 q 108 227 81 192 q 185 281 135 263 q 103 360 131 311 q 75 474 75 410 q 157 644 75 579 q 374 708 239 708 q 536 676 465 708 q 600 795 546 750 q 731 840 654 840 l 756 725 m 374 342 q 481 378 439 342 q 524 474 524 415 q 481 568 524 532 q 374 604 439 604 q 267 568 310 604 q 225 474 225 532 q 267 378 225 415 q 374 342 310 342 m 261 -14 q 195 -35 221 -14 q 169 -89 169 -56 q 225 -161 169 -135 q 379 -187 281 -187 q 546 -158 489 -187 q 603 -85 603 -129 q 576 -32 603 -50 q 485 -14 549 -14 l 261 -14 z "},"ǧ":{"ha":750,"x_min":44,"x_max":750,"o":"m 750 725 q 645 706 683 728 q 600 638 607 683 q 674 474 674 572 q 592 303 674 368 q 374 239 510 239 q 269 250 318 239 q 200 176 200 229 q 299 108 200 108 l 507 108 q 671 62 613 108 q 729 -67 729 15 q 631 -237 729 -175 q 379 -299 533 -299 q 129 -248 214 -299 q 44 -114 44 -197 q 74 -28 44 -64 q 164 22 103 8 q 81 146 81 58 q 108 227 81 192 q 185 281 135 263 q 103 360 131 311 q 75 474 75 410 q 157 644 75 579 q 374 708 239 708 q 528 681 460 708 q 592 798 539 754 q 726 840 646 842 l 750 725 m 374 342 q 481 378 439 342 q 524 474 524 415 q 481 568 524 532 q 374 604 439 604 q 267 568 310 604 q 225 474 225 532 q 267 378 225 415 q 374 342 310 342 m 261 -14 q 195 -35 221 -14 q 169 -89 169 -56 q 225 -161 169 -135 q 379 -187 281 -187 q 546 -158 489 -187 q 603 -85 603 -129 q 576 -32 603 -50 q 485 -14 549 -14 l 261 -14 m 444 803 l 289 803 l 132 1036 l 254 1036 l 367 888 l 479 1036 l 601 1036 l 444 803 z "},"ĝ":{"ha":750,"x_min":44,"x_max":750,"o":"m 258 793 l 146 793 l 292 1028 l 440 1028 l 585 793 l 472 793 l 365 944 l 258 793 m 507 108 q 671 62 613 108 q 729 -67 729 15 q 631 -237 729 -175 q 379 -299 533 -299 q 129 -248 214 -299 q 44 -114 44 -197 q 74 -28 44 -64 q 164 22 103 8 q 81 146 81 58 q 108 227 81 192 q 185 281 135 263 q 103 360 131 311 q 75 474 75 410 q 157 644 75 579 q 374 708 239 708 q 526 681 460 708 q 596 795 542 751 q 725 840 650 839 l 750 725 q 599 638 619 722 q 674 474 674 575 q 592 303 674 368 q 374 239 510 239 q 269 250 318 239 q 200 176 200 229 q 299 108 200 108 l 507 108 m 374 604 q 267 568 310 604 q 225 474 225 532 q 267 378 225 415 q 374 342 310 342 q 481 378 439 342 q 524 474 524 415 q 481 568 524 532 q 374 604 439 604 m 379 -187 q 546 -158 489 -187 q 603 -85 603 -129 q 576 -32 603 -50 q 485 -14 549 -14 l 261 -14 q 195 -35 221 -14 q 169 -89 169 -56 q 225 -161 169 -135 q 379 -187 281 -187 z "},"ģ":{"ha":750,"x_min":44,"x_max":750,"o":"m 750 725 q 645 706 683 728 q 600 638 607 683 q 674 474 674 572 q 592 303 674 368 q 374 239 510 239 q 269 250 318 239 q 200 176 200 229 q 299 108 200 108 l 507 108 q 671 62 613 108 q 729 -67 729 15 q 631 -237 729 -175 q 379 -299 533 -299 q 129 -248 214 -299 q 44 -114 44 -197 q 74 -28 44 -64 q 164 22 103 8 q 81 146 81 58 q 108 227 81 192 q 185 281 135 263 q 103 360 131 311 q 75 474 75 410 q 157 644 75 579 q 374 708 239 708 q 528 681 460 708 q 592 798 539 754 q 726 840 646 842 l 750 725 m 374 342 q 481 378 439 342 q 524 474 524 415 q 481 568 524 532 q 374 604 439 604 q 267 568 310 604 q 225 474 225 532 q 267 378 225 415 q 374 342 310 342 m 261 -14 q 195 -35 221 -14 q 169 -89 169 -56 q 225 -161 169 -135 q 379 -187 281 -187 q 546 -158 489 -187 q 603 -85 603 -129 q 576 -32 603 -50 q 485 -14 549 -14 l 261 -14 m 451 806 l 307 806 l 404 1078 l 507 1078 l 451 806 z "},"ġ":{"ha":750,"x_min":44,"x_max":750,"o":"m 750 725 q 645 706 683 728 q 600 638 607 683 q 674 474 674 572 q 592 303 674 368 q 374 239 510 239 q 269 250 318 239 q 200 176 200 229 q 299 108 200 108 l 507 108 q 671 62 613 108 q 729 -67 729 15 q 631 -237 729 -175 q 379 -299 533 -299 q 129 -248 214 -299 q 44 -114 44 -197 q 74 -28 44 -64 q 164 22 103 8 q 81 146 81 58 q 108 227 81 192 q 185 281 135 263 q 103 360 131 311 q 75 474 75 410 q 157 644 75 579 q 374 708 239 708 q 528 681 460 708 q 592 798 539 754 q 726 840 646 842 l 750 725 m 374 342 q 481 378 439 342 q 524 474 524 415 q 481 568 524 532 q 374 604 439 604 q 267 568 310 604 q 225 474 225 532 q 267 378 225 415 q 374 342 310 342 m 261 -14 q 195 -35 221 -14 q 169 -89 169 -56 q 225 -161 169 -135 q 379 -187 281 -187 q 546 -158 489 -187 q 603 -85 603 -129 q 576 -32 603 -50 q 485 -14 549 -14 l 261 -14 m 368 997 q 439 973 413 997 q 465 906 465 949 q 439 838 465 863 q 368 814 413 814 q 298 838 324 814 q 272 906 272 863 q 298 973 272 949 q 368 997 324 997 z "},"ḡ":{"ha":750,"x_min":44,"x_max":750,"o":"m 528 817 l 207 817 l 207 925 l 528 925 l 528 817 m 750 725 q 645 706 683 728 q 600 638 607 683 q 674 474 674 572 q 592 303 674 368 q 374 239 510 239 q 269 250 318 239 q 200 176 200 229 q 299 108 200 108 l 507 108 q 671 62 613 108 q 729 -67 729 15 q 631 -237 729 -175 q 379 -299 533 -299 q 129 -248 214 -299 q 44 -114 44 -197 q 74 -28 44 -64 q 164 22 103 8 q 81 146 81 58 q 108 227 81 192 q 185 281 135 263 q 103 360 131 311 q 75 474 75 410 q 157 644 75 579 q 374 708 239 708 q 528 681 460 708 q 592 798 539 754 q 726 840 646 842 l 750 725 m 374 342 q 481 378 439 342 q 524 474 524 415 q 481 568 524 532 q 374 604 439 604 q 267 568 310 604 q 225 474 225 532 q 267 378 225 415 q 374 342 310 342 m 261 -14 q 195 -35 221 -14 q 169 -89 169 -56 q 225 -161 169 -135 q 379 -187 281 -187 q 546 -158 489 -187 q 603 -85 603 -129 q 576 -32 603 -50 q 485 -14 549 -14 l 261 -14 z "},"h":{"ha":860,"x_min":115,"x_max":750,"o":"m 115 1007 l 264 1007 l 264 583 q 357 677 299 646 q 489 708 415 708 q 677 642 604 708 q 750 450 750 575 l 750 0 l 601 0 l 601 403 q 453 586 601 586 q 319 532 375 586 q 264 367 264 478 l 264 0 l 115 0 l 115 1007 z "},"ħ":{"ha":860,"x_min":8,"x_max":750,"o":"m 489 708 q 677 642 604 708 q 750 450 750 575 l 750 0 l 601 0 l 601 403 q 453 586 601 586 q 319 532 375 586 q 264 367 264 478 l 264 0 l 115 0 l 115 775 l 8 775 l 8 874 l 115 874 l 115 1007 l 264 1007 l 264 874 l 471 874 l 471 775 l 264 775 l 264 583 q 357 677 299 646 q 489 708 415 708 z "},"ḫ":{"ha":860,"x_min":115,"x_max":750,"o":"m 115 1007 l 264 1007 l 264 583 q 357 677 299 646 q 489 708 415 708 q 677 642 604 708 q 750 450 750 575 l 750 0 l 601 0 l 601 403 q 453 586 601 586 q 319 532 375 586 q 264 367 264 478 l 264 0 l 115 0 l 115 1007 z "},"ĥ":{"ha":860,"x_min":-36,"x_max":750,"o":"m 115 1007 l 264 1007 l 264 583 q 357 677 299 646 q 489 708 415 708 q 677 642 604 708 q 750 450 750 575 l 750 0 l 601 0 l 601 403 q 453 586 601 586 q 319 532 375 586 q 264 367 264 478 l 264 0 l 115 0 l 115 1007 m 296 1090 l 190 1232 l 85 1090 l -36 1090 l 113 1313 l 268 1313 l 417 1090 l 296 1090 z "},"ḥ":{"ha":860,"x_min":115,"x_max":750,"o":"m 115 1007 l 264 1007 l 264 583 q 357 677 299 646 q 489 708 415 708 q 677 642 604 708 q 750 450 750 575 l 750 0 l 601 0 l 601 403 q 453 586 601 586 q 319 532 375 586 q 264 367 264 478 l 264 0 l 115 0 l 115 1007 m 465 -303 q 395 -278 421 -303 q 369 -211 369 -254 q 395 -144 369 -168 q 465 -119 421 -119 q 536 -144 510 -119 q 563 -211 563 -168 q 536 -278 563 -254 q 465 -303 510 -303 z "},"i":{"ha":381,"x_min":90,"x_max":289,"o":"m 190 811 q 117 835 143 811 q 90 904 90 860 q 117 972 90 949 q 190 996 143 996 q 263 972 238 996 q 289 904 289 949 q 263 835 289 860 q 190 811 238 811 m 264 0 l 115 0 l 115 694 l 264 694 l 264 0 z "},"ı":{"ha":381,"x_min":115,"x_max":264,"o":"m 264 0 l 115 0 l 115 694 l 264 694 l 264 0 z "},"í":{"ha":381,"x_min":111,"x_max":363,"o":"m 264 0 l 115 0 l 115 694 l 264 694 l 264 0 m 363 1036 l 225 803 l 111 803 l 213 1036 l 363 1036 z "},"ĭ":{"ha":381,"x_min":-24,"x_max":404,"o":"m 264 0 l 115 0 l 115 694 l 264 694 l 264 0 m 404 1004 q 346 850 404 908 q 190 792 288 792 q 35 850 93 792 q -24 1004 -24 908 l 85 1004 q 113 922 86 954 q 190 890 140 890 q 267 922 240 890 q 296 1004 294 954 l 404 1004 z "},"î":{"ha":381,"x_min":-44,"x_max":425,"o":"m 264 0 l 115 0 l 115 694 l 264 694 l 264 0 m 303 793 l 190 942 l 78 793 l -44 793 l 113 1028 l 268 1028 l 425 793 l 303 793 z "},"ȉ":{"ha":381,"x_min":-117,"x_max":390,"o":"m 264 0 l 115 0 l 115 694 l 264 694 l 264 0 m 18 803 l -117 1036 l 28 1036 l 131 803 l 18 803 m 278 803 l 143 1036 l 288 1036 l 390 803 l 278 803 z "},"ï":{"ha":381,"x_min":-17,"x_max":397,"o":"m 72 797 q 8 821 32 797 q -17 885 -17 844 q 8 949 -17 925 q 72 974 32 974 q 138 949 114 974 q 163 885 163 925 q 138 821 163 844 q 72 797 114 797 m 308 797 q 242 821 265 797 q 218 885 218 844 q 242 950 218 926 q 308 974 267 974 q 373 949 349 974 q 397 885 397 925 q 373 821 397 844 q 308 797 349 797 m 264 0 l 115 0 l 115 694 l 264 694 l 264 0 z "},"ḯ":{"ha":381,"x_min":-40,"x_max":421,"o":"m 264 0 l 115 0 l 115 694 l 264 694 l 264 0 m 50 972 q 116 949 92 972 q 140 885 140 925 q 116 821 140 844 q 50 797 92 797 q -16 821 8 797 q -40 885 -40 844 q -16 949 -40 925 q 50 972 8 972 m 331 972 q 397 949 372 972 q 421 885 421 925 q 397 821 421 844 q 331 797 372 797 q 265 821 289 797 q 240 885 240 844 q 265 949 240 925 q 331 972 289 972 m 353 1267 l 232 1044 l 118 1044 l 208 1267 l 353 1267 z "},"ị":{"ha":381,"x_min":90,"x_max":289,"o":"m 190 811 q 117 835 143 811 q 90 904 90 860 q 117 972 90 949 q 190 996 143 996 q 263 972 238 996 q 289 904 289 949 q 263 835 289 860 q 190 811 238 811 m 264 0 l 115 0 l 115 694 l 264 694 l 264 0 m 190 -303 q 120 -278 146 -303 q 94 -211 94 -254 q 120 -144 94 -168 q 190 -119 146 -119 q 261 -144 235 -119 q 288 -211 288 -168 q 261 -278 288 -254 q 190 -303 235 -303 z "},"ì":{"ha":381,"x_min":7,"x_max":264,"o":"m 264 0 l 115 0 l 115 694 l 264 694 l 264 0 m 258 803 l 144 803 l 7 1036 l 157 1036 l 258 803 z "},"ỉ":{"ha":381,"x_min":19,"x_max":319,"o":"m 264 0 l 115 0 l 115 694 l 264 694 l 264 0 m 135 821 q 197 858 178 840 q 215 904 215 876 q 201 942 215 926 q 160 957 186 957 q 96 913 122 957 l 19 960 q 78 1030 38 1006 q 176 1054 119 1054 q 279 1017 239 1054 q 319 924 319 981 q 282 826 319 868 q 178 760 244 785 l 135 821 z "},"ȋ":{"ha":381,"x_min":-24,"x_max":404,"o":"m 264 0 l 115 0 l 115 694 l 264 694 l 264 0 m 296 792 q 267 874 294 842 q 190 906 240 906 q 113 874 140 906 q 85 792 86 842 l -24 792 q 35 946 -24 888 q 190 1004 93 1004 q 346 946 288 1004 q 404 792 404 888 l 296 792 z "},"ĳ":{"ha":760,"x_min":90,"x_max":669,"o":"m 190 811 q 117 835 143 811 q 90 904 90 860 q 117 972 90 949 q 190 996 143 996 q 263 972 238 996 q 289 904 289 949 q 263 835 289 860 q 190 811 238 811 m 264 0 l 115 0 l 115 694 l 264 694 l 264 0 m 571 811 q 497 835 524 811 q 471 904 471 860 q 497 972 471 949 q 571 996 524 996 q 644 972 618 996 q 669 904 669 949 q 644 835 669 860 q 571 811 618 811 m 644 -61 q 580 -242 644 -185 q 417 -299 515 -299 q 264 -253 326 -299 l 290 -133 q 397 -172 338 -172 q 496 -47 496 -172 l 496 694 l 644 694 l 644 -61 z "},"ī":{"ha":381,"x_min":32,"x_max":347,"o":"m 347 817 l 32 817 l 32 925 l 347 925 l 347 817 m 264 0 l 115 0 l 115 694 l 264 694 l 264 0 z "},"į":{"ha":381,"x_min":1,"x_max":289,"o":"m 190 811 q 117 835 143 811 q 90 904 90 860 q 117 972 90 949 q 190 996 143 996 q 263 972 238 996 q 289 904 289 949 q 263 835 289 860 q 190 811 238 811 m 194 -224 q 260 -210 236 -224 l 285 -293 q 169 -319 239 -319 q 49 -281 97 -319 q 1 -174 1 -243 q 31 -74 1 -115 q 117 0 60 -33 l 115 0 l 115 694 l 264 694 l 264 0 q 151 -78 185 -42 q 117 -154 117 -115 q 137 -205 117 -186 q 194 -224 157 -224 z "},"ĩ":{"ha":381,"x_min":-69,"x_max":447,"o":"m 264 0 l 115 0 l 115 694 l 264 694 l 264 0 m 447 996 q 400 850 442 900 q 288 800 358 800 q 219 815 247 800 q 163 856 192 829 q 124 883 138 875 q 96 890 111 890 q 53 867 68 890 q 32 799 39 844 l -69 799 q 94 996 -57 996 q 160 981 133 996 q 218 940 188 967 q 253 914 240 922 q 282 906 267 906 q 324 928 310 906 q 347 996 339 950 l 447 996 z "},"j":{"ha":381,"x_min":-117,"x_max":289,"o":"m 190 811 q 117 835 143 811 q 90 904 90 860 q 117 972 90 949 q 190 996 143 996 q 263 972 238 996 q 289 904 289 949 q 263 835 289 860 q 190 811 238 811 m 264 -61 q 199 -242 264 -185 q 36 -299 135 -299 q -117 -253 -54 -299 l -90 -133 q 17 -172 -43 -172 q 115 -47 115 -172 l 115 694 l 264 694 l 264 -61 z "},"ȷ":{"ha":381,"x_min":-117,"x_max":264,"o":"m 264 -61 q 199 -242 264 -185 q 36 -299 135 -299 q -117 -253 -54 -299 l -90 -133 q 17 -172 -43 -172 q 115 -47 115 -172 l 115 694 l 264 694 l 264 -61 z "},"ĵ":{"ha":381,"x_min":-117,"x_max":425,"o":"m 264 -61 q 199 -242 264 -185 q 36 -299 135 -299 q -117 -253 -54 -299 l -90 -133 q 17 -172 -43 -172 q 115 -47 115 -172 l 115 694 l 264 694 l 264 -61 m 303 793 l 190 942 l 78 793 l -44 793 l 113 1028 l 268 1028 l 425 793 l 303 793 z "},"k":{"ha":810,"x_min":115,"x_max":788,"o":"m 401 326 l 264 183 l 264 0 l 115 0 l 115 1007 l 264 1007 l 264 354 l 594 694 l 771 694 l 506 422 l 788 0 l 615 0 l 401 326 z "},"ķ":{"ha":810,"x_min":115,"x_max":788,"o":"m 401 326 l 264 183 l 264 0 l 115 0 l 115 1007 l 264 1007 l 264 354 l 594 694 l 771 694 l 506 422 l 788 0 l 615 0 l 401 326 m 422 -331 l 315 -331 l 371 -99 l 515 -99 l 422 -331 z "},"ĸ":{"ha":810,"x_min":115,"x_max":788,"o":"m 401 326 l 264 183 l 264 0 l 115 0 l 115 694 l 264 694 l 264 354 l 596 694 l 771 694 l 506 422 l 788 0 l 615 0 l 401 326 z "},"l":{"ha":433,"x_min":111,"x_max":424,"o":"m 260 194 q 278 124 260 144 q 338 104 296 104 q 381 108 364 104 q 424 121 397 111 l 407 10 q 292 -14 360 -14 q 155 33 199 -14 q 111 182 111 81 l 111 1007 l 260 1007 l 260 194 z "},"ĺ":{"ha":433,"x_min":104,"x_max":424,"o":"m 260 194 q 278 124 260 144 q 338 104 296 104 q 381 108 364 104 q 424 121 397 111 l 407 10 q 292 -14 360 -14 q 155 33 199 -14 q 111 182 111 81 l 111 1007 l 260 1007 l 260 194 m 178 1288 l 321 1288 l 215 1097 l 104 1097 l 178 1288 z "},"ľ":{"ha":469,"x_min":111,"x_max":488,"o":"m 260 194 q 278 124 260 144 q 338 104 296 104 q 381 108 364 104 q 424 121 397 111 l 407 10 q 292 -14 360 -14 q 155 33 199 -14 q 111 182 111 81 l 111 1007 l 260 1007 l 260 194 m 425 715 l 331 715 l 360 1007 l 488 1007 l 425 715 z "},"ļ":{"ha":433,"x_min":111,"x_max":424,"o":"m 260 194 q 278 124 260 144 q 338 104 296 104 q 381 108 364 104 q 424 121 397 111 l 407 10 q 292 -14 360 -14 q 155 33 199 -14 q 111 182 111 81 l 111 1007 l 260 1007 l 260 194 m 254 -331 l 147 -331 l 203 -99 l 347 -99 l 254 -331 z "},"ŀ":{"ha":603,"x_min":111,"x_max":593,"o":"m 260 194 q 278 124 260 144 q 338 104 296 104 q 381 108 364 104 q 424 121 397 111 l 407 10 q 292 -14 360 -14 q 155 33 199 -14 q 111 182 111 81 l 111 1007 l 260 1007 l 260 194 z "},"ḷ":{"ha":433,"x_min":111,"x_max":424,"o":"m 260 194 q 278 124 260 144 q 338 104 296 104 q 381 108 364 104 q 424 121 397 111 l 407 10 q 292 -14 360 -14 q 155 33 199 -14 q 111 182 111 81 l 111 1007 l 260 1007 l 260 194 m 275 -303 q 205 -278 231 -303 q 179 -211 179 -254 q 205 -144 179 -168 q 275 -119 231 -119 q 346 -144 319 -119 q 372 -211 372 -168 q 346 -278 372 -254 q 275 -303 319 -303 z "},"ǉ":{"ha":814,"x_min":111,"x_max":722,"o":"m 260 194 q 278 124 260 144 q 338 104 296 104 q 381 108 364 104 q 424 121 397 111 l 407 10 q 292 -14 360 -14 q 155 33 199 -14 q 111 182 111 81 l 111 1007 l 260 1007 l 260 194 m 624 811 q 550 835 576 811 q 524 904 524 860 q 550 972 524 949 q 624 996 576 996 q 697 972 671 996 q 722 904 722 949 q 697 835 722 860 q 624 811 671 811 m 697 -61 q 633 -242 697 -185 q 469 -299 568 -299 q 317 -253 379 -299 l 343 -133 q 450 -172 390 -172 q 549 -47 549 -172 l 549 694 l 697 694 l 697 -61 z "},"ḻ":{"ha":433,"x_min":106,"x_max":443,"o":"m 260 194 q 278 124 260 144 q 338 104 296 104 q 381 108 364 104 q 424 121 397 111 l 407 10 q 292 -14 360 -14 q 155 33 199 -14 q 111 182 111 81 l 111 1007 l 260 1007 l 260 194 m 443 -231 l 106 -231 l 106 -122 l 443 -122 l 443 -231 z "},"ł":{"ha":532,"x_min":47,"x_max":489,"o":"m 403 104 q 446 108 429 104 q 489 121 463 111 l 471 10 q 356 -14 426 -14 q 220 33 264 -14 q 176 182 176 81 l 176 379 l 47 300 l 47 429 l 176 510 l 176 1007 l 325 1007 l 325 596 l 485 699 l 485 568 l 325 467 l 325 194 q 343 124 325 144 q 403 104 361 104 z "},"m":{"ha":1318,"x_min":115,"x_max":1208,"o":"m 115 694 l 247 694 l 254 578 q 349 676 289 643 q 479 708 408 708 q 619 674 557 708 q 713 572 681 639 q 810 673 743 638 q 953 708 878 708 q 1081 680 1022 708 q 1174 593 1139 651 q 1208 450 1208 535 l 1208 0 l 1060 0 l 1060 426 q 1021 547 1060 508 q 917 586 982 586 q 788 531 840 586 q 736 378 736 475 l 736 0 l 588 0 l 588 426 q 549 547 588 508 q 444 586 510 586 q 358 563 400 586 q 290 492 317 540 q 264 369 264 443 l 264 0 l 115 0 l 115 694 z "},"ṃ":{"ha":1318,"x_min":115,"x_max":1208,"o":"m 115 694 l 247 694 l 254 578 q 349 676 289 643 q 479 708 408 708 q 619 674 557 708 q 713 572 681 639 q 810 673 743 638 q 953 708 878 708 q 1081 680 1022 708 q 1174 593 1139 651 q 1208 450 1208 535 l 1208 0 l 1060 0 l 1060 426 q 1021 547 1060 508 q 917 586 982 586 q 788 531 840 586 q 736 378 736 475 l 736 0 l 588 0 l 588 426 q 549 547 588 508 q 444 586 510 586 q 358 563 400 586 q 290 492 317 540 q 264 369 264 443 l 264 0 l 115 0 l 115 694 m 663 -303 q 592 -278 618 -303 q 567 -211 567 -254 q 592 -144 567 -168 q 663 -119 618 -119 q 733 -144 707 -119 q 760 -211 760 -168 q 733 -278 760 -254 q 663 -303 707 -303 z "},"n":{"ha":860,"x_min":115,"x_max":750,"o":"m 489 708 q 677 642 604 708 q 750 450 750 575 l 750 0 l 601 0 l 601 404 q 453 586 601 586 q 319 533 375 586 q 264 369 264 479 l 264 0 l 115 0 l 115 694 l 247 694 l 254 574 q 349 675 288 642 q 489 708 410 708 z "},"ń":{"ha":860,"x_min":115,"x_max":750,"o":"m 489 708 q 677 642 604 708 q 750 450 750 575 l 750 0 l 601 0 l 601 404 q 453 586 601 586 q 319 533 375 586 q 264 369 264 479 l 264 0 l 115 0 l 115 694 l 247 694 l 254 574 q 349 675 288 642 q 489 708 410 708 m 611 1036 l 474 803 l 360 803 l 461 1036 l 611 1036 z "},"ň":{"ha":860,"x_min":115,"x_max":750,"o":"m 489 708 q 677 642 604 708 q 750 450 750 575 l 750 0 l 601 0 l 601 404 q 453 586 601 586 q 319 533 375 586 q 264 369 264 479 l 264 0 l 115 0 l 115 694 l 247 694 l 254 574 q 349 675 288 642 q 489 708 410 708 m 515 803 l 360 803 l 203 1036 l 325 1036 l 438 888 l 550 1036 l 672 1036 l 515 803 z "},"ņ":{"ha":860,"x_min":115,"x_max":750,"o":"m 489 708 q 677 642 604 708 q 750 450 750 575 l 750 0 l 601 0 l 601 404 q 453 586 601 586 q 319 533 375 586 q 264 369 264 479 l 264 0 l 115 0 l 115 694 l 247 694 l 254 574 q 349 675 288 642 q 489 708 410 708 m 444 -331 l 338 -331 l 393 -99 l 538 -99 l 444 -331 z "},"ṅ":{"ha":860,"x_min":115,"x_max":750,"o":"m 489 708 q 677 642 604 708 q 750 450 750 575 l 750 0 l 601 0 l 601 404 q 453 586 601 586 q 319 533 375 586 q 264 369 264 479 l 264 0 l 115 0 l 115 694 l 247 694 l 254 574 q 349 675 288 642 q 489 708 410 708 m 439 997 q 510 973 483 997 q 536 906 536 949 q 510 838 536 863 q 439 814 483 814 q 369 838 394 814 q 343 906 343 863 q 369 973 343 949 q 439 997 394 997 z "},"ṇ":{"ha":860,"x_min":115,"x_max":750,"o":"m 489 708 q 677 642 604 708 q 750 450 750 575 l 750 0 l 601 0 l 601 404 q 453 586 601 586 q 319 533 375 586 q 264 369 264 479 l 264 0 l 115 0 l 115 694 l 247 694 l 254 574 q 349 675 288 642 q 489 708 410 708 m 465 -303 q 395 -278 421 -303 q 369 -211 369 -254 q 395 -144 369 -168 q 465 -119 421 -119 q 536 -144 510 -119 q 563 -211 563 -168 q 536 -278 563 -254 q 465 -303 510 -303 z "},"ŋ":{"ha":860,"x_min":115,"x_max":750,"o":"m 489 708 q 677 642 604 708 q 750 450 750 575 l 750 -57 q 685 -241 750 -183 q 524 -299 621 -299 q 369 -253 432 -299 l 396 -133 q 503 -172 443 -172 q 601 -47 601 -172 l 601 404 q 453 586 601 586 q 319 533 375 586 q 264 369 264 479 l 264 0 l 115 0 l 115 694 l 247 694 l 254 574 q 349 675 288 642 q 489 708 410 708 z "},"ǌ":{"ha":1240,"x_min":115,"x_max":1149,"o":"m 489 708 q 677 642 604 708 q 750 450 750 575 l 750 0 l 601 0 l 601 404 q 453 586 601 586 q 319 533 375 586 q 264 369 264 479 l 264 0 l 115 0 l 115 694 l 247 694 l 254 574 q 349 675 288 642 q 489 708 410 708 m 1050 811 q 976 835 1003 811 q 950 904 950 860 q 976 972 950 949 q 1050 996 1003 996 q 1123 972 1097 996 q 1149 904 1149 949 q 1123 835 1149 860 q 1050 811 1097 811 m 1124 -61 q 1059 -242 1124 -185 q 896 -299 994 -299 q 743 -253 806 -299 l 769 -133 q 876 -172 817 -172 q 975 -47 975 -172 l 975 694 l 1124 694 l 1124 -61 z "},"ṉ":{"ha":860,"x_min":115,"x_max":750,"o":"m 489 708 q 677 642 604 708 q 750 450 750 575 l 750 0 l 601 0 l 601 404 q 453 586 601 586 q 319 533 375 586 q 264 369 264 479 l 264 0 l 115 0 l 115 694 l 247 694 l 254 574 q 349 675 288 642 q 489 708 410 708 z "},"ñ":{"ha":860,"x_min":115,"x_max":750,"o":"m 489 708 q 677 642 604 708 q 750 450 750 575 l 750 0 l 601 0 l 601 404 q 453 586 601 586 q 319 533 375 586 q 264 369 264 479 l 264 0 l 115 0 l 115 694 l 247 694 l 254 574 q 349 675 288 642 q 489 708 410 708 m 696 996 q 649 850 690 900 q 536 800 607 800 q 468 815 496 800 q 411 856 440 829 q 373 883 386 875 q 344 890 360 890 q 302 867 317 890 q 281 799 288 844 l 179 799 q 343 996 192 996 q 409 981 382 996 q 467 940 436 967 q 502 914 489 922 q 531 906 515 906 q 573 928 558 906 q 596 996 588 950 l 696 996 z "},"o":{"ha":833,"x_min":71,"x_max":761,"o":"m 417 708 q 596 665 518 708 q 717 540 674 622 q 761 347 761 458 q 717 154 761 236 q 596 29 674 72 q 417 -14 518 -14 q 237 29 315 -14 q 115 154 158 72 q 71 347 71 236 q 115 540 71 458 q 237 665 158 622 q 417 708 315 708 m 417 592 q 272 528 324 592 q 219 347 219 464 q 272 167 219 231 q 417 103 324 103 q 560 167 508 103 q 613 347 613 231 q 560 528 613 464 q 417 592 508 592 z "},"ó":{"ha":833,"x_min":71,"x_max":761,"o":"m 417 708 q 596 665 518 708 q 717 540 674 622 q 761 347 761 458 q 717 154 761 236 q 596 29 674 72 q 417 -14 518 -14 q 237 29 315 -14 q 115 154 158 72 q 71 347 71 236 q 115 540 71 458 q 237 665 158 622 q 417 708 315 708 m 417 592 q 272 528 324 592 q 219 347 219 464 q 272 167 219 231 q 417 103 324 103 q 560 167 508 103 q 613 347 613 231 q 560 528 613 464 q 417 592 508 592 m 589 1036 l 451 803 l 338 803 l 439 1036 l 589 1036 z "},"ŏ":{"ha":833,"x_min":71,"x_max":761,"o":"m 417 708 q 596 665 518 708 q 717 540 674 622 q 761 347 761 458 q 717 154 761 236 q 596 29 674 72 q 417 -14 518 -14 q 237 29 315 -14 q 115 154 158 72 q 71 347 71 236 q 115 540 71 458 q 237 665 158 622 q 417 708 315 708 m 417 592 q 272 528 324 592 q 219 347 219 464 q 272 167 219 231 q 417 103 324 103 q 560 167 508 103 q 613 347 613 231 q 560 528 613 464 q 417 592 508 592 m 631 1004 q 572 850 631 908 q 417 792 514 792 q 261 850 319 792 q 203 1004 203 908 l 311 1004 q 340 922 313 954 q 417 890 367 890 q 494 922 467 890 q 522 1004 521 954 l 631 1004 z "},"ô":{"ha":833,"x_min":71,"x_max":761,"o":"m 417 708 q 596 665 518 708 q 717 540 674 622 q 761 347 761 458 q 717 154 761 236 q 596 29 674 72 q 417 -14 518 -14 q 237 29 315 -14 q 115 154 158 72 q 71 347 71 236 q 115 540 71 458 q 237 665 158 622 q 417 708 315 708 m 417 592 q 272 528 324 592 q 219 347 219 464 q 272 167 219 231 q 417 103 324 103 q 560 167 508 103 q 613 347 613 231 q 560 528 613 464 q 417 592 508 592 m 529 793 l 417 942 l 304 793 l 182 793 l 339 1028 l 494 1028 l 651 793 l 529 793 z "},"ố":{"ha":833,"x_min":71,"x_max":808,"o":"m 808 1150 l 699 950 l 597 950 l 678 1150 l 808 1150 m 526 792 l 417 939 l 306 792 l 186 792 l 340 1022 l 493 1022 l 647 792 l 526 792 m 417 708 q 596 665 518 708 q 717 540 674 622 q 761 347 761 458 q 717 154 761 236 q 596 29 674 72 q 417 -14 518 -14 q 237 29 315 -14 q 115 154 158 72 q 71 347 71 236 q 115 540 71 458 q 237 665 158 622 q 417 708 315 708 m 417 592 q 272 528 324 592 q 219 347 219 464 q 272 167 219 231 q 417 103 324 103 q 560 167 508 103 q 613 347 613 231 q 560 528 613 464 q 417 592 508 592 z "},"ộ":{"ha":833,"x_min":71,"x_max":761,"o":"m 417 708 q 596 665 518 708 q 717 540 674 622 q 761 347 761 458 q 717 154 761 236 q 596 29 674 72 q 417 -14 518 -14 q 237 29 315 -14 q 115 154 158 72 q 71 347 71 236 q 115 540 71 458 q 237 665 158 622 q 417 708 315 708 m 417 592 q 272 528 324 592 q 219 347 219 464 q 272 167 219 231 q 417 103 324 103 q 560 167 508 103 q 613 347 613 231 q 560 528 613 464 q 417 592 508 592 m 417 -303 q 347 -278 372 -303 q 321 -211 321 -254 q 347 -144 321 -168 q 417 -119 372 -119 q 488 -144 461 -119 q 514 -211 514 -168 q 488 -278 514 -254 q 417 -303 461 -303 m 529 793 l 417 942 l 304 793 l 182 793 l 339 1028 l 494 1028 l 651 793 l 529 793 z "},"ồ":{"ha":833,"x_min":71,"x_max":761,"o":"m 726 950 l 624 950 l 515 1150 l 646 1150 l 726 950 m 526 792 l 417 939 l 306 792 l 186 792 l 340 1022 l 493 1022 l 647 792 l 526 792 m 417 708 q 596 665 518 708 q 717 540 674 622 q 761 347 761 458 q 717 154 761 236 q 596 29 674 72 q 417 -14 518 -14 q 237 29 315 -14 q 115 154 158 72 q 71 347 71 236 q 115 540 71 458 q 237 665 158 622 q 417 708 315 708 m 417 592 q 272 528 324 592 q 219 347 219 464 q 272 167 219 231 q 417 103 324 103 q 560 167 508 103 q 613 347 613 231 q 560 528 613 464 q 417 592 508 592 z "},"ổ":{"ha":833,"x_min":71,"x_max":781,"o":"m 606 975 q 660 1013 643 994 q 676 1058 676 1031 q 663 1094 676 1081 q 625 1107 650 1107 q 590 1097 604 1107 q 564 1067 575 1088 l 486 1114 q 546 1181 506 1157 q 642 1204 586 1204 q 742 1169 703 1204 q 781 1078 781 1133 q 744 983 781 1024 q 647 924 708 943 l 606 975 m 526 792 l 417 939 l 306 792 l 186 792 l 340 1022 l 493 1022 l 647 792 l 526 792 m 417 708 q 596 665 518 708 q 717 540 674 622 q 761 347 761 458 q 717 154 761 236 q 596 29 674 72 q 417 -14 518 -14 q 237 29 315 -14 q 115 154 158 72 q 71 347 71 236 q 115 540 71 458 q 237 665 158 622 q 417 708 315 708 m 417 592 q 272 528 324 592 q 219 347 219 464 q 272 167 219 231 q 417 103 324 103 q 560 167 508 103 q 613 347 613 231 q 560 528 613 464 q 417 592 508 592 z "},"ỗ":{"ha":833,"x_min":71,"x_max":761,"o":"m 663 1242 q 615 1105 656 1150 q 508 1060 575 1060 q 443 1073 469 1060 q 389 1110 417 1086 q 355 1134 368 1126 q 326 1142 342 1142 q 288 1123 301 1142 q 267 1063 274 1104 l 169 1063 q 216 1199 175 1154 q 326 1244 257 1244 q 390 1231 364 1244 q 443 1194 415 1218 q 477 1169 465 1176 q 504 1163 489 1163 q 543 1181 529 1163 q 564 1242 557 1200 l 663 1242 m 526 792 l 417 939 l 306 792 l 186 792 l 340 1022 l 493 1022 l 647 792 l 526 792 m 417 708 q 596 665 518 708 q 717 540 674 622 q 761 347 761 458 q 717 154 761 236 q 596 29 674 72 q 417 -14 518 -14 q 237 29 315 -14 q 115 154 158 72 q 71 347 71 236 q 115 540 71 458 q 237 665 158 622 q 417 708 315 708 m 417 592 q 272 528 324 592 q 219 347 219 464 q 272 167 219 231 q 417 103 324 103 q 560 167 508 103 q 613 347 613 231 q 560 528 613 464 q 417 592 508 592 z "},"ȍ":{"ha":833,"x_min":71,"x_max":761,"o":"m 417 708 q 596 665 518 708 q 717 540 674 622 q 761 347 761 458 q 717 154 761 236 q 596 29 674 72 q 417 -14 518 -14 q 237 29 315 -14 q 115 154 158 72 q 71 347 71 236 q 115 540 71 458 q 237 665 158 622 q 417 708 315 708 m 417 592 q 272 528 324 592 q 219 347 219 464 q 272 167 219 231 q 417 103 324 103 q 560 167 508 103 q 613 347 613 231 q 560 528 613 464 q 417 592 508 592 m 244 803 l 110 1036 l 254 1036 l 357 803 l 244 803 m 504 803 l 369 1036 l 514 1036 l 617 803 l 504 803 z "},"ö":{"ha":833,"x_min":71,"x_max":761,"o":"m 417 708 q 596 665 518 708 q 717 540 674 622 q 761 347 761 458 q 717 154 761 236 q 596 29 674 72 q 417 -14 518 -14 q 237 29 315 -14 q 115 154 158 72 q 71 347 71 236 q 115 540 71 458 q 237 665 158 622 q 417 708 315 708 m 417 592 q 272 528 324 592 q 219 347 219 464 q 272 167 219 231 q 417 103 324 103 q 560 167 508 103 q 613 347 613 231 q 560 528 613 464 q 417 592 508 592 m 276 972 q 342 949 318 972 q 367 885 367 925 q 342 821 367 844 q 276 797 318 797 q 210 821 235 797 q 186 885 186 844 q 210 949 186 925 q 276 972 235 972 m 557 972 q 623 949 599 972 q 647 885 647 925 q 623 821 647 844 q 557 797 599 797 q 491 821 515 797 q 467 885 467 844 q 491 949 467 925 q 557 972 515 972 z "},"ȫ":{"ha":833,"x_min":71,"x_max":761,"o":"m 417 708 q 596 665 518 708 q 717 540 674 622 q 761 347 761 458 q 717 154 761 236 q 596 29 674 72 q 417 -14 518 -14 q 237 29 315 -14 q 115 154 158 72 q 71 347 71 236 q 115 540 71 458 q 237 665 158 622 q 417 708 315 708 m 417 592 q 272 528 324 592 q 219 347 219 464 q 272 167 219 231 q 417 103 324 103 q 560 167 508 103 q 613 347 613 231 q 560 528 613 464 q 417 592 508 592 m 276 972 q 342 949 318 972 q 367 885 367 925 q 342 821 367 844 q 276 797 318 797 q 210 821 235 797 q 186 885 186 844 q 210 949 186 925 q 276 972 235 972 m 557 972 q 623 949 599 972 q 647 885 647 925 q 623 821 647 844 q 557 797 599 797 q 491 821 515 797 q 467 885 467 844 q 491 949 467 925 q 557 972 515 972 m 651 1060 l 182 1060 l 182 1168 l 651 1168 l 651 1060 z "},"ȱ":{"ha":833,"x_min":71,"x_max":761,"o":"m 417 708 q 596 665 518 708 q 717 540 674 622 q 761 347 761 458 q 717 154 761 236 q 596 29 674 72 q 417 -14 518 -14 q 237 29 315 -14 q 115 154 158 72 q 71 347 71 236 q 115 540 71 458 q 237 665 158 622 q 417 708 315 708 m 417 592 q 272 528 324 592 q 219 347 219 464 q 272 167 219 231 q 417 103 324 103 q 560 167 508 103 q 613 347 613 231 q 560 528 613 464 q 417 592 508 592 m 417 997 q 488 973 461 997 q 514 906 514 949 q 488 838 514 863 q 417 814 461 814 q 347 838 372 814 q 321 906 321 863 q 347 973 321 949 q 417 997 372 997 m 651 1083 l 182 1083 l 182 1192 l 651 1192 l 651 1083 z "},"ọ":{"ha":833,"x_min":71,"x_max":761,"o":"m 417 708 q 596 665 518 708 q 717 540 674 622 q 761 347 761 458 q 717 154 761 236 q 596 29 674 72 q 417 -14 518 -14 q 237 29 315 -14 q 115 154 158 72 q 71 347 71 236 q 115 540 71 458 q 237 665 158 622 q 417 708 315 708 m 417 592 q 272 528 324 592 q 219 347 219 464 q 272 167 219 231 q 417 103 324 103 q 560 167 508 103 q 613 347 613 231 q 560 528 613 464 q 417 592 508 592 m 417 -303 q 347 -278 372 -303 q 321 -211 321 -254 q 347 -144 321 -168 q 417 -119 372 -119 q 488 -144 461 -119 q 514 -211 514 -168 q 488 -278 514 -254 q 417 -303 461 -303 z "},"ò":{"ha":833,"x_min":71,"x_max":761,"o":"m 417 708 q 596 665 518 708 q 717 540 674 622 q 761 347 761 458 q 717 154 761 236 q 596 29 674 72 q 417 -14 518 -14 q 237 29 315 -14 q 115 154 158 72 q 71 347 71 236 q 115 540 71 458 q 237 665 158 622 q 417 708 315 708 m 417 592 q 272 528 324 592 q 219 347 219 464 q 272 167 219 231 q 417 103 324 103 q 560 167 508 103 q 613 347 613 231 q 560 528 613 464 q 417 592 508 592 m 485 803 l 371 803 l 233 1036 l 383 1036 l 485 803 z "},"ỏ":{"ha":833,"x_min":71,"x_max":761,"o":"m 417 708 q 596 665 518 708 q 717 540 674 622 q 761 347 761 458 q 717 154 761 236 q 596 29 674 72 q 417 -14 518 -14 q 237 29 315 -14 q 115 154 158 72 q 71 347 71 236 q 115 540 71 458 q 237 665 158 622 q 417 708 315 708 m 417 592 q 272 528 324 592 q 219 347 219 464 q 272 167 219 231 q 417 103 324 103 q 560 167 508 103 q 613 347 613 231 q 560 528 613 464 q 417 592 508 592 m 361 821 q 423 858 404 840 q 442 904 442 876 q 427 942 442 926 q 386 957 413 957 q 322 913 349 957 l 246 960 q 305 1030 264 1006 q 403 1054 346 1054 q 506 1017 465 1054 q 546 924 546 981 q 508 826 546 868 q 404 760 471 785 l 361 821 z "},"ơ":{"ha":833,"x_min":71,"x_max":761,"o":"m 649 629 q 732 510 703 582 q 761 347 761 439 q 717 154 761 236 q 596 29 674 72 q 417 -14 518 -14 q 237 29 315 -14 q 115 154 158 72 q 71 347 71 236 q 115 540 71 458 q 237 665 158 622 q 417 708 315 708 q 524 694 476 708 q 610 734 579 694 q 640 856 640 774 l 756 856 q 649 629 756 688 m 417 103 q 560 167 508 103 q 613 347 613 231 q 560 528 613 464 q 417 592 508 592 q 272 528 324 592 q 219 347 219 464 q 272 167 219 231 q 417 103 324 103 z "},"ớ":{"ha":833,"x_min":71,"x_max":761,"o":"m 649 629 q 732 510 703 582 q 761 347 761 439 q 717 154 761 236 q 596 29 674 72 q 417 -14 518 -14 q 237 29 315 -14 q 115 154 158 72 q 71 347 71 236 q 115 540 71 458 q 237 665 158 622 q 417 708 315 708 q 524 694 476 708 q 610 734 579 694 q 640 856 640 774 l 756 856 q 649 629 756 688 m 417 103 q 560 167 508 103 q 613 347 613 231 q 560 528 613 464 q 417 592 508 592 q 272 528 324 592 q 219 347 219 464 q 272 167 219 231 q 417 103 324 103 m 589 1036 l 451 803 l 338 803 l 439 1036 l 589 1036 z "},"ợ":{"ha":833,"x_min":71,"x_max":761,"o":"m 649 629 q 732 510 703 582 q 761 347 761 439 q 717 154 761 236 q 596 29 674 72 q 417 -14 518 -14 q 237 29 315 -14 q 115 154 158 72 q 71 347 71 236 q 115 540 71 458 q 237 665 158 622 q 417 708 315 708 q 524 694 476 708 q 610 734 579 694 q 640 856 640 774 l 756 856 q 649 629 756 688 m 417 103 q 560 167 508 103 q 613 347 613 231 q 560 528 613 464 q 417 592 508 592 q 272 528 324 592 q 219 347 219 464 q 272 167 219 231 q 417 103 324 103 m 417 -303 q 347 -278 372 -303 q 321 -211 321 -254 q 347 -144 321 -168 q 417 -119 372 -119 q 488 -144 461 -119 q 514 -211 514 -168 q 488 -278 514 -254 q 417 -303 461 -303 z "},"ờ":{"ha":833,"x_min":71,"x_max":761,"o":"m 649 629 q 732 510 703 582 q 761 347 761 439 q 717 154 761 236 q 596 29 674 72 q 417 -14 518 -14 q 237 29 315 -14 q 115 154 158 72 q 71 347 71 236 q 115 540 71 458 q 237 665 158 622 q 417 708 315 708 q 524 694 476 708 q 610 734 579 694 q 640 856 640 774 l 756 856 q 649 629 756 688 m 417 103 q 560 167 508 103 q 613 347 613 231 q 560 528 613 464 q 417 592 508 592 q 272 528 324 592 q 219 347 219 464 q 272 167 219 231 q 417 103 324 103 m 485 803 l 371 803 l 233 1036 l 383 1036 l 485 803 z "},"ở":{"ha":833,"x_min":71,"x_max":761,"o":"m 649 629 q 732 510 703 582 q 761 347 761 439 q 717 154 761 236 q 596 29 674 72 q 417 -14 518 -14 q 237 29 315 -14 q 115 154 158 72 q 71 347 71 236 q 115 540 71 458 q 237 665 158 622 q 417 708 315 708 q 524 694 476 708 q 610 734 579 694 q 640 856 640 774 l 756 856 q 649 629 756 688 m 417 103 q 560 167 508 103 q 613 347 613 231 q 560 528 613 464 q 417 592 508 592 q 272 528 324 592 q 219 347 219 464 q 272 167 219 231 q 417 103 324 103 m 361 821 q 423 858 404 840 q 442 904 442 876 q 427 942 442 926 q 386 957 413 957 q 322 913 349 957 l 246 960 q 305 1030 264 1006 q 403 1054 346 1054 q 506 1017 465 1054 q 546 924 546 981 q 508 826 546 868 q 404 760 471 785 l 361 821 z "},"ỡ":{"ha":833,"x_min":71,"x_max":761,"o":"m 649 629 q 732 510 703 582 q 761 347 761 439 q 717 154 761 236 q 596 29 674 72 q 417 -14 518 -14 q 237 29 315 -14 q 115 154 158 72 q 71 347 71 236 q 115 540 71 458 q 237 665 158 622 q 417 708 315 708 q 524 694 476 708 q 610 734 579 694 q 640 856 640 774 l 756 856 q 649 629 756 688 m 417 103 q 560 167 508 103 q 613 347 613 231 q 560 528 613 464 q 417 592 508 592 q 272 528 324 592 q 219 347 219 464 q 272 167 219 231 q 417 103 324 103 m 643 996 q 596 850 638 900 q 483 800 554 800 q 415 815 443 800 q 358 856 388 829 q 320 883 333 875 q 292 890 307 890 q 249 867 264 890 q 228 799 235 844 l 126 799 q 290 996 139 996 q 356 981 329 996 q 414 940 383 967 q 449 914 436 922 q 478 906 463 906 q 520 928 506 906 q 543 996 535 950 l 643 996 z "},"ő":{"ha":833,"x_min":71,"x_max":761,"o":"m 417 708 q 596 665 518 708 q 717 540 674 622 q 761 347 761 458 q 717 154 761 236 q 596 29 674 72 q 417 -14 518 -14 q 237 29 315 -14 q 115 154 158 72 q 71 347 71 236 q 115 540 71 458 q 237 665 158 622 q 417 708 315 708 m 417 592 q 272 528 324 592 q 219 347 219 464 q 272 167 219 231 q 417 103 324 103 q 560 167 508 103 q 613 347 613 231 q 560 528 613 464 q 417 592 508 592 m 308 1036 l 453 1036 l 318 803 l 206 803 l 308 1036 m 568 1036 l 713 1036 l 576 803 l 465 803 l 568 1036 z "},"ȏ":{"ha":833,"x_min":71,"x_max":761,"o":"m 417 708 q 596 665 518 708 q 717 540 674 622 q 761 347 761 458 q 717 154 761 236 q 596 29 674 72 q 417 -14 518 -14 q 237 29 315 -14 q 115 154 158 72 q 71 347 71 236 q 115 540 71 458 q 237 665 158 622 q 417 708 315 708 m 417 592 q 272 528 324 592 q 219 347 219 464 q 272 167 219 231 q 417 103 324 103 q 560 167 508 103 q 613 347 613 231 q 560 528 613 464 q 417 592 508 592 m 522 792 q 494 874 521 842 q 417 906 467 906 q 340 874 367 906 q 311 792 313 842 l 203 792 q 261 946 203 888 q 417 1004 319 1004 q 572 946 514 1004 q 631 792 631 888 l 522 792 z "},"ō":{"ha":833,"x_min":71,"x_max":761,"o":"m 417 708 q 596 665 518 708 q 717 540 674 622 q 761 347 761 458 q 717 154 761 236 q 596 29 674 72 q 417 -14 518 -14 q 237 29 315 -14 q 115 154 158 72 q 71 347 71 236 q 115 540 71 458 q 237 665 158 622 q 417 708 315 708 m 417 592 q 272 528 324 592 q 219 347 219 464 q 272 167 219 231 q 417 103 324 103 q 560 167 508 103 q 613 347 613 231 q 560 528 613 464 q 417 592 508 592 m 651 817 l 182 817 l 182 925 l 651 925 l 651 817 z "},"ṓ":{"ha":833,"x_min":71,"x_max":761,"o":"m 417 708 q 596 665 518 708 q 717 540 674 622 q 761 347 761 458 q 717 154 761 236 q 596 29 674 72 q 417 -14 518 -14 q 237 29 315 -14 q 115 154 158 72 q 71 347 71 236 q 115 540 71 458 q 237 665 158 622 q 417 708 315 708 m 417 592 q 272 528 324 592 q 219 347 219 464 q 272 167 219 231 q 417 103 324 103 q 560 167 508 103 q 613 347 613 231 q 560 528 613 464 q 417 592 508 592 m 651 817 l 182 817 l 182 925 l 651 925 l 651 817 m 579 1251 l 458 1029 l 344 1029 l 435 1251 l 579 1251 z "},"ṑ":{"ha":833,"x_min":71,"x_max":761,"o":"m 417 708 q 596 665 518 708 q 717 540 674 622 q 761 347 761 458 q 717 154 761 236 q 596 29 674 72 q 417 -14 518 -14 q 237 29 315 -14 q 115 154 158 72 q 71 347 71 236 q 115 540 71 458 q 237 665 158 622 q 417 708 315 708 m 417 592 q 272 528 324 592 q 219 347 219 464 q 272 167 219 231 q 417 103 324 103 q 560 167 508 103 q 613 347 613 231 q 560 528 613 464 q 417 592 508 592 m 651 817 l 182 817 l 182 925 l 651 925 l 651 817 m 489 1029 l 375 1029 l 254 1251 l 399 1251 l 489 1029 z "},"ǫ":{"ha":833,"x_min":71,"x_max":761,"o":"m 761 347 q 711 143 761 228 q 574 18 661 58 q 533 3 551 8 q 431 -60 457 -28 q 404 -135 404 -92 q 426 -187 404 -168 q 488 -206 449 -206 q 560 -190 526 -206 l 579 -278 q 467 -301 529 -301 q 342 -262 386 -301 q 297 -156 297 -222 q 316 -74 297 -108 q 372 -11 335 -39 q 153 98 235 3 q 71 347 71 193 q 115 540 71 458 q 237 665 158 622 q 417 708 315 708 q 596 665 518 708 q 717 540 674 622 q 761 347 761 458 m 417 103 q 560 167 508 103 q 613 347 613 231 q 560 528 613 464 q 417 592 508 592 q 272 528 324 592 q 219 347 219 464 q 272 167 219 231 q 417 103 324 103 z "},"ø":{"ha":833,"x_min":71,"x_max":761,"o":"m 660 618 q 735 502 708 571 q 761 347 761 433 q 717 154 761 236 q 596 29 674 72 q 417 -14 518 -14 q 210 46 294 -14 l 89 -39 l 174 76 q 71 347 71 175 q 115 540 71 458 q 237 665 158 622 q 417 708 315 708 q 624 647 539 708 l 744 733 l 660 618 m 219 347 q 256 189 219 250 l 526 560 q 417 592 479 592 q 272 528 324 592 q 219 347 219 464 m 417 103 q 560 167 508 103 q 613 347 613 231 q 578 504 613 442 l 307 133 q 417 103 353 103 z "},"ǿ":{"ha":833,"x_min":71,"x_max":761,"o":"m 660 618 q 735 502 708 571 q 761 347 761 433 q 717 154 761 236 q 596 29 674 72 q 417 -14 518 -14 q 210 46 294 -14 l 89 -39 l 174 76 q 71 347 71 175 q 115 540 71 458 q 237 665 158 622 q 417 708 315 708 q 624 647 539 708 l 744 733 l 660 618 m 219 347 q 256 189 219 250 l 526 560 q 417 592 479 592 q 272 528 324 592 q 219 347 219 464 m 417 103 q 560 167 508 103 q 613 347 613 231 q 578 504 613 442 l 307 133 q 417 103 353 103 m 589 1036 l 451 803 l 338 803 l 439 1036 l 589 1036 z "},"õ":{"ha":833,"x_min":71,"x_max":761,"o":"m 417 708 q 596 665 518 708 q 717 540 674 622 q 761 347 761 458 q 717 154 761 236 q 596 29 674 72 q 417 -14 518 -14 q 237 29 315 -14 q 115 154 158 72 q 71 347 71 236 q 115 540 71 458 q 237 665 158 622 q 417 708 315 708 m 417 592 q 272 528 324 592 q 219 347 219 464 q 272 167 219 231 q 417 103 324 103 q 560 167 508 103 q 613 347 613 231 q 560 528 613 464 q 417 592 508 592 m 674 996 q 626 850 668 900 q 514 800 585 800 q 446 815 474 800 q 389 856 418 829 q 351 883 364 875 q 322 890 338 890 q 280 867 294 890 q 258 799 265 844 l 157 799 q 321 996 169 996 q 387 981 360 996 q 444 940 414 967 q 480 914 467 922 q 508 906 493 906 q 551 928 536 906 q 574 996 565 950 l 674 996 z "},"ṍ":{"ha":833,"x_min":71,"x_max":761,"o":"m 417 708 q 596 665 518 708 q 717 540 674 622 q 761 347 761 458 q 717 154 761 236 q 596 29 674 72 q 417 -14 518 -14 q 237 29 315 -14 q 115 154 158 72 q 71 347 71 236 q 115 540 71 458 q 237 665 158 622 q 417 708 315 708 m 417 592 q 272 528 324 592 q 219 347 219 464 q 272 167 219 231 q 417 103 324 103 q 560 167 508 103 q 613 347 613 231 q 560 528 613 464 q 417 592 508 592 m 674 996 q 626 850 668 900 q 514 800 585 800 q 446 815 474 800 q 389 856 418 829 q 351 883 364 875 q 322 890 338 890 q 280 867 294 890 q 258 799 265 844 l 157 799 q 321 996 169 996 q 387 981 360 996 q 444 940 414 967 q 480 914 467 922 q 508 906 493 906 q 551 928 536 906 q 574 996 565 950 l 674 996 m 578 1301 l 457 1079 l 343 1079 l 433 1301 l 578 1301 z "},"ṏ":{"ha":833,"x_min":71,"x_max":761,"o":"m 417 708 q 596 665 518 708 q 717 540 674 622 q 761 347 761 458 q 717 154 761 236 q 596 29 674 72 q 417 -14 518 -14 q 237 29 315 -14 q 115 154 158 72 q 71 347 71 236 q 115 540 71 458 q 237 665 158 622 q 417 708 315 708 m 417 592 q 272 528 324 592 q 219 347 219 464 q 272 167 219 231 q 417 103 324 103 q 560 167 508 103 q 613 347 613 231 q 560 528 613 464 q 417 592 508 592 m 674 996 q 626 850 668 900 q 514 800 585 800 q 446 815 474 800 q 389 856 418 829 q 351 883 364 875 q 322 890 338 890 q 280 867 294 890 q 258 799 265 844 l 157 799 q 321 996 169 996 q 387 981 360 996 q 444 940 414 967 q 480 914 467 922 q 508 906 493 906 q 551 928 536 906 q 574 996 565 950 l 674 996 m 275 1250 q 341 1226 317 1250 q 365 1163 365 1203 q 341 1099 365 1122 q 275 1075 317 1075 q 209 1099 233 1075 q 185 1163 185 1122 q 209 1226 185 1203 q 275 1250 233 1250 m 556 1250 q 622 1226 597 1250 q 646 1163 646 1203 q 622 1099 646 1122 q 556 1075 597 1075 q 490 1099 514 1075 q 465 1163 465 1122 q 490 1226 465 1203 q 556 1250 514 1250 z "},"ȭ":{"ha":833,"x_min":71,"x_max":761,"o":"m 417 708 q 596 665 518 708 q 717 540 674 622 q 761 347 761 458 q 717 154 761 236 q 596 29 674 72 q 417 -14 518 -14 q 237 29 315 -14 q 115 154 158 72 q 71 347 71 236 q 115 540 71 458 q 237 665 158 622 q 417 708 315 708 m 417 592 q 272 528 324 592 q 219 347 219 464 q 272 167 219 231 q 417 103 324 103 q 560 167 508 103 q 613 347 613 231 q 560 528 613 464 q 417 592 508 592 m 674 996 q 626 850 668 900 q 514 800 585 800 q 446 815 474 800 q 389 856 418 829 q 351 883 364 875 q 322 890 338 890 q 280 867 294 890 q 258 799 265 844 l 157 799 q 321 996 169 996 q 387 981 360 996 q 444 940 414 967 q 480 914 467 922 q 508 906 493 906 q 551 928 536 906 q 574 996 565 950 l 674 996 m 650 1094 l 181 1094 l 181 1203 l 650 1203 l 650 1094 z "},"œ":{"ha":1347,"x_min":71,"x_max":1275,"o":"m 1275 389 q 1269 310 1275 349 l 760 310 q 822 157 768 210 q 964 104 875 104 q 1143 204 1090 104 l 1261 149 q 1147 29 1225 72 q 965 -14 1069 -14 q 802 23 874 -14 q 688 132 731 60 q 574 23 646 60 q 413 -14 503 -14 q 237 30 314 -14 q 115 155 160 74 q 71 347 71 236 q 115 540 71 458 q 237 665 160 621 q 413 708 314 708 q 574 672 503 708 q 688 563 644 635 q 801 671 731 633 q 960 708 871 708 q 1128 667 1057 708 q 1238 553 1200 625 q 1275 389 1275 481 m 417 103 q 560 167 508 103 q 613 347 613 231 q 560 528 613 464 q 417 592 508 592 q 272 528 324 592 q 219 347 219 464 q 272 167 219 231 q 417 103 324 103 m 1131 413 q 1080 544 1128 497 q 954 590 1032 590 q 827 544 876 590 q 764 413 778 499 l 1131 413 z "},"p":{"ha":871,"x_min":115,"x_max":796,"o":"m 492 708 q 646 665 576 708 q 756 540 715 622 q 796 349 796 458 q 755 156 796 238 q 644 30 714 74 q 488 -14 574 -14 q 354 21 413 -14 q 264 114 296 56 l 264 -292 l 115 -292 l 115 694 l 247 694 l 254 565 q 349 669 286 631 q 492 708 411 708 m 456 107 q 597 170 546 107 q 647 347 647 233 q 597 525 647 461 q 458 589 547 589 q 317 524 371 589 q 264 347 264 458 q 316 172 264 238 q 456 107 368 107 z "},"þ":{"ha":871,"x_min":115,"x_max":796,"o":"m 492 708 q 646 665 576 708 q 756 539 715 621 q 796 346 796 457 q 755 155 796 236 q 644 30 714 74 q 488 -14 574 -14 q 354 21 413 -14 q 264 114 296 56 l 264 -292 l 115 -292 l 115 1007 l 264 1007 l 264 579 q 356 673 296 638 q 492 708 415 708 m 456 107 q 597 170 546 107 q 647 347 647 233 q 597 525 647 461 q 458 589 547 589 q 317 524 371 589 q 264 347 264 458 q 316 172 264 238 q 456 107 368 107 z "},"q":{"ha":871,"x_min":75,"x_max":756,"o":"m 756 694 l 756 -292 l 607 -292 l 607 118 q 517 21 578 56 q 382 -14 457 -14 q 226 30 296 -14 q 115 156 156 74 q 75 349 75 238 q 117 541 75 460 q 232 665 160 622 q 392 708 304 708 q 527 671 467 708 q 617 569 588 633 l 624 694 l 756 694 m 414 107 q 554 172 501 107 q 607 350 607 238 q 556 526 607 464 q 417 589 504 589 q 275 525 326 589 q 224 347 224 461 q 274 170 224 233 q 414 107 324 107 z "},"r":{"ha":575,"x_min":115,"x_max":550,"o":"m 115 694 l 242 694 l 256 569 q 474 708 314 708 q 550 694 522 708 l 529 564 q 444 576 494 576 q 357 553 399 576 q 290 482 315 529 q 264 368 264 435 l 264 0 l 115 0 l 115 694 z "},"ŕ":{"ha":575,"x_min":115,"x_max":550,"o":"m 115 694 l 242 694 l 256 569 q 474 708 314 708 q 550 694 522 708 l 529 564 q 444 576 494 576 q 357 553 399 576 q 290 482 315 529 q 264 368 264 435 l 264 0 l 115 0 l 115 694 m 503 1036 l 365 803 l 251 803 l 353 1036 l 503 1036 z "},"ř":{"ha":575,"x_min":94,"x_max":564,"o":"m 115 694 l 242 694 l 256 569 q 474 708 314 708 q 550 694 522 708 l 529 564 q 444 576 494 576 q 357 553 399 576 q 290 482 315 529 q 264 368 264 435 l 264 0 l 115 0 l 115 694 m 407 803 l 251 803 l 94 1036 l 217 1036 l 329 888 l 442 1036 l 564 1036 l 407 803 z "},"ŗ":{"ha":575,"x_min":63,"x_max":550,"o":"m 115 694 l 242 694 l 256 569 q 474 708 314 708 q 550 694 522 708 l 529 564 q 444 576 494 576 q 357 553 399 576 q 290 482 315 529 q 264 368 264 435 l 264 0 l 115 0 l 115 694 m 169 -331 l 63 -331 l 118 -99 l 263 -99 l 169 -331 z "},"ȑ":{"ha":575,"x_min":24,"x_max":550,"o":"m 115 694 l 242 694 l 256 569 q 474 708 314 708 q 550 694 522 708 l 529 564 q 444 576 494 576 q 357 553 399 576 q 290 482 315 529 q 264 368 264 435 l 264 0 l 115 0 l 115 694 m 158 803 l 24 1036 l 168 1036 l 271 803 l 158 803 m 418 803 l 283 1036 l 428 1036 l 531 803 l 418 803 z "},"ṛ":{"ha":575,"x_min":94,"x_max":550,"o":"m 115 694 l 242 694 l 256 569 q 474 708 314 708 q 550 694 522 708 l 529 564 q 444 576 494 576 q 357 553 399 576 q 290 482 315 529 q 264 368 264 435 l 264 0 l 115 0 l 115 694 m 190 -303 q 120 -278 146 -303 q 94 -211 94 -254 q 120 -144 94 -168 q 190 -119 146 -119 q 261 -144 235 -119 q 288 -211 288 -168 q 261 -278 288 -254 q 190 -303 235 -303 z "},"ȓ":{"ha":575,"x_min":115,"x_max":550,"o":"m 115 694 l 242 694 l 256 569 q 474 708 314 708 q 550 694 522 708 l 529 564 q 444 576 494 576 q 357 553 399 576 q 290 482 315 529 q 264 368 264 435 l 264 0 l 115 0 l 115 694 m 436 792 q 408 874 435 842 q 331 906 381 906 q 253 874 281 906 q 225 792 226 842 l 117 792 q 175 946 117 888 q 331 1004 233 1004 q 486 946 428 1004 q 544 792 544 888 l 436 792 z "},"ṟ":{"ha":575,"x_min":26,"x_max":550,"o":"m 115 694 l 242 694 l 256 569 q 474 708 314 708 q 550 694 522 708 l 529 564 q 444 576 494 576 q 357 553 399 576 q 290 482 315 529 q 264 368 264 435 l 264 0 l 115 0 l 115 694 m 354 -231 l 26 -231 l 26 -122 l 354 -122 l 354 -231 z "},"s":{"ha":735,"x_min":53,"x_max":669,"o":"m 379 -14 q 189 26 275 -14 q 53 140 103 67 l 156 229 q 246 138 188 171 q 382 104 304 104 q 483 127 446 104 q 521 189 521 150 q 502 238 521 218 q 438 267 483 257 l 292 297 q 135 367 183 318 q 86 494 86 417 q 120 601 86 551 q 219 679 154 650 q 372 708 285 708 q 549 672 475 708 q 663 567 624 635 l 560 481 q 483 562 533 533 q 375 590 433 590 q 271 566 308 590 q 233 503 233 542 q 255 453 233 474 q 329 422 276 433 l 488 389 q 626 324 583 369 q 669 210 669 279 q 591 47 669 108 q 379 -14 513 -14 z "},"ś":{"ha":735,"x_min":53,"x_max":669,"o":"m 379 -14 q 189 26 275 -14 q 53 140 103 67 l 156 229 q 246 138 188 171 q 382 104 304 104 q 483 127 446 104 q 521 189 521 150 q 502 238 521 218 q 438 267 483 257 l 292 297 q 135 367 183 318 q 86 494 86 417 q 120 601 86 551 q 219 679 154 650 q 372 708 285 708 q 549 672 475 708 q 663 567 624 635 l 560 481 q 483 562 533 533 q 375 590 433 590 q 271 566 308 590 q 233 503 233 542 q 255 453 233 474 q 329 422 276 433 l 488 389 q 626 324 583 369 q 669 210 669 279 q 591 47 669 108 q 379 -14 513 -14 m 543 1036 l 406 803 l 292 803 l 393 1036 l 543 1036 z "},"ṥ":{"ha":735,"x_min":53,"x_max":669,"o":"m 379 -14 q 189 26 275 -14 q 53 140 103 67 l 156 229 q 246 138 188 171 q 382 104 304 104 q 483 127 446 104 q 521 189 521 150 q 502 238 521 218 q 438 267 483 257 l 292 297 q 135 367 183 318 q 86 494 86 417 q 120 601 86 551 q 219 679 154 650 q 372 708 285 708 q 549 672 475 708 q 663 567 624 635 l 560 481 q 483 562 533 533 q 375 590 433 590 q 271 566 308 590 q 233 503 233 542 q 255 453 233 474 q 329 422 276 433 l 488 389 q 626 324 583 369 q 669 210 669 279 q 591 47 669 108 q 379 -14 513 -14 m 543 1036 l 406 803 l 292 803 l 393 1036 l 543 1036 m 371 1293 q 442 1269 415 1293 q 468 1201 468 1244 q 442 1134 468 1158 q 371 1110 415 1110 q 301 1134 326 1110 q 275 1201 275 1158 q 301 1269 275 1244 q 371 1293 326 1293 z "},"š":{"ha":735,"x_min":53,"x_max":669,"o":"m 379 -14 q 189 26 275 -14 q 53 140 103 67 l 156 229 q 246 138 188 171 q 382 104 304 104 q 483 127 446 104 q 521 189 521 150 q 502 238 521 218 q 438 267 483 257 l 292 297 q 135 367 183 318 q 86 494 86 417 q 120 601 86 551 q 219 679 154 650 q 372 708 285 708 q 549 672 475 708 q 663 567 624 635 l 560 481 q 483 562 533 533 q 375 590 433 590 q 271 566 308 590 q 233 503 233 542 q 255 453 233 474 q 329 422 276 433 l 488 389 q 626 324 583 369 q 669 210 669 279 q 591 47 669 108 q 379 -14 513 -14 m 447 803 l 292 803 l 135 1036 l 257 1036 l 369 888 l 482 1036 l 604 1036 l 447 803 z "},"ṧ":{"ha":735,"x_min":53,"x_max":669,"o":"m 379 -14 q 189 26 275 -14 q 53 140 103 67 l 156 229 q 246 138 188 171 q 382 104 304 104 q 483 127 446 104 q 521 189 521 150 q 502 238 521 218 q 438 267 483 257 l 292 297 q 135 367 183 318 q 86 494 86 417 q 120 601 86 551 q 219 679 154 650 q 372 708 285 708 q 549 672 475 708 q 663 567 624 635 l 560 481 q 483 562 533 533 q 375 590 433 590 q 271 566 308 590 q 233 503 233 542 q 255 453 233 474 q 329 422 276 433 l 488 389 q 626 324 583 369 q 669 210 669 279 q 591 47 669 108 q 379 -14 513 -14 m 447 803 l 292 803 l 135 1036 l 257 1036 l 369 888 l 482 1036 l 604 1036 l 447 803 m 371 1272 q 442 1248 415 1272 q 468 1181 468 1224 q 442 1113 468 1138 q 371 1089 415 1089 q 301 1113 326 1089 q 275 1181 275 1138 q 301 1248 275 1224 q 371 1272 326 1272 z "},"ş":{"ha":735,"x_min":53,"x_max":669,"o":"m 669 210 q 613 67 669 125 q 458 -7 557 10 q 517 -133 517 -56 q 467 -251 517 -204 q 340 -299 418 -299 q 206 -258 260 -299 l 236 -168 q 278 -191 258 -183 q 326 -199 299 -199 q 389 -174 365 -199 q 413 -107 413 -150 q 395 -56 413 -78 q 335 -12 378 -35 q 171 35 244 -4 q 53 140 97 75 l 156 229 q 246 138 188 171 q 382 104 304 104 q 483 127 446 104 q 521 189 521 150 q 502 238 521 218 q 438 267 483 257 l 292 297 q 135 367 183 318 q 86 494 86 417 q 120 601 86 551 q 219 679 154 650 q 372 708 285 708 q 549 672 475 708 q 663 567 624 635 l 560 481 q 483 562 533 533 q 375 590 433 590 q 271 566 308 590 q 233 503 233 542 q 255 453 233 474 q 329 422 276 433 l 488 389 q 626 324 583 369 q 669 210 669 279 z "},"ŝ":{"ha":735,"x_min":53,"x_max":669,"o":"m 379 -14 q 189 26 275 -14 q 53 140 103 67 l 156 229 q 246 138 188 171 q 382 104 304 104 q 483 127 446 104 q 521 189 521 150 q 502 238 521 218 q 438 267 483 257 l 292 297 q 135 367 183 318 q 86 494 86 417 q 120 601 86 551 q 219 679 154 650 q 372 708 285 708 q 549 672 475 708 q 663 567 624 635 l 560 481 q 483 562 533 533 q 375 590 433 590 q 271 566 308 590 q 233 503 233 542 q 255 453 233 474 q 329 422 276 433 l 488 389 q 626 324 583 369 q 669 210 669 279 q 591 47 669 108 q 379 -14 513 -14 m 483 793 l 371 942 l 258 793 l 136 793 l 293 1028 l 449 1028 l 606 793 l 483 793 z "},"ș":{"ha":735,"x_min":53,"x_max":669,"o":"m 379 -14 q 189 26 275 -14 q 53 140 103 67 l 156 229 q 246 138 188 171 q 382 104 304 104 q 483 127 446 104 q 521 189 521 150 q 502 238 521 218 q 438 267 483 257 l 292 297 q 135 367 183 318 q 86 494 86 417 q 120 601 86 551 q 219 679 154 650 q 372 708 285 708 q 549 672 475 708 q 663 567 624 635 l 560 481 q 483 562 533 533 q 375 590 433 590 q 271 566 308 590 q 233 503 233 542 q 255 453 233 474 q 329 422 276 433 l 488 389 q 626 324 583 369 q 669 210 669 279 q 591 47 669 108 q 379 -14 513 -14 m 354 -331 l 247 -331 l 303 -99 l 447 -99 l 354 -331 z "},"ṡ":{"ha":735,"x_min":53,"x_max":669,"o":"m 379 -14 q 189 26 275 -14 q 53 140 103 67 l 156 229 q 246 138 188 171 q 382 104 304 104 q 483 127 446 104 q 521 189 521 150 q 502 238 521 218 q 438 267 483 257 l 292 297 q 135 367 183 318 q 86 494 86 417 q 120 601 86 551 q 219 679 154 650 q 372 708 285 708 q 549 672 475 708 q 663 567 624 635 l 560 481 q 483 562 533 533 q 375 590 433 590 q 271 566 308 590 q 233 503 233 542 q 255 453 233 474 q 329 422 276 433 l 488 389 q 626 324 583 369 q 669 210 669 279 q 591 47 669 108 q 379 -14 513 -14 m 371 997 q 442 973 415 997 q 468 906 468 949 q 442 838 468 863 q 371 814 415 814 q 301 838 326 814 q 275 906 275 863 q 301 973 275 949 q 371 997 326 997 z "},"ṣ":{"ha":735,"x_min":53,"x_max":669,"o":"m 379 -14 q 189 26 275 -14 q 53 140 103 67 l 156 229 q 246 138 188 171 q 382 104 304 104 q 483 127 446 104 q 521 189 521 150 q 502 238 521 218 q 438 267 483 257 l 292 297 q 135 367 183 318 q 86 494 86 417 q 120 601 86 551 q 219 679 154 650 q 372 708 285 708 q 549 672 475 708 q 663 567 624 635 l 560 481 q 483 562 533 533 q 375 590 433 590 q 271 566 308 590 q 233 503 233 542 q 255 453 233 474 q 329 422 276 433 l 488 389 q 626 324 583 369 q 669 210 669 279 q 591 47 669 108 q 379 -14 513 -14 m 375 -303 q 305 -278 331 -303 q 279 -211 279 -254 q 305 -144 279 -168 q 375 -119 331 -119 q 446 -144 419 -119 q 472 -211 472 -168 q 446 -278 472 -254 q 375 -303 419 -303 z "},"ṩ":{"ha":735,"x_min":53,"x_max":669,"o":"m 379 -14 q 189 26 275 -14 q 53 140 103 67 l 156 229 q 246 138 188 171 q 382 104 304 104 q 483 127 446 104 q 521 189 521 150 q 502 238 521 218 q 438 267 483 257 l 292 297 q 135 367 183 318 q 86 494 86 417 q 120 601 86 551 q 219 679 154 650 q 372 708 285 708 q 549 672 475 708 q 663 567 624 635 l 560 481 q 483 562 533 533 q 375 590 433 590 q 271 566 308 590 q 233 503 233 542 q 255 453 233 474 q 329 422 276 433 l 488 389 q 626 324 583 369 q 669 210 669 279 q 591 47 669 108 q 379 -14 513 -14 m 371 997 q 442 973 415 997 q 468 906 468 949 q 442 838 468 863 q 371 814 415 814 q 301 838 326 814 q 275 906 275 863 q 301 973 275 949 q 371 997 326 997 m 375 -303 q 305 -278 331 -303 q 279 -211 279 -254 q 305 -144 279 -168 q 375 -119 331 -119 q 446 -144 419 -119 q 472 -211 472 -168 q 446 -278 472 -254 q 375 -303 419 -303 z "}}}
